<?xml version="1.0" encoding="UTF-8"?>
<!-- Generated by Pixelmator Pro 3.6.14 -->
<svg width="2418" height="2428" viewBox="0 0 2418 2428" xmlns="http://www.w3.org/2000/svg">
    <path id="Path" fill="#000000" fill-rule="evenodd" stroke="none" d="M 1209 0.769287 C 541.627808 0.769287 0.619976 543.968994 0.619976 1214 C 0.619976 1884.043945 541.640747 2427.243652 1209 2427.243652 C 1876.346313 2427.243652 2417.379883 1884.043945 2417.379883 1214 C 2417.379883 543.968994 1876.346313 0.769287 1209 0.769287 Z M 615.50354 1565.49353 L 615.50354 1465.068726 C 564.662109 1522.913818 506.726135 1561.459961 421.385101 1560.993164 C 219.458832 1559.890625 55.741478 1396.614258 55.741478 1193.87085 C 55.741478 991.127563 219.458832 826.77478 421.385101 826.77478 C 623.324341 826.77478 798.986816 989.843628 798.986816 1192.612793 L 799.194336 1564.209473 L 615.50354 1565.49353 Z M 1218.104858 1571.265137 C 1016.165527 1571.265137 840.503113 1408.196289 840.503113 1205.427002 L 840.295471 587.741943 L 1023.713989 587.741943 L 1023.960327 932.95813 C 1074.827759 875.125977 1132.750732 836.566895 1218.104858 837.033813 C 1419.992188 838.162231 1583.735474 1001.412598 1583.735474 1204.156006 C 1583.735474 1406.912231 1419.992188 1571.265137 1218.104858 1571.265137 Z M 2004.31897 1562.640259 C 1802.379639 1562.640259 1638.662354 1398.287354 1638.662354 1195.544067 C 1638.662354 992.800659 1802.379639 828.447754 2004.31897 828.447754 C 2180.552246 828.447754 2328.212891 957.626709 2362.816162 1124.275146 L 2178.930908 1123.665649 C 2150.760742 1056.806519 2084.549805 1011.632813 2007.665283 1011.632813 C 1905.177979 1011.632813 1822.080688 1095.02832 1822.080688 1197.93042 C 1822.080688 1300.845459 1905.165161 1384.280151 2007.665283 1384.280151 C 2084.549805 1384.280151 2151.577637 1339.599121 2179.748047 1272.714111 L 2363.607422 1271.858032 C 2329.496826 1439.12915 2181.006104 1562.640259 2004.31897 1562.640259 Z"/>
    <path id="path1" fill="#000000" fill-rule="evenodd" stroke="none" d="M 1213.396729 1008.027222 C 1110.909668 1008.027222 1027.799438 1091.44873 1027.799438 1194.35083 C 1027.799438 1297.25293 1110.909668 1380.700439 1213.396729 1380.700439 C 1315.883911 1380.700439 1398.994141 1297.25293 1398.994141 1194.35083 C 1398.994141 1091.44873 1315.883911 1008.027222 1213.396729 1008.027222 Z M 423.654785 1008.027222 C 321.167725 1008.027222 238.057465 1091.44873 238.057465 1194.35083 C 238.057465 1297.25293 321.167725 1380.700439 423.654785 1380.700439 C 526.141907 1380.700439 609.252136 1297.25293 609.252136 1194.35083 C 609.252136 1091.44873 526.141907 1008.027222 423.654785 1008.027222 Z"/>
</svg>
