<?xml version="1.0" encoding="UTF-8"?>
<!-- Generated by Pixelmator Pro 3.6.14 -->
<svg width="775" height="333" viewBox="0 0 775 333" xmlns="http://www.w3.org/2000/svg">
    <path id="Path" fill="#000000" stroke="none" d="M 0.924194 332.214966 L 0.924194 0.065918 L 200.948242 0.065918 L 207.088745 90.88208 L 95.137939 90.88208 L 95.137939 134.220825 L 186.344604 134.220825 L 186.344604 224.82959 L 94.377075 224.82959 L 94.608765 332.214966 L 0.924194 332.214966 Z"/>
    <path id="path1" fill="#000000" stroke="none" d="M 774.29248 331.722534 L 674.296265 159.387817 L 765.169556 0.557983 L 665.055786 0.557983 L 623.50293 72.103394 L 582.694946 0.557983 L 479.061157 0.557983 L 571.749146 160.506714 L 473.584229 331.722534 L 574.235474 331.909912 L 622.249512 247.962036 L 670.821167 331.722534 L 774.29248 331.722534 Z"/>
    <path id="path2" fill="#000000" stroke="none" d="M 362.813721 5.074585 C 275.40332 5.074585 204.54126 77.377075 204.54126 166.57373 C 204.54126 255.766357 275.39917 328.072876 362.813721 328.072876 C 450.220093 328.072876 521.077881 255.766357 521.077881 166.57373 C 521.077881 77.377075 450.224121 5.074585 362.813721 5.074585 Z M 363.25293 259.888306 C 348.41748 259.888306 336.393799 247.616211 336.393799 232.475464 L 336.42627 100.175415 C 336.42627 85.038818 348.421631 71.493286 363.25708 71.493286 C 378.092896 71.493286 391.04834 85.038818 391.04834 100.175415 L 391.451172 232.862061 C 391.451172 248.00293 378.088745 259.888306 363.25293 259.888306 Z"/>
</svg>
