<?xml version="1.0" encoding="UTF-8"?>
<!-- Generated by Pixelmator Pro 3.6.14 -->
<svg width="801" height="98" viewBox="0 0 801 98" xmlns="http://www.w3.org/2000/svg">
    <path id="Path" fill="#000000" stroke="none" d="M 629.21167 94.723923 L 629.21167 82.453979 L 641.481628 80.981598 C 645.898743 80.490799 647.371155 76.564423 647.861938 75.582825 L 678.782166 26.012268 C 681.236206 22.085892 678.782166 18.650307 675.837463 18.159515 L 659.641113 16.196312 L 659.641113 3.926376 L 729.334351 3.926376 C 733.260742 3.926376 735.714722 6.871162 737.187134 8.834351 L 777.923279 71.165649 C 781.358948 76.073624 783.812927 80 787.739258 80.490799 L 800.5 81.963196 L 800.5 94.723923 L 721.972412 94.723923 L 721.972412 82.453979 L 731.78833 81.472397 C 736.696289 80.981598 740.622742 78.527603 736.696289 73.12883 L 732.769897 67.239273 L 677.309814 67.239273 L 672.892639 74.110428 C 670.43866 78.527603 672.892639 80.981598 676.819031 81.472397 L 686.63501 82.453979 L 686.63501 94.723923 L 629.21167 94.723923 M 687.616577 50.552143 L 722.953979 50.552143 L 704.794495 22.576691 L 687.616577 50.552143"/>
    <path id="path1" fill="#000000" stroke="none" d="M 577.187134 3.926376 L 487.371155 3.926376 L 487.371155 16.196312 L 498.659515 17.17791 C 502.585907 17.17791 504.549072 20.613503 504.549072 25.030678 L 504.549072 73.619629 C 504.549072 77.055222 503.076691 80 499.641083 80.490799 L 487.371155 81.963196 L 487.371155 93.742332 L 577.187134 93.742332 C 618.414124 93.742332 636.082825 73.619629 636.082825 47.116566 C 636.573669 24.04908 618.414124 3.926376 577.187134 3.926376 M 563.444763 77.055222 L 540.377319 77.055222 L 540.377319 21.104294 L 563.444763 21.104294 C 585.53064 21.104294 594.855835 26.012268 594.855835 49.079754 C 594.855835 72.147247 585.53064 77.055222 563.444763 77.055222"/>
    <path id="path2" fill="#000000" stroke="none" d="M 0.5 94.723923 L 73.138039 94.723923 L 73.138039 82.453979 L 60.868099 80.981598 C 57.923313 80.490799 54.978531 79.018402 54.978531 72.638031 L 54.978531 57.914108 L 110.929451 57.914108 L 110.929451 71.656448 C 110.929451 75.582825 110.438652 79.509201 105.53067 80 L 92.769936 81.472397 L 92.769936 94.723923 L 165.407974 94.723923 L 165.407974 82.453979 L 152.647232 80.981598 C 150.193253 80.490799 147.248459 78.527603 147.248459 73.619629 L 147.248459 26.012268 C 147.248459 21.104294 149.211655 18.159515 152.647232 17.668716 L 165.407974 16.196312 L 165.407974 3.926376 L 92.769936 3.926376 L 92.769936 16.196312 L 105.53067 17.668716 C 109.457062 18.159515 110.929451 21.595093 110.929451 26.012268 L 110.929451 40.245403 L 54.978531 40.245403 L 54.978531 26.012268 C 54.978531 20.613503 56.941719 18.159515 60.868099 17.668716 L 73.138039 16.196312 L 73.138039 3.926376 L 0.5 3.926376 L 0.5 16.196312 L 12.769938 17.668716 C 17.677914 17.668716 18.659508 21.595093 18.659508 26.503067 L 18.659508 72.638031 C 18.659508 77.546005 17.187117 80.981598 12.769938 81.472397 L 0.5 82.944778 L 0.5 94.723923"/>
    <path id="path3" fill="#000000" stroke="none" d="M 168.843552 48.588955 C 168.843552 20.122704 191.911041 0 242.953995 0 C 293.996918 0 317.064423 20.122704 317.064423 48.588955 C 317.064423 77.055222 293.996918 97.668709 242.953995 97.668709 C 191.911041 97.668709 168.843552 78.036804 168.843552 48.588955 M 242.953995 17.668716 C 222.3405 17.668716 210.56134 25.521477 210.56134 48.588955 C 210.56134 71.656448 222.3405 80 242.953995 80 C 263.567474 80 275.346619 72.147247 275.346619 48.588955 C 275.346619 25.030678 263.567474 17.668716 242.953995 17.668716"/>
    <path id="path4" fill="#000000" stroke="none" d="M 320.990814 94.723923 L 378.904907 94.723923 L 378.904907 82.453979 L 366.144165 80.981598 C 362.708618 80.490799 360.254608 77.546005 360.254608 73.619629 L 360.254608 27.484665 L 408.352753 90.797546 C 409.825165 92.760735 412.769928 94.233131 415.714722 94.233131 L 461.358917 94.233131 L 461.358917 26.012268 C 461.358917 22.576691 462.340485 18.159515 466.75766 17.668716 L 480.009186 16.196312 L 480.009186 3.926376 L 422.095093 3.926376 L 422.095093 16.196312 L 434.855835 17.668716 C 439.27301 17.668716 440.254608 22.085892 440.254608 26.012268 L 440.254608 70.67485 L 392.156464 7.85276 C 390.193268 5.398773 388.230072 3.926376 384.794495 3.926376 L 320.990814 3.926376 L 320.990814 16.196312 L 333.260742 17.668716 C 337.677887 17.668716 339.150299 20.613503 339.150299 26.503067 L 339.150299 72.638031 C 339.150299 78.036804 337.677887 80.490799 333.260742 81.472397 L 321.481598 82.944778 L 321.481598 94.723923"/>
</svg>
