<?xml version="1.0" encoding="UTF-8"?>
<!-- Generated by Pixelmator Pro 3.6.14 -->
<svg width="4202" height="986" viewBox="0 0 4202 986" xmlns="http://www.w3.org/2000/svg">
    <path id="Path" fill="#000000" stroke="none" d="M 4139.489258 764.572754 C 4076.450195 803.21344 3956.471191 875.18457 3779.525391 980.540405 C 3775.522461 982.936768 3772.009766 984.652344 3769.041504 985.687134 C 3768.142578 985.986572 3767.325684 985.796021 3766.645508 985.115234 C 3763.704102 982.092651 3762.233398 978.498169 3762.260742 974.359009 C 3762.64209 760.896973 3762.45166 547.461609 3761.689453 334.026794 C 3761.661621 325.204041 3759.701172 319.485291 3750.769531 317.524841 C 3749.925293 317.361206 3749.054199 317.443054 3748.291504 317.82428 C 3743.253418 320.329651 3739.768066 322.181152 3737.88916 323.406433 C 3420.214844 529.108032 3102.703613 735.136475 2785.655518 941.818359 C 2755.374512 961.560669 2730.757813 963.711792 2690.973877 963.820679 C 2557.052734 964.283752 2423.049805 964.664856 2289.155762 963.711792 C 2215.360352 963.167236 2141.428711 964.88269 2067.687744 963.031067 C 2029.18335 962.050781 2006.200439 932.287537 2005.383545 894.51825 C 2004.812012 866.824585 2004.539551 842.725342 2004.593994 822.220459 C 2005.220215 581.71814 2006.227783 341.242676 2003.967529 100.767334 C 2003.913086 96.873413 2002.306396 93.387817 1999.120605 90.311157 C 1998.494141 89.71167 1997.731934 89.38501 1996.833008 89.303345 C 1992.884766 89.031006 1990.270508 89.276001 1989.044922 90.011353 C 1778.333008 216.416748 1566.640869 341.406311 1356.963623 469.527344 C 1351.245117 473.012634 1347.405518 477.233215 1345.445068 482.189392 C 1345.091064 483.088257 1345.227051 484.095398 1345.799072 484.857971 C 1348.794434 488.724854 1351.926025 492.291931 1355.166504 495.559875 C 1505.126465 646.064209 1655.140869 796.460266 1805.264404 946.801453 C 1808.096436 949.633545 1810.057129 952.138733 1811.145996 954.344421 C 1813.07959 958.238403 1810.383789 962.813171 1806.053955 963.031067 C 1785.25 964.011353 1758.100586 963.357788 1743.259766 963.439453 C 1620.149414 964.065796 1497.011719 963.847961 1373.901123 962.813171 C 1351.789795 962.64978 1332.210938 957.258118 1316.852539 941.927185 C 1225.765625 851.112305 1134.324463 759.807373 1042.502441 667.985168 C 1039.533936 664.989807 1035.013916 664.173096 1031.174316 665.942871 C 1024.230469 669.15625 1017.014404 673.023132 1009.580322 677.51593 C 859.620117 768.031067 709.469482 858.274048 559.182739 948.244751 C 541.564331 958.810303 521.168457 964.011353 498.022217 963.875244 C 410.039551 963.276001 321.866089 961.941772 233.883423 962.94928 C 157.882324 963.847961 100.506958 963.902466 61.812012 963.112671 C 32.783936 962.513672 10.318604 936.889404 2.421631 910.884033 C 0.706055 905.274414 -0.001953 892.176453 0.297485 871.562744 C 0.62439 847.626709 0.78772 823.69104 0.76062 799.755066 C 0.733276 700.172119 2.230957 600.670654 1.196167 501.060181 C 0.352051 417.652527 0.651489 358.425537 2.12207 323.37915 C 2.584961 312.486816 6.043335 298.136475 12.496948 280.354614 C 22.354492 253.314331 44.111938 231.339233 68.156738 216.798096 C 186.06604 145.534912 304.220581 74.680664 422.593018 4.234253 C 427.521729 1.293457 432.205444 -0.040894 436.644165 0.204102 C 437.62439 0.258545 438.49585 0.857666 438.904053 1.729126 C 441.409424 7.093628 442.634766 10.661011 442.607666 12.430664 C 441.763428 64.577881 442.798096 117.323853 442.798096 168.68103 C 442.879883 357.472168 442.934448 546.290833 442.907104 735.081909 C 442.907104 739.520569 443.996216 743.496155 446.174927 747.036255 C 446.637817 747.798828 447.509155 748.234253 448.407837 748.152527 C 453.390869 747.717041 456.985352 746.845459 459.191162 745.51123 C 591.669067 666.324158 885.435059 489.868713 1340.543457 216.171875 C 1445.736328 152.887451 1567.403564 79.227905 1656.121338 26.672363 C 1678.58667 13.356689 1698.492432 10.442993 1726.894043 10.497559 C 1937.987305 10.987427 2149.080811 11.096436 2360.146729 10.824219 C 2411.966797 10.769653 2437.019043 36.121338 2437.12793 87.778442 C 2437.645508 350.119995 2437.754395 612.461792 2437.42749 874.802979 C 2437.400391 881.44751 2442.791992 889.970703 2451.560547 884.633667 C 2524.130615 840.519836 2594.304443 792.266602 2665.894043 746.519043 C 2682.885986 735.653992 2698.135254 725.823364 2711.614746 717.027893 C 3062.075195 488.125488 3413.570313 260.802856 3764.847656 33.153687 C 3795.618652 13.220581 3818.138672 10.388428 3854.600586 10.55188 C 3943.427734 10.932861 4032.254395 11.069214 4121.081055 10.932861 C 4136.466309 10.90564 4148.040039 12.158447 4155.800293 14.663818 C 4192.807617 26.645142 4200.677246 55.972778 4200.677246 92.271606 C 4200.731445 248.794312 4200.758301 405.289612 4200.731445 561.785034 C 4200.731445 640.836121 4214.782227 718.443909 4139.489258 764.572754 Z"/>
</svg>
