<?xml version="1.0" encoding="UTF-8"?>
<!-- Generated by Pixelmator Pro 3.6.14 -->
<svg width="129" height="140" viewBox="0 0 129 140" xmlns="http://www.w3.org/2000/svg">
    <path id="u2" fill="#000000" stroke="none" d="M 64.430382 0.516586 C 64.318863 0.683868 63.742657 5.906891 63.445255 9.382721 C 63.277973 11.427338 63.240799 11.445908 60.266827 11.594604 C 51.623734 12.003532 42.46019 14.884567 34.449066 19.717262 C 31.828255 21.315773 30.285509 22.412422 27.776222 24.457024 C 25.638683 26.222816 24.765079 27.09642 24.96954 27.282303 C 25.025301 27.356651 26.660984 27.486755 28.575478 27.579697 L 32.051304 27.746979 L 34.932335 25.813896 C 41.976921 21.074135 49.746414 18.137344 58.240814 17.022102 C 61.233368 16.631775 62.571651 16.650352 62.776115 17.05928 C 62.869049 17.245155 62.869049 18.471916 62.794701 19.810204 C 62.720352 21.129898 62.646004 23.527664 62.608826 25.107582 L 62.534477 27.988617 L 64.05864 28.044373 C 65.471275 28.100136 65.601379 28.062965 65.805847 27.67263 C 65.973129 27.375229 65.991722 26.018356 65.898781 22.300903 C 65.768669 17.468201 65.768669 17.319504 66.140411 16.947754 C 66.437813 16.650352 66.679451 16.594597 67.40435 16.650352 C 76.196144 17.468201 81.735161 18.955185 88.277893 22.226547 C 91.586433 23.880821 92.757431 24.56855 95.508354 26.501633 L 97.831764 28.137314 L 100.712799 27.914268 C 102.311302 27.802734 103.761116 27.709808 103.946983 27.709808 C 104.653313 27.709808 104.151451 27.05925 102.051086 25.256279 C 93.184944 17.728416 82.738876 13.13736 71.437798 11.817657 C 70.118095 11.668961 68.482414 11.538849 67.794685 11.538849 C 66.121826 11.538849 65.638557 11.334396 65.527039 10.572311 C 65.489861 10.237732 65.303986 7.914322 65.136703 5.405045 C 64.839302 1.111374 64.690605 0.089066 64.430382 0.516586 Z M 25.359875 31.278564 C 25.304111 31.408676 25.285524 41.259949 25.304111 53.174408 L 25.359875 74.828621 L 44.040112 74.828621 L 62.720352 74.828621 L 62.720352 52.988533 L 62.720352 31.148453 L 56.121861 31.148453 L 49.523369 31.148453 L 49.430431 46.724609 C 49.337494 61.891861 49.318909 62.319366 48.984337 62.579582 C 48.445305 62.969925 39.634922 62.969925 39.09589 62.579582 C 38.761318 62.319366 38.742733 61.891861 38.649796 46.724609 L 38.556858 31.148453 L 31.995541 31.092697 C 26.846857 31.055519 25.415636 31.092697 25.359875 31.278564 Z M 63.426666 115.8508 C 63.054924 116.445587 63.426666 128.787552 64.040054 135.6091 C 64.337448 138.954819 64.411797 139.47525 64.67202 139.326553 C 65.099525 139.06633 66.047478 129.345184 66.530754 119.902824 C 66.735207 116.352654 66.716621 116.09243 66.419228 115.869385 C 65.991722 115.553398 63.63113 115.553398 63.426666 115.8508 Z M 23.872889 76.836044 C 23.817127 76.966156 23.798542 78.862061 23.817127 81.055359 L 23.872889 85.051636 L 32.423046 85.144577 C 37.125637 85.200333 41.084732 85.311859 41.214844 85.386208 C 41.512241 85.590668 41.512241 86.37133 41.214844 86.57579 C 41.084732 86.650146 37.162811 86.761665 32.515984 86.817429 L 24.058762 86.910362 L 24.058762 95.274651 L 32.571747 95.367584 C 40.731571 95.460526 41.103317 95.479111 41.363541 95.813683 C 41.698112 96.278366 41.698112 96.873161 41.363541 97.337845 C 41.103317 97.672409 40.75016 97.691002 32.850555 97.783936 L 24.616381 97.876877 L 24.523445 100.980949 C 24.467682 102.672394 24.356161 104.140793 24.281811 104.215141 C 23.92865 104.586891 22.646128 103.081314 20.136841 99.30809 C 19.356176 98.174271 18.631269 97.226318 18.50116 97.226318 C 18.222351 97.226318 16.363619 99.289505 15.991873 99.977234 C 15.787413 100.367569 15.843175 100.534859 16.382206 101.427048 C 18.259525 104.549713 23.147985 110.014381 26.958382 113.285744 C 33.761333 119.122162 41.79105 123.211365 50.620014 125.386078 C 53.68692 126.12957 57.720367 126.74295 60.211067 126.817307 L 61.97686 126.873062 L 61.97686 123.545937 L 61.326305 123.415825 C 60.973148 123.341476 59.839321 123.19278 58.798431 123.081253 C 47.441589 121.89167 35.973225 116.482765 27.646112 108.397285 C 26.586636 107.39357 26.177715 106.705841 26.437937 106.482788 C 26.456526 106.445618 31.698143 106.389862 38.092178 106.334091 L 49.70924 106.241165 L 49.70924 76.687347 L 36.828239 76.631584 C 26.4937 76.594406 23.92865 76.631584 23.872889 76.836044 Z M 107.701622 72.114868 C 106.028763 72.542374 104.560371 73.843491 104.077103 75.274712 C 103.946983 75.702225 103.705353 76.148315 103.556656 76.278427 C 103.333611 76.445709 100.322464 76.520065 90.805763 76.594406 L 78.333679 76.687347 L 78.333679 106.055283 L 90.694244 106.148224 C 97.497192 106.203979 103.073387 106.25975 103.110558 106.296921 C 103.538071 106.705841 100.954437 109.401001 97.720245 111.928871 C 92.032532 116.334061 85.080879 119.847061 78.612495 121.557098 C 75.89875 122.263412 71.80954 123.025497 69.764938 123.174194 C 68.90992 123.248543 68.073494 123.39724 67.943382 123.508759 C 67.757515 123.63887 67.664574 124.21508 67.60881 125.293144 L 67.553047 126.873062 L 68.854164 126.817307 C 73.705452 126.612846 80.396881 125.125854 85.489799 123.118431 C 88.816925 121.798729 90.917297 120.776428 93.9842 118.936287 C 100.173767 115.237411 105.21093 110.832222 109.876343 105.03299 C 111.56778 102.914032 113.742493 99.67984 113.742493 99.27092 C 113.742493 99.122223 113.184875 98.397316 112.534325 97.691002 L 111.326149 96.389893 L 110.954399 96.854568 C 110.731354 97.114792 109.913521 98.322968 109.095673 99.549728 C 107.404228 102.133362 105.192337 104.921463 104.783417 104.995811 C 104.616135 105.03299 104.448845 104.884285 104.374504 104.624062 C 104.2258 104.066444 104.2258 81.371346 104.374504 80.981018 C 104.541779 80.572098 105.062225 80.609268 105.489738 81.073952 C 106.251816 81.92897 107.236946 82.263535 108.909798 82.263535 C 110.731354 82.263535 111.530609 81.92897 112.645844 80.73938 C 113.593796 79.75425 113.965546 78.936409 114.077072 77.598129 C 114.30011 74.679916 112.236923 72.263565 109.318726 72.04052 C 108.742516 72.003349 108.017609 72.021935 107.701622 72.114868 Z M 0.359952 115.460464 C 2.813475 101.111069 9.207508 88.601807 19.44911 78.118568 C 20.675873 76.873222 21.809698 75.850914 21.995573 75.850914 C 22.274382 75.850914 22.292969 76.018204 22.162857 77.560944 C 21.921223 80.293282 22.032747 87.783966 22.34873 90.070206 C 22.516016 91.315552 22.553192 92.244919 22.441668 92.430794 C 22.367317 92.616669 21.605238 93.285812 20.750223 93.917778 C 13.631286 99.345276 7.534651 106.464203 1.568126 116.315475 C 0.861809 117.467888 0.22984 118.41584 0.136904 118.41584 C -0.086144 118.41584 -0.048969 117.839638 0.359952 115.460464 Z M 108.073372 84.661301 C 110.322433 84.661301 111.400497 84.363907 112.999008 83.285843 C 113.463684 82.969856 113.965546 82.746811 114.114243 82.783981 C 114.709038 82.876923 117.887466 87.560913 120.229469 91.76165 C 123.519417 97.653824 126.493385 106.389862 127.701561 113.713257 C 128.277771 117.170494 128.147659 117.189079 126.195992 113.954887 C 120.433922 104.401016 113.612389 96.57576 106.642151 91.482834 C 105.582672 90.720764 105.564087 90.683594 105.582672 89.828568 C 105.582672 89.345306 105.694199 87.988434 105.805725 86.817429 L 106.028763 84.679886 L 108.073372 84.661301 Z M 57.962002 111.631477 C 57.887657 109.698395 57.906242 108.155655 58.017765 107.951187 C 58.166466 107.672379 58.501034 107.635208 61.14043 107.635208 C 63.928524 107.635208 64.114403 107.653793 64.300278 108.025543 C 64.560493 108.490219 64.46756 114.791321 64.207336 115.032951 C 64.09581 115.125885 62.757526 115.163063 61.047497 115.088715 L 58.073524 114.977188 L 57.962002 111.631477 Z M 65.248222 107.988365 C 64.932243 108.58316 64.988007 114.17794 65.303986 114.624031 C 65.545624 114.958603 65.768669 114.977188 68.519592 114.921432 C 70.954529 114.865669 71.493561 114.809906 71.698021 114.549683 C 72.014 114.122177 72.014 108.397285 71.679436 107.932602 C 71.493561 107.690964 71.233337 107.616623 70.527023 107.672379 L 69.597656 107.728142 L 69.504715 110.107315 C 69.430367 112.189095 69.374611 112.523666 69.058624 112.765305 C 68.854164 112.914001 68.593941 113.025528 68.482414 113.025528 C 68.370888 113.025528 68.110672 112.914001 67.906204 112.765305 C 67.590225 112.523666 67.534462 112.189095 67.460114 110.107315 L 67.36718 107.728142 L 66.400635 107.672379 C 65.601379 107.616623 65.396919 107.672379 65.248222 107.988365 Z M 73.7798 114.847076 C 72.534447 114.940018 72.478683 114.772736 72.478683 111.296906 C 72.478683 109.605461 72.55304 108.192825 72.664558 107.988365 C 72.850433 107.653793 73.054893 107.635208 75.880165 107.672379 L 78.891304 107.728142 L 78.928482 110.887985 C 78.947067 112.6166 79.002831 114.215111 79.021416 114.419571 C 79.058586 114.716965 78.947067 114.809906 78.408043 114.847076 C 77.794655 114.90284 77.720306 114.847076 77.40432 114.159348 C 77.144096 113.545967 76.958229 113.378685 76.437782 113.285744 C 75.545586 113.118462 74.95079 113.434448 74.746338 114.17794 C 74.616226 114.735558 74.523285 114.791321 73.7798 114.847076 Z M 48.947159 107.895432 C 48.891399 108.044128 48.87281 108.471634 48.909985 108.861969 L 48.965752 109.586876 L 50.025223 109.67981 C 50.601429 109.735573 51.196228 109.88427 51.326336 110.014381 C 51.493622 110.181671 51.605145 111.018097 51.660908 112.523666 L 51.753845 114.791321 L 54.170193 114.791321 L 54.26313 112.523666 C 54.318893 111.018097 54.430416 110.181671 54.597702 110.014381 C 54.72781 109.88427 55.304016 109.735573 55.898811 109.67981 C 56.846764 109.605461 56.976875 109.531113 57.125576 109.085014 C 57.255684 108.750443 57.237099 108.434464 57.088402 108.099892 L 56.865353 107.635208 L 52.962017 107.635208 C 49.783588 107.635208 49.021511 107.690964 48.947159 107.895432 Z M 62.441544 111.259735 C 62.441544 110.479065 62.348606 110.144493 62.069798 109.865685 C 61.865337 109.661224 61.456413 109.493935 61.14043 109.493935 C 60.248241 109.493935 59.839321 110.051559 59.839321 111.259735 C 59.839321 112.467903 60.248241 113.025528 61.14043 113.025528 C 62.032619 113.025528 62.441544 112.467903 62.441544 111.259735 Z M 76.753761 110.609177 C 76.753761 110.404716 76.586479 110.070145 76.382019 109.865685 C 76.177567 109.661224 75.880165 109.493935 75.731468 109.493935 C 75.32254 109.493935 74.70916 110.181671 74.70916 110.609177 C 74.70916 111.036682 75.32254 111.724411 75.731468 111.724411 C 76.140388 111.724411 76.753761 111.036682 76.753761 110.609177 Z M 51.623734 91.371315 C 51.549385 83.397362 51.512211 76.761703 51.56797 76.631584 C 51.623734 76.445709 54.225952 76.408539 64.05864 76.445709 L 76.474953 76.50148 L 76.474953 85.051636 L 68.240784 85.144577 C 60.341175 85.237503 59.988018 85.256088 59.727795 85.590668 C 59.393227 86.055344 59.393227 86.278397 59.727795 86.743073 C 59.988018 87.077652 60.359764 87.096237 68.333717 87.189178 L 76.660828 87.282104 L 76.660828 105.869415 L 51.753845 105.869415 L 51.623734 91.371315 Z M 69.504715 96.296951 C 69.504715 95.423355 69.430367 95.107361 69.132973 94.809967 C 68.779816 94.45681 68.519592 94.438217 64.207336 94.438217 C 64.103645 94.438217 64.001984 94.438202 63.902313 94.438194 C 60.572891 94.437744 59.463196 94.437592 59.093765 94.960472 C 58.909073 95.221878 58.909405 95.613998 58.909901 96.202194 C 58.909927 96.233231 58.909954 96.264816 58.909954 96.296951 C 58.909954 96.329094 58.909927 96.36068 58.909901 96.391716 C 58.909405 96.979904 58.909073 97.372025 59.093761 97.63343 C 59.463192 98.156311 60.572891 98.156158 63.902313 98.155708 C 64.001984 98.155701 64.103645 98.155685 64.207336 98.155685 C 64.311028 98.155685 64.412689 98.155701 64.51236 98.155708 C 67.841782 98.156158 68.951485 98.156311 69.320908 97.633438 C 69.505592 97.372032 69.505264 96.979912 69.504768 96.391716 C 69.504738 96.36068 69.504715 96.329094 69.504715 96.296951 Z M 95.526947 84.401077 C 95.880104 84.754234 95.898682 85.014458 95.898682 90.999573 C 95.898682 96.98468 95.880104 97.244904 95.526947 97.598061 C 95.173782 97.951225 94.913559 97.96981 90.973053 97.96981 C 87.032547 97.96981 86.772324 97.951225 86.419159 97.598061 C 86.066002 97.244904 86.047417 96.98468 86.047417 90.999573 C 86.047417 85.014458 86.066002 84.754234 86.419159 84.401077 C 86.772324 84.04792 87.032547 84.029335 90.973053 84.029335 C 94.913559 84.029335 95.173782 84.04792 95.526947 84.401077 Z M 9.003047 52.598206 C 11.140588 45.200462 15.582952 37.114983 20.675873 31.352913 C 21.270666 30.683769 21.865461 30.126152 21.995573 30.126152 C 22.311556 30.126152 22.385904 30.553658 22.683304 33.880791 C 22.869175 35.999748 22.869175 36.706062 22.701891 37.040634 C 22.571779 37.282265 21.73535 38.509033 20.824572 39.79155 C 14.820872 48.174423 11.32646 59.289635 11.32646 69.995918 C 11.32646 73.657616 11.679619 77.096268 12.460285 80.795135 C 12.757683 82.244949 12.999317 83.564651 12.999317 83.713348 C 12.999317 84.066513 10.266984 87.449402 9.913825 87.523743 C 9.560666 87.616684 9.226095 86.780258 8.445428 83.80629 C 7.051381 78.508904 6.56811 73.917839 6.735396 67.523804 C 6.884095 61.687393 7.423126 58.100044 9.003047 52.598206 Z M 106.047356 30.070396 C 105.787132 31.352913 105.378204 34.271126 105.378204 34.828743 C 105.378204 35.312012 105.657021 35.79528 106.60498 37.022041 C 112.125404 44.010872 115.842865 52.468094 117.36702 61.46434 C 118.55661 68.453171 118.407906 72.784012 116.679291 82.375061 L 116.474831 83.583237 L 117.720184 85.386208 C 118.407906 86.37133 119.058464 87.189178 119.151405 87.189178 C 119.448799 87.189178 119.801956 86.16687 120.526863 83.267258 C 122.627228 74.94014 122.757339 65.033112 120.88002 56.538712 C 119.281509 49.345428 116.549179 43.025742 112.255516 36.631714 C 110.341026 33.787849 106.846611 29.568535 106.381927 29.568535 C 106.251816 29.568535 106.103111 29.791588 106.047356 30.070396 Z M 109.987862 74.921555 C 112.051056 75.850914 111.828011 78.936409 109.634705 79.586967 C 108.203484 80.014473 106.939545 79.270981 106.474861 77.709648 C 106.288994 77.133438 106.326164 76.891808 106.642151 76.148315 C 106.958138 75.460587 107.199768 75.200363 107.831734 74.921555 C 108.277832 74.717094 108.761108 74.549812 108.909798 74.549812 C 109.058495 74.549812 109.541771 74.717094 109.987862 74.921555 Z M 66.251938 31.297157 C 66.196175 31.408676 66.177589 34.196777 66.196175 37.46814 L 66.251938 43.416069 L 77.924767 43.50901 C 87.755798 43.591049 89.7313 43.512154 90.088715 44.234207 C 90.178314 44.415222 90.166229 44.646568 90.150719 44.943398 C 90.14399 45.072121 90.13662 45.21315 90.13662 45.367737 C 90.13662 45.522324 90.14399 45.663361 90.150719 45.792084 C 90.166229 46.088913 90.178314 46.320259 90.088715 46.501266 C 89.7313 47.223328 87.755791 47.144432 77.924767 47.226471 L 66.251938 47.319405 L 66.251938 74.828621 L 102.868919 74.828621 L 102.868919 62.932739 L 91.289032 62.839806 C 90.1241 62.830101 89.070145 62.822929 88.116676 62.816437 C 81.21447 62.76947 79.578171 62.758331 79.226746 62.08078 C 79.117554 61.870262 79.132408 61.595406 79.151886 61.235039 C 79.160545 61.074928 79.170113 60.897949 79.170113 60.702263 C 79.170113 60.506569 79.160545 60.32959 79.151886 60.169479 C 79.132401 59.809181 79.117538 59.534294 79.226738 59.323753 C 79.578163 58.646202 81.21447 58.635063 88.116669 58.588097 C 89.070137 58.581604 90.124092 58.574432 91.289032 58.564728 L 102.868919 58.471786 L 102.868919 31.148453 L 84.597603 31.092697 C 70.025162 31.055519 66.307701 31.092697 66.251938 31.297157 Z"/>
</svg>
