<svg height="55" viewBox="0 0 129 55" width="129" xmlns="http://www.w3.org/2000/svg"><path d="m56.577492 20.427753c.8213-.024379 1.999264 1.947014 2.035839 3.179219.036575 1.232204.331535 7.672056.41766 9.527641.08612 1.855545.025154 3.632782-.095471 4.455109-.120861.822334-.4197 1.228309-1.831165 1.270065-1.411453.041763-2.068806-.798714-2.18866-2.041813-.119854-1.243366-.224644-4.770039-.163154-6.537146.06147-1.766593.144748-5.147745.375106-7.264659.230355-2.11693.797413-2.569067 1.449845-2.588416zm14.905472-.330608c3.364021-.099876 7.578422.336056 7.610321 1.411728.018676.629452-.310769 1.943237-2.105889 2.125095-2.117065.214651-12.796203.668229-12.757057 1.986428.020508.697157 3.229698.851488 6.17321 1.029974 3.023682.183157 7.880638.296631 8.02591 5.190805.114654 3.863674-1.347382 4.680557-2.005501 4.988216-.83532.390671-3.642372 1.457879-5.794197 1.521706-6.485771.192738-9.159806-3.534218-9.216088-5.428444-.049808-1.681743 1.680466-3.17387 4.590012-3.260261 2.909302-.086384 7.414734.962673 7.450272 2.159601.028793.969915-1.95829 1.468515-2.837181 1.494711-3.970253.118042-3.775467-1.495506-6.063706-1.427534-1.303291.038912-3.132122 2.807859 3.399048 2.613813 5.819092-.172752 7.582306-2.090584 7.551437-3.120964-.040451-1.363726-4.215942-2.02832-6.63105-2.153624-2.415359-.125303-6.03986-.108696-7.276455-.891075-1.23661-.781873-1.063072-2.551674-.635051-4.015014.895214-3.059626 7.157653-4.125281 10.521965-4.225161zm11.48851 1.266316c2.273208-.067582 7.038589 10.239833 7.84172 10.215972.803147-.023868.205971-2.407857-.301445-5.041135-1.147629-5.956171-2.937538-9.02709-1.255539-9.077036 1.242569-.036953 5.318444 3.906349 5.545166 11.542753.105324 3.545607-.393783 8.185965-3.606331 8.28142-3.046005.090267-6.516654-9.527384-7.30474-9.504036-.424401.012716-.46019 5.958404-.573563 7.751453-.113609 1.792778-.737244 2.751568-1.737526 2.781395-1.515213.044869-2.180344-1.406509-2.265419-4.270157-.085098-2.863634.854492-12.597481 3.657677-12.680629zm-82.689187-15.710556c.028529.960227 1.21457 1.646488 2.786578 1.599792.859944-.025555 2.264658-.114914 2.245478-.765545-.019471-.650822-2.458702-.777687-2.468292-1.106769-.014798-.493523 3.003177-1.032948 8.032128-1.182244 12.767916-.37928 36.60541 10.696148 36.963412 22.751602.256546 8.629544-11.230686 10.463307-16.259338 10.612461-2.137021.063576-4.317393-.178215-6.4334-.626209-.037609-2.656097-.114381-5.839586-.150961-7.071775-.031349-1.054041-.02308-2.531014-.015411-3.901423.001663-.297085.003298-.589161.004496-.870834 4.66447.028795 12.235107.833355 12.289589 2.668184.020324.680521-.826554 1.03557-1.572278 1.34821-.586612.245933-1.110633.465623-1.100692.796861.011661.392742 1.499389 1.114926 2.76868 1.077305 1.269554-.037603 3.689343-1.437378 3.608162-4.170799-.104549-3.526301-5.811592-6.503426-15.333517-6.220646l-.512329.018669c-.004414-.587185-.0459-3.882217-.444122-5.689262-.438401-1.988774-1.599261-3.288933-2.159834-3.272225-1.394591.041397-1.841549 6.768421-1.937287 9.410252-6.786185 1.05323-12.588666 3.71517-12.493994 6.906309.063834 2.142729 4.602735 7.572176 12.136023 10.914949.231632 2.076321.845654 4.628392 2.421063 4.581711 2.423784-.072243 2.447336-.927711 2.49176-2.541355.002794-.10149.005671-.205975.009232-.313454 2.782171.730503 5.840869 1.135434 9.127349 1.037899 12.478692-.370971 18.870812-7.312259 18.650834-14.711427-.322957-10.874762-17.203328-23.136587-33.283654-25.520045-2.76222-.409351-6.033905-.645668-7.960273-.588451-5.198584.154461-8.317236 1.338932-8.957444 1.580959-.937007.354611-2.47297 2.545582-2.451958 3.2473zm9.431129 22.536037c-.049541-1.671898 6.055421-2.558188 10.829091-2.913691-.026459 2.838459-.094671 6.63209-.369394 10.211169-5.908071-2.18866-10.40782-5.548535-10.459697-7.297478zm51.210763-23.912872c2.804756-.08313 3.590744 1.099002 3.825012 1.683986 2.482819-.039177 3.51059 1.493939 3.557793 3.079712.102219 3.444718-5.110897 8.829037-10.856579 8.999733-.787563.02335-1.780594-.172508-2.776733-.557087-.583416.91856-.996907 1.485649-1.602364 1.503681-.715729.021279-1.6483-1.614322-1.666736-2.234054-.006726-.222447.015056-.612209.229057-1.194965-.821797-.832055-1.381096-1.847264-1.415341-3.006184-.106094-3.566887 4.595227-8.093212 10.705891-8.274822zm3.307228 4.219326c-3.780144.112342-7.4477 5.023372-8.155094 6.022079.7118.117256 1.601849.196659 2.657909.165257 4.817269-.143071 6.956887-3.594544 6.921845-4.775509-.022553-.758362-.31517-1.444763-1.42466-1.411827zm-11.324585 3.660144c.010655.358002.092865.587567.180054.732075.480392-.708851 1.134132-1.521599 1.9562-2.445209.873939-.982136 1.75724-1.749085 2.630439-2.348175-3.42786.248241-4.790279 3.272194-4.766693 4.061309zm55.29232 36.362889c-.110237-3.707508 1.4758-8.632939 3.832016-13.281315-.601051-.952034-.963462-2.11911-1.004951-3.509289-.212456-7.157411 5.950867-12.375305 6.587463-12.394256.454506-.013485.64618 2.068538-.447731 3.819702-1.55751 2.493313-3.383758 6.059831-3.073494 8.376098 3.472992-5.708204 7.798386-10.255794 10.806252-10.345165 2.056862-.061092 3.28389 2.214987 3.379074 5.424275.180557 6.077869-5.356812 11.786449-10.134621 11.928344-.566055.016873-1.177993-.054981-1.796158-.210643-1.559349 3.884658-2.926681 8.507369-3.720214 13.724128-.140099.921421-.179016 2.157501-.958527 2.180847-.779541.023091-3.3451-1.535194-3.469109-5.712726zm-1.824546-21.589373c-.095047.004049-.191834.008173-.28965.011074 0 0-1.905121.07783-3.940689.178612l.911056-2.42848c2.092659-.07703 4.273262-.304421 5.622185-.3445 2.636658-.078336 2.889572-.753048 2.881523-1.025833-.008026-.272755-.271851-.977709-.96862-1.973074-.696778-.995491-1.316246-1.416771-3.498169-1.351921-2.030655.060188-10.806244.775898-10.770722 1.972824.016091.54554.788887 1.763722 1.780342 2.23716.36422.173942.83712.294569 1.384201.374844l-1.348396 2.777118c-.191437.015829-.355919.031269-.486938.04604-1.448151.164316-1.264206 1.031681-1.07798 1.909799.023704.11176.047439.223692.067855.334372.079896.433996.182885.632431.318306.717779-.555145 1.504595-1.1352 3.442381-1.092132 4.886274.08094 2.727189 2.44677 4.249123 4.189484 4.19751 4.061065-.120624 7.952491-3.405807 8.675201-4.094551.722717-.688709-.216858-2.692913-1.474739-2.655563-1.257889.037346-4.319191.613487-5.447106.935173-1.127914.321655-2.001861.514404-1.724563-.358231.221268-.695755.713127-2.344309.903267-2.984007l5.752434-.170961c1.121444-.033209 1.180305-.596119 1.275505-1.994087.086334-1.270996-.691132-1.23787-1.641655-1.197371zm18.917869-2.000912c-1.04306.030865-4.009681 3.237444-6.886558 8.862772 7.16439-.735443 8.69545-8.916595 6.886558-8.862772z"/></svg>