<svg height="84" viewBox="0 0 128 84" width="128" xmlns="http://www.w3.org/2000/svg"><path d="m71.019753 81.946396v.000427c-.00029.972557-.996453 1.582512-2.306565 1.582512-1.378563 0-2.272857-.669868-2.272857-1.506142 0-.736847.736427-1.588913 2.367576-1.588913 1.250374 0 2.211548.609948 2.211846 1.512116zm7.031066.577278c.142937.26326.546135.768005 1.214295.768005.355835 0 .629768-.153602.629768-.450134 0-.266243-.26667-.418556-.684807-.544853l-.101547-.03328c-.55851-.171951-1.19339-.407897-1.19339-.894294 0-.514565.558937-.934838 1.631577-.934838.211204 0 .42881.018349.626785.055039.15786.027313.266235.045235.355835.06401.027306.177918.074242.400216.14933.708687l-.299949.033287c-.150177-.299522-.389542-.623794-.927994-.623794-.348587 0-.593071.176643-.593071.39595 0 .227844.265815.360535.70272.491524l.149331.045654c.629768.192001 1.166938.422829 1.166938.955734 0 .559784-.674133.968537-1.733123.968537-.247384-.000893-.494065-.026337-.736428-.075943-.205658-.046936-.348587-.082352-.430511-.110939-.054611-.208206-.144203-.453552-.226982-.759468zm10.206757-1.851738c.444153 0 1.010345.123314 1.214294.722778l.30037-.014084c-.055039-.436477-.0896-.672424-.109223-.827735-.241066-.040955-.777816-.119034-1.304321-.119034-1.454948 0-2.696541.537597-2.696541 1.579521 0 .930138.968529 1.515526 2.602669 1.515526.565765 0 1.118729-.104958 1.541122-.18219-.033706-.103256-.040954-.249596-.040954-.413864v-.327256c0-.318298.027305-.333229.375892-.372901v-.205231h-2.28096v.205231c.718499.035408.744103.068687.744103.372901v.436913c0 .21418-.108376.249168-.278183.249168-.943367 0-1.392227-.658775-1.392227-1.364479 0-.777397.599472-1.255264 1.323959-1.255264zm-41.950439 2.820702h-.586239l-2.525448-2.14827h-.013653v.837975c0 .477874.027309.727897.054611.869125.033711.159996.217606.21888.668167.231254v.1792h-1.699848v-.1792c.301228-.007682.477867-.071258.512856-.231254.027305-.141228.054611-.390831.054611-.869125v-.837975c0-.33622-.013226-.395523-.150189-.523521-.102397-.093865-.273918-.126297-.518825-.141655v-.176209h1.507843l2.272865 1.888428h.013653v-.608856c0-.477867-.027306-.728745-.053337-.868691-.034557-.161285-.21888-.219314-.669441-.234672v-.176209h1.740806v.176209c-.340908.010665-.518829.073387-.553814.234672-.0256.139946-.054618.390396-.054618.868691zm29.204574 0h-.587517l-2.525871-2.14827h-.013657v.837975c0 .477874.029015.727897.054619.869125.034981.159996.2193.21888.669861.231254v.1792h-1.701553v-.1792c.301658-.007682.479149-.071258.512855-.231254.027306-.141228.055046-.390831.055046-.869125v-.837975c0-.33622-.013229-.395523-.150611-.523521-.10241-.093865-.271798-.126297-.518837-.141655v-.176209h1.509552l2.273292 1.888428h.012795v-.608856c0-.477867-.026452-.728745-.054184-.868691-.03328-.161285-.21888-.219314-.66816-.234672v-.176209h1.73909v.176209c-.340477.010665-.518394.073387-.552528.234672-.027306.139946-.054192.390396-.054192.868691zm-35.587952-.210343.205655-.016212c.252586-.023041.266243-.068268.177921-.232537l-.246613-.464218h-1.11787l-.205658.436486c-.088318.196266-.088318.241493.225281.264534l.197548.012374v.1792h-1.589764v-.1792c.34816-.030723.450134-.048637.675415-.432212l1.36491-2.352227.471897-.064003.463784.861023c.279049.515404.560936 1.029259.845661 1.54155.219307.396797.342613.419838.675842.445442v.179627h-2.144436v-.1792zm8.965149-.548698c0 .489815.053337.523094.524804.549125v.1792h-2.21185v-.1792c.47147-.025596.526085-.05931.526085-.549125v-1.501869c0-.491517-.054615-.523095-.526085-.552536v-.176209h2.212277v.176209c-.471894.029441-.524803.061019-.524803.552536v1.501869zm6.47725-2.230614v.176209c-.517121.033706-.544857.052055-.5248.529495l.06826 1.52491c.020058.505173.033707.518402.524804.549125v.1792h-2.135903v-.1792c.511154-.030723.532486-.043952.524811-.549125l-.019634-1.604271h-.027306l-1.317554 2.280968h-.36821l-1.249287-2.11969h-.013653l-.048637 1.01078c-.019627.391251-.013653.608856.015362.750084.0256.167251.176212.209923.6208.231254v.1792h-1.68747v-.1792c.32853-.017066.458237-.064003.499199-.231254.03328-.141228.074238-.381874.109654-.795731l.074241-.920753c.046932-.573448-.005974-.622086-.546135-.655792v-.176209h1.603417l1.195953 1.803093 1.044052-1.803093zm2.574516 2.779312.203945-.016212c.252586-.023041.266239-.068268.177917-.232537l-.246604-.464218h-1.120007l-.203957.436486c-.089592.196266-.089592.241493.225285.264534l.197975.012374v.1792h-1.590195v-.1792c.346882-.030723.450142-.048637.675423-.432212l1.36491-2.352227.47189-.064003.463787.861023c.279182.515404.561214 1.029267.846084 1.54155.218884.396797.340908.419838.677128.445442v.179627h-2.144012v-.1792zm4.142944-.548698c0 .489815.054615.523094.628483.549125v.1792h-2.390194v-.1792c.54784-.025596.60117-.05931.60117-.549125v-1.993386h-.115624c-.45824 0-.642135.054604-.751785.135254-.080643.068688-.162987.187729-.252594.44117h-.285862c.027309-.381439.068268-.694618.081917-.927574h.211631c.102402.104958.170662.113922.354989.113922h2.724704c.176636 0 .209919-.025612.320851-.113922h.209919c.007682.192001.042667.578133.076374.915627l-.301232.011947c-.101967-.271789-.176204-.389122-.279888-.468056-.115631-.08107-.341331-.108368-.668163-.108368h-.164265v1.993386zm3.399269 0c0 .489815.054611.523094.526505.549125v.1792h-2.212273v-.1792c.471466-.025596.526505-.05931.526505-.549125v-1.501869c0-.491517-.055458-.523095-.526505-.552536v-.176209h2.212273v.176209c-.471894.029441-.526505.061019-.526505.552536zm17.373062 0c0 .489815.054619.523094.53846.549125v.1792h-2.128219v-.1792c.44416-.025596.497497-.05931.497497-.549125v-1.501869c0-.491517-.053337-.523095-.532486-.552536v-.176209h2.129929v.176209c-.450562.029441-.505181.061019-.505181.552536v.71083c.449837-.335899.886773-.68872 1.309884-1.057716.098129-.082344.170661-.171944-.013657-.1856l-.258568-.02005v-.176209h1.830841v.176209c-.389976.029441-.601181.052482-.955742.28331-.342811.215889-.675941.4468-.998405.692054.421219.426003.856666.837685 1.305603 1.234352.368645.325119.490249.372483.771416.393814v.1792h-1.571419c-.25898-.29184-.907517-.961281-1.404579-1.455368h-.014939v.727043zm-15.14714-.864006c0 .823478.464218 1.422088 1.134087 1.422088.587089 0 .908378-.377174.908378-1.200218 0-.914772-.49366-1.419952-1.079468-1.419952-.526085 0-.962997.401069-.962997 1.197662zm-67.708809.708702h37.311272v-.728752h-37.311272zm127.87114-.005974h-37.313393v-.730881h37.313393zm-88.812665-.275627h.873391l-.42923-.868698h-.021332zm18.014782 0h.873387l-.428795-.868698h-.021339zm34.552857-1.716065h.200539v.669449h-.130562v-.50859c0-.022614.001709-.04139.001709-.053338l-.127999.561501h-.133979l-.127572-.561501v.053338c.001275.024742.001275.042671.001275.05632v.45227h-.129273v-.669868h.20224l.121597.528213zm-.526497 0v.118615h-.200974v.550407h-.141647v-.550407h-.200538v-.118615zm5.036377-6.614204c0-2.509232-2.862083-4.205666-6.576225-4.205666-2.920975 0-4.876397.857598-5.972077 1.988274.67115-1.298782 1.116593-2.124809 1.177605-2.225502.945068-1.529175 1.196373-1.67382 2.752434-1.813339v-.586243h-6.644074v.585816l1.056.069976c1.197655.070404 1.278297.352852.917335 1.345284-.389541 1.025711-1.418243 3.478195-2.389335 5.51255l-.055473-.094726-4.225716-7.406952h-1.946037l-3.641182 7.406952-.056321.094299-2.639793-5.842369c-.332802-.713814-.249176-.928429.778671-1.015038l.889176-.069976v-.585816h-8.672894v.585816c1.277882.10411 1.778359.267944 2.528866 1.71051l.340916.661339h-4.141671l-3.09761 5.083747-3.543907-5.083328h-4.759056v.406197c1.598728.091301 1.762138.324264 1.620487 1.942619l-.222294 2.594994c-.102402 1.16822-.223999 1.848327-.32555 2.245552-.033276.136535-.056316.301224-.176636.328537-.138244.021332-.445873-.459099-.708698-.930992-.813679-1.446373-1.618103-2.897927-2.413235-4.354569l-1.323951-2.425613-1.343579.179207-3.892063 6.638946c-.042221.071907-.085747.143028-.130566.213341-.148052.194557-.299945.443733-.45227.547836-.435196.308487-1.559467.386139-2.350933.386139-.613125 0-1.067951-.013656-1.384113-.115204-.354561-.11605-.395523-.531624-.395523-1.197654v-2.094086h.98859c1.699844 0 1.759151.077652 1.956699 1.206612h.870403v-3.029343h-.870403c-.197548.975365-.256855 1.052597-1.956699 1.052597h-.98859v-2.478088c0-.450562.040962-.541871.791046-.541871h.336212c1.048324 0 1.701126.074669 2.01643.293549.316162.206932.533336.658768.731312 1.288528l.869121-.039245c-.097279-.962998-.197544-1.900383-.215893-2.117989h-9.369631v.406197c1.323527.077652 1.481818.260269 1.481818 1.648216v4.235962c0 1.221977-.124588 1.437874-1.192963 1.524483-.194958-.093003-.378742-.207794-.54784-.342186-.313175-.256005-.744112-.692482-1.408861-1.373871-.565762-.590935-1.290241-1.476273-1.564165-1.83638 1.44683-.37291 2.52289-1.039368 2.52289-2.170036 0-.75776-.587521-1.334191-1.369604-1.655472-.762032-.322563-1.778355-.436478-3.304547-.436478h-5.98402c-.430508-.563209-1.005655-1.04406-1.631151-1.412269-1.879046-1.118302-4.737722-1.529183-8.184347-1.529183h-8.186054v.669441c1.822726.103684 2.046727.22358 2.046727 2.08001v5.669136c0 1.856438-.224001 2.071045-2.270301 2.173019v.57856h7.232024c6.47426 0 11.772199-1.839355 11.772199-6.120125 0-.594772-.180909-1.157547-.480856-1.667419.926723.102402 1.050031.389549 1.050031 1.612808v4.235962c0 1.387947-.155307 1.571838-1.544538 1.647797v.40789h6.179008v-.40789c-1.348272-.075959-1.506139-.26027-1.506139-1.647797v-1.539848h.255575c.3712 0 .64512.19371.821762.4608.488108.720222 1.03595 1.515526 1.623472 2.069771.7808.743675 1.427202 1.128959 4.203962 1.166938.403201-.012374.657067-.059303.795733-.101974h11.352362v-.40789l-.56448-.037979c-.894726-.063996-.914356-.285866-.642143-.838402l.584537-1.230942h3.191479l.700592 1.308594c.252155.462509.214184.68309-.505608.746666l-.584106.052063v.40789h8.595653v-.40789c-1.317978-.064011-1.762138-.272217-1.844482-.748383-.080219-.397652-.102402-1.015045-.040962-2.116699l.142933-2.850998h.040962l3.705188 5.982315h1.092267l3.908706-6.432877h.081066l.060589 4.518418c.021332 1.427635-.03968 1.558616-1.558193 1.648224v.40789h6.338577v-.40789c-1.459202-.089608-1.499737-.220589-1.559471-1.647797l-.203514-4.301247c-.051632-1.164375.002979-1.43061 1.011627-1.538566l4.126732 8.017097h2.140595l3.724815-7.060074h.055466l4.086624 7.060074h2.141022c.735595-1.586799 1.4943-3.162796 2.275848-4.727478-.014862.119744-.022423.240288-.022614.360955 0 2.330467 2.658142 4.194152 6.758423 4.194152 3.896332 0 6.86039-1.698143 6.86039-4.410896zm28.428467-.951042-.440735-.126297c-1.305603-.354134-2.06807-.734718-2.06807-1.367897 0-.608856.721062-1.103363 1.746781-1.103363 1.585083 0 2.289932.899414 2.731109 1.736542l.882355-.088753c-.220588-.861435-.360542-1.481812-.441177-1.976746-.261994-.051201-.582833-.101555-1.045342-.177498-.609977-.101608-1.227394-.151985-1.845771-.150612-3.154358 0-4.800011 1.163949-4.800011 2.597123 0 1.354248 1.846611 2.026672 3.514458 2.495582l.301223.089607c1.244591.328537 2.006638.773545 2.006638 1.519791 0 .823471-.80172 1.253983-1.84536 1.253983-1.968628 0-3.15435-1.405884-3.575478-2.140602l-.884048.164268c.215477.757332.447578 1.384537.607147 1.924271-.663902-.078934-1.196365-.2752-2.133339-1.075203-1.244583-1.063683-2.550186-2.231041-3.776016-3.43425.830307-.620804 1.819321-1.267204 2.885986-1.924706 1.028283-.64682 1.641396-.804695 2.769074-.881065v-.399788h-5.29921v.399788l.750931.053329c.53463.036271.317017.381875.038414.611847-1.145615.96299-2.352219 1.900376-3.796501 2.939743v-1.976753c0-1.369606.160423-1.551796 1.46389-1.628166v-.399788h-6.168335v.399788c1.384537.076805 1.54155.258995 1.54155 1.628166v4.181351c0 .806404-.057602 1.259949-.365227 1.435737-.459526.213334-.788055.076798-1.128967-.175788-.317864-.254296-.756058-.779526-1.434456-1.450241-.576851-.582833-1.312859-1.456223-1.591469-1.812066 1.471146-.366935 2.568108-1.025703 2.568108-2.140594 0-.748802-.596474-1.318398-1.393921-1.63414-.775681-.318718-1.812058-.432213-3.363854-.432213h-6.32962l.116913.399788c1.333336.076805 1.377281.258995 1.377281 1.628166v4.181351c0 1.367897-.159996 1.550087-1.57312 1.626457v.401924h6.408546v-.401924c-1.373871-.07637-1.533439-.25856-1.533439-1.626884v-1.519791h.258133c.377601 0 .657074.190292.835418.456528.499199.708702 1.056427 1.494194 1.653763 2.03862.794029.736435 1.440857 1.207901 4.211639 1.153717.209923 0 1.000107-.05632 1.181015-.100266h4.829033v-.401924c-1.402458-.07637-1.600433-.25856-1.562454-1.626884v-2.026673h.040947c1.442139 1.381974 3.50721 3.244385 4.259018 4.055481h4.549126v-.263679c.341896.087623.685898.166862 1.031692.237648.714264.140671 1.440323.212967 2.16832.215896 3.113396 0 5.102951-1.140915 5.102951-2.700813.000427-1.481811-1.586357-2.140594-3.435539-2.661125zm-34.904434 4.701462c-1.988274 0-3.368119-1.670838-3.368119-3.965027 0-2.21698 1.29921-3.333992 2.861672-3.333992 1.745063 0 3.207679 1.408005 3.207679 3.95478 0 2.294632-.954452 3.344239-2.700798 3.344239zm-80.379996-.224861c-1.345284 0-1.961394-.385285-1.961394-1.91446v-6.598854c0-.429222.027307-.824318.167681-.858452.196268-.068267.561495-.121597 1.206191-.121597 2.381235 0 5.437031 1.031677 5.437031 4.725777 0 3.042137-2.439688 4.767166-4.849509 4.767166zm32.465174-2.352646 1.206619-2.452484h.059731l1.22454 2.452484zm-17.018511-1.128968c-.371199.179627-.841389.217606-1.468164.217606h-.27392v-2.951691c0-.514137.059305-.646827.881069-.646827.762029 0 1.954992.503463 1.954992 1.737388 0 .628479-.29184 1.233071-1.093977 1.643524zm76.485373-.18219c-.377602.177498-.855042.214615-1.492485.214615h-.278183v-2.915413c0-.50518.058883-.637451.893875-.637451.777809 0 1.991676.499207 1.991676 1.716065 0 .620796-.298233 1.216003-1.114883 1.622184zm-44.168251-16.697654c.343044-.375893.712532-.920746.712532-.920746l.26913.021248c-.345253-.134583-1.521705-.598275-2.901237-1.198853-1.670414-.727043-5.597889-2.87574-7.88739-4.96471 1.833179 1.088825 5.056381 2.273449 8.184162 2.629951-.113243-.019031-.21442-.042755-.30275-.071224 0 0-.829014-.631466-.13995-1.013336.114022-.064575.131169-.047607.182518.003208.051449.050919.137234.135815.389222.206711.331951.089603.584533-.00597.986454-.228264.441177-.246616 1.335899-.453117 1.958404-.893444.617398-.444164 1.090569-.54443 1.749771-1.782619.136532-.258988.21418-.615254.269226-1.053013.006562-.058274-.01223-.063904-.16933-.11097-.098259-.029438-.25063-.075084-.484749-.159965-.088196-.032112-.171593-.045327-.246929-.057267-.22097-.035018-.372597-.059051-.372597-.516605 0-.613544.246613-1.591469.311894-1.830406.069976-.23552.289283-.268799.908805-.23552.266236-.570453.492802-1.580806.658768-2.136329 0 0-.173649.032001-.556793.032001-.262276 0-.420124.121235-.685478.264199.068882.184993.131302.372383.187126.561832.171951.581123-.642136.437336-.666455.31403-.01424-.073937-.116649-.353024-.212814-.600571-.523952.142399-.81398.057846-.927669-.307804-.168957-.546139-.168957-.802139-.341339-1.181019-.054318-.119991-.166718-.1828-.269181-.240059-.132541-.074062-.248462-.138839-.200577-.30608.085331-.298664.214188-.424533.384858-.509864.089264-.087304.230823-.130829.399635-.182686-.291542-.700341-.702484-1.445477-1.214138-2.223072-.545994.011997-.620575-.140107-.810448-.527344-.078979-.161076-.177906-.362831-.339004-.610382-.382298-.588799-.298672-.628479-.76886-.841812-.444836-.202572-.351216-.584469-.169518-.756729-6.742572-7.875893-20.567314-17.404183-25.7975-18.252739v49.445411h-.489388v-49.500702c-.078884-.004486-.15514-.00637-.228693-.0056v-.619461c7.340315.887177 20.968245 11.258664 27.375025 18.686032.139603-.052224.283447-.104088.42112-.134137-.120316-.602458.050346-.949337.59819-.88747-.129707.37888.425816 1.182301 1.067947 1.390938.640854.211628.893448 1.265926.893448 1.476269.568028.561962 3.09359.554279 3.865929.551929.042736-.000129.080101-.000244.111465-.000244.305497-.477867.413872-.605442 1.580803-.605442.739426 0 1.347847.179623 1.900383.824749.241242.076923.278488.015827.338036-.081863.068931-.113095.167747-.275223.647575-.329018.891731-.096001 1.329918-.477871 1.710503-.584534.378456-.107525.372482-.335788.6511-.567043.159996-.135254.29483-.453121.520531-.564484.227417-.110931.200538-.844799.28289-.981334l-.000854.016636c.121597-.307198-.78209.114353-.94806.197979-.535469.270935-.891738-.173653-.804275-.415577.104965-.293545.033279-.489815-.184311-.457817-.179634.026882-.217606-.211625-.11734-.349865-.18261 0-.265816-.1344-.302933-.231682.260269-.100266.02134-.377175-.086197-.418133-.108368-.040958-.341324-.082348-.363937-.273918-.019203-.189869.173653-.432217.363937-.560219.194573-.124161.272225-.34816.055474-.738991-.179192-.325973-.274773-.91307-.104531-1.127685-.38443.044376-.576851.505176-.576851.505176-.255577-.4608-.107528-.928428-.020912-1.157978-.129707.126293-.342613.505177-.342613.505177.27861-2.444809 3.152649-3.468811 3.9245-3.636063 1.420799-.313175 3.648002-.378879 3.306243.734722 0 0 .450142-.881073-.384849-1.113601.470184-.023045.852051.50645.660477.843944.237655-.150188.66304-.252586.812377-.044369-.235946.02005-.701873.274346-.725761.464215.427521-.084908.865715.164695 1.195519 1.602134.149337.654511.406623 2.763531-.51413 3.460278 0 0 .044372-.126289.066559-.295254 0 0-.128853.506459-.834992.506459 0 0-.055038.220584-.012794.346878 0 0 .847786-.325547 1.187408-.200535 0 0-.383995.760326-.552101 1.05558.552101 0 2.227203 1.082027 2.33857 3.586571.228615.373069.48822 2.337974.335174 3.539016 1.379685-1.867427 3.163224-5.11684 4.110276-10.216373 1.016746-5.482681.585815-10.787872-1.844056-16.060211-3.574195-7.760239-12.19033-13.211777-20.435699-14.097115 13.754929-3.123634 26.147934 4.941666 30.873703 15.061386 4.598206 9.856884 4.206947 20.171585-2.910301 29.80447-1.456032 1.964989-9.726906 11.391167-24.401982 11.124047-.228042.230793-.401516.454013-.401516.454013s-.093013.132275.250882.450142c.289283.261971-.203526.855469-.663472 1.402878-.160564.191231-.282871.369003-.385669.518425-.260514.378655-.395748.575215-.710865.34729-.461224-.328537-.733437-.189869-.733437-.189869s-1.021023 1.016323-1.415264 1.941342l-.025127.059574c-.379101.898502-.620137 1.469776-.295727 2.236751.226986.520104.161281 1.580803-.467205 1.637123-.753063.065278-1.420803.039261-2.073605.375474-.652801.333648-1.548805.869117-1.955418 1.07904-.407897.200539-1.133655.371201-1.614513.168533-.480854-.20565-.639145-.476165-.900696-.511146-.78379-.101975-1.007362-.699738-.585811-1.280861.033825-.045914.082523-.008652.162697.052689.143325.109657.387184.296234.826316.222084.37632-.061005 1.012059-.463784 1.562458-1.006936.544854-.551254 1.410565-1.294929 1.784752-1.670829.372914-.375897.818779-1.164376 1.200642-1.905075.380596-.742398.961716-1.997658 1.101658-2.816857-.514134-.338775-.721062-.507736-.961285-.644272-.23893-.138668-.133972-.334938.204804-.712539zm5.7933-6.796822c.547421-.136959.977066-.575146 1.392216-.745815.413872-.170666 1.547096-.45184 2.316811-.834988 0 0 .008102-.144638-.267945-.555519-.203529-.302936-.64769-1.795422-1.083313-3.394573 0 0-.157867-1.126404-.328537-1.053017-.115204.046932-.153602 1.37814-.207786 1.952007-.067841.706135-.037125.467198-.037125.467198s.444588.068268.377602.305923c-.085327.296536-.386559 1.96566-.49749 2.242997-.064903.167434-.104378.156692-.291672.105724-.058975-.016049-.132606-.036087-.226303-.055805-.48214-.10027-1.137497-.246189-1.137497-.246189s-.200962.978351-.008961 1.812057zm7.686421-7.412929c.047363-1.013337-.304207-1.804802-.304207-1.804802l-1.620056.460796c.485115.656219 1.055992 1.996807 1.661438 2.564278v-.000428c.223579-.361812.155311-.495788.262825-1.219844zm-12.384522-4.362503c.388729.618686.687241 1.190467.88253 1.703361l.004143-.003693c.470184-.423256.74411.024319.897709.337922.129284.266239.174934.299522.468483.670722.137379.177811.599018.08516.938458.017033.029537-.005928.058147-.011669.08554-.017033l.298676-1.220272c-.211632-.040962-1.109341-.211628-2.092381-.716804-.226066-.116577-.43864-.231041-.636635-.337658-.322376-.173592-.606105-.326374-.846523-.433578z"/></svg>