<svg height="45" viewBox="0 0 128 45" width="128" xmlns="http://www.w3.org/2000/svg"><path d="m8.079905 8.205753v-7.806095h6.578367v1.95908h-3.024727v1.417103h2.242888v1.95908h-2.242888v2.470832zm7.036683 0v-7.806095h3.553639v7.806095zm12.233183.061497h-2.748735l-1.677841-2.460575v2.399078h-3.568121v-7.806095h2.586145l1.821087 2.639698v-2.639698h3.587597v7.867592zm.693177-7.867592h4.057699c1.384556 0 2.453659.382847 3.207306 1.148415.753654.765568 1.130607 1.688858 1.130607 2.770004 0 .68882-.171432 1.339459-.514179 1.951397-.342743.612202-.844749 1.08794-1.506531 1.427353-.661529.339279-1.461307.508926-2.399078.508926h-3.975824zm3.539291 2.987438v1.831341h.086872c.416033 0 .717135-.072647.902922-.21756.185783-.14479.278805-.382721.278805-.71355 0-.600281-.349663-.900231-1.048729-.900231zm5.35615 4.818657v-7.806095h3.53212v7.806095zm12.197563.061497h-2.719906l-1.677841-2.460575v2.399078h-3.582466v-7.806095h2.600105l1.821217 2.639698v-2.639698h3.558769v7.867592zm8.779362-6.961212-1.703598 2.376778c-.695732-.334156-1.40326-.515587-1.993286-.515587-.392209 0-.706765.101349-.943802.304306-.23703.202953-.355549.471512-.355549.805671 0 .634236.416031.951485 1.248226.951485v-1.222603h3.587593v4.210041c-1.39814.078415-2.474159.117623-2.968735.117623-1.909629 0-3.351581-.405781-4.094986-1.217476-.7434-.811695-1.115226-1.75792-1.115226-2.83907 0-.743274.173229-1.4253.519302-2.046211.346077-.620525.84565-1.101391 1.498848-1.442467.653068-.340824 1.541508-.511489 2.435078-.511489.627315 0 1.277183.091224 1.948837.273681.672031.182198 1.384941.424488 1.937298.755318zm-57.915186 28.36058c9.559019 7.805836 27.303777 15.139134 47.352026 15.139134 23.224682 0 34.050373-8.600617 58.222187-8.600617 9.322105 0 16.369812 1.467198 22.425659 4.886177-6.646141-5.077728-18.940964-7.937427-32.290138-7.937427-12.842308 0-32.27747 5.655331-50.35318 5.655331-18.625366 0-33.683826-4.117981-45.356554-9.142598zm57.809866 6.809636v-7.20876l-.000126-.000129h-11.324375v-3.107237h8.291832v-6.455878h-8.312718v-3.103784h11.341801v-6.495856h-21.201668v26.636486c7.892197.756341 14.402916.355301 21.205254-.264842zm-33.976448-1.293068s5.101507.910888 10.469761 1.411888v-26.36105h-9.204493v8.679928l-7.853247-8.679928h-9.488418v20.770252s5.262745 1.81596 9.490215 2.751301v-5.592804zm10.469761 1.411888.000892.000084h-.000892zm25.58736-26.360157v25.93396h.00013l10.46809-1.670029v-7.102028l4.850937 6.36824 5.051597-.714698 4.34214-5.653542v5.085545s5.413811-.808491 10.457711-1.059492v-21.187956h-10.467965l-7.153404 10.11984-7.094986-10.11984zm37.027317 12.41513c0-7.798919 8.012894-12.862938 15.317749-12.862938 8.317841 0 15.438828 5.527335 15.439095 13.23746 0 2.536172-.787743 8.905691-8.314782 11.943616-8.697731-3.057272-19.074981-3.408601-19.074981-3.408601-2.52298-2.600878-3.367081-5.409838-3.367081-8.909537zm12.588737-1.097545-3.050743-2.503758c1.232094 2.309515 1.090767 4.259756.026917 6.301611l3.037277-2.503759c.76532 1.322798 2.138847 2.552702 3.851158 2.552702 1.763947 0 3.335945-1.65939 3.811051-3.188473-.718293-2.030066-2.138718-3.099684-3.939949-3.099684-1.591225 0-2.826889 1.061289-3.735711 2.441361zm-109.50645 8.114231-.000271-.000115z"/></svg>