<svg height="56" viewBox="0 0 129 56" width="129" xmlns="http://www.w3.org/2000/svg"><path d="m.924194.065918v54.973911h15.505711l-.038347-17.773327h15.221525v-14.996639h-15.095595v-7.172985h18.528952l-1.016312-15.03096zm111.449654 26.369329 16.550346 28.523077h-17.125511l-8.039085-13.863178-7.946793 13.894192-16.65876-.031014 16.247254-28.337888-15.340767-26.473078h17.152397l6.75412 11.841465 6.877403-11.841465h16.569809zm-77.749043 1.189339c0-14.762918 11.728363-26.729685 26.195637-26.729685 14.467278 0 26.194267 11.966767 26.194267 26.729685 0 14.762251-11.727661 26.729685-26.194267 26.729685-14.46796 0-26.195637-11.967434-26.195637-26.729685zm21.822884 10.907381c0 2.50594 1.990036 4.537094 4.445446 4.537094 2.455475 0 4.667084-1.967148 4.667084-4.47311l-.066673-21.960934c0-2.505256-2.144249-4.747173-4.599724-4.747173-2.45541 0-4.440758 2.241917-4.440758 4.747173z"/></svg>