<svg height="16" viewBox="0 0 129 16" width="129" xmlns="http://www.w3.org/2000/svg"><path d="m.5 15.155828h11.622087v-1.963191l-1.963192-.235582c-.471165-.078528-.94233-.31411-.94233-1.334969v-2.355829h8.952148v2.198774c0 .62822-.078528 1.256442-.863806 1.334968l-2.041718.235584v2.120245h11.622088v-1.963191l-2.04172-.235582c-.392637-.078528-.863804-.392638-.863804-1.177914v-7.617178c0-.785276.314112-1.256441.863804-1.334968l2.04172-.235585v-1.963189h-11.622088v1.963189l2.041718.235585c.628223.078527.863806.62822.863806 1.334968v2.277301h-8.952148v-2.277301c0-.863802.31411-1.256441.94233-1.334968l1.963192-.235585v-1.963189h-11.622087v1.963189l1.96319.235585c.785276 0 .942331.62822.942331 1.413496v7.381595c0 .785276-.235582 1.334969-.942331 1.413497l-1.96319.235582zm26.934969-7.381595c0-4.554601 3.690798-7.774233 11.857672-7.774233 8.166866 0 11.857666 3.219632 11.857666 7.774233 0 4.554602-3.6908 7.85276-11.857666 7.85276-8.166874 0-11.857672-3.141104-11.857672-7.85276m11.857672-4.947238c-3.298161 0-5.182827 1.256441-5.182827 4.947238 0 3.690798 1.884666 5.025766 5.182827 5.025766 3.298156 0 5.182819-1.25644 5.182819-5.025766 0-3.769324-1.884663-4.947238-5.182819-4.947238m12.485889 12.328833h9.266255v-1.963191l-2.041718-.235582c-.549686-.078528-.942329-.549693-.942329-1.177914v-7.381594l7.695701 10.13006c.235588.314111.706749.549694 1.177918.549694h7.30307v-10.915338c0-.549693.157051-1.256441.8638-1.334968l2.120239-.235585v-1.963189h-9.266251v1.963189l2.041718.235585c.706749 0 .863808.706748.863808 1.334968v7.146013l-7.695706-10.051534c-.314113-.392638-.628223-.628221-1.177917-.628221h-10.208588v1.963189l1.963188.235585c.706745 0 .94233.471166.94233 1.413496v7.381595c0 .863803-.235585 1.256441-.94233 1.413497l-1.884662.235582v1.884663m49.236808-1.963191v1.963191h9.187737v-1.963191l-1.570557-.157054c-.628219-.078528-1.020858-.471166-.628219-1.177914l.706749-1.099385h8.873611l.62822.942329c.628235.863804 0 1.256442-.785271 1.33497l-1.570549.157054v1.963191h12.564415v-2.041717l-2.041718-.235584c-.628212-.078528-1.020851-.706747-1.570556-1.492024l-6.517784-9.973007c-.235588-.31411-.62822-.785275-1.256447-.785275h-11.150917v1.963189l2.591415.314112c.471153.078527.8638.628221.471153 1.256441l-4.947235 7.931288c-.078529.157056-.314109.785276-1.020851.863804zm-22.69448-12.564416h14.370559c6.596314 0 9.501847 3.219632 9.42331 6.91043 0 4.24049-2.826996 7.460123-9.42331 7.460123h-14.370559v-1.884663l1.963188-.235584c.549698-.078528.785278-.549692.785278-1.099386v-7.774232c0-.706748-.314102-1.256443-.942329-1.256443l-1.806137-.157056zm8.480987 11.700614h3.690788c3.533745 0 5.025772-.785276 5.025772-4.476075 0-3.690797-1.492027-4.476073-5.025772-4.476073h-3.690788zm29.212265-4.240492h-5.653984l2.748467-4.476073z"/></svg>