<svg height="674" viewBox="0 0 1652 674" width="1652" xmlns="http://www.w3.org/2000/svg"><g fill="#e1eae2"><path d="m1652 444.720001c-2.75-.579986-1.910034 1.410004-2.459961 2.98999-8.01001 23.220002-68.550049 70.790009-90.22998 85.820038-5.100098 3.539917-10.900025 5.829956-16.230103 9.77002-47.829956 35.389892-57.519897 136.389892-131.619995 130.449951-17.359985-1.390015-39.26001-21.120056-41.349976-38.650024-6.949951-58.069947 47.630005-87.400025 91.609986-108.160035 6.840088-3.22998 25.090088-6.389892 20.520019-16.97995-4.540039-10.5-23.369995 1.910035-29.939941 4.550019-17.150025 6.880005-42.040039 5.890014-58.170044-3.440003-12.449951-7.200012-19.51001-19.830017-25.699951-32.330017-1.800049-.389984-26.290039 17.820008-30.540039 20.360016-32.26001 19.279999-82.800049 34.589935-106.320069-5.470001-16.21997-27.630005-5.269897-56.019989 2.360108-83.480011 3.380005-12.169983 12.159912-38.029999 8.609985-49.5-2.940063-9.519989-21.200073-9.690003-28.800049-6.690003-9.410034 3.720002-16.099975 26.690003-19.059936 35.940003-10.580078 33.040008-17.369995 68.160004-27.970093 101.029999-3.079956 9.550018-6.659912 22.029968-15.380005 27.620056-12.049927 7.72998-23.959961 2.699951-31.809936-7.890045-2-2.700013-1.27002-7.110016-6.050049-7.059998-14.01001 7.130005-29.03003 14.889984-45 16.089935-6.640015.5-16.209961.420044-22.859986-.119995-11.839965-.959961-26.47998-7.72995-37.130005-7.949951-9.029968-.190002-27.109985 6.229981-38.010009 7.060059-7.229981.549926-25.139954 1.009887-31.759949-.210083-11.170044-2.059937-33.540039-18.139984-41.240051-26.75998-3.009949-3.369995-7.619995-13.769989-12.469971-11.509979-25.929993 25.629975-59.130005 43.210022-96.51001 39.489929-12.070007-1.199951-28.279968-8.059936-39.01001-7.989929-9.380004.069977-25.829956 6.179993-37.010009 6.980042-23.029969 1.649902-35.759949.669922-55.179993-11.790039-79.799988-51.190003-34.880005-188.340027 18.670044-244.720002 41.009949-43.180023 110.529968-66.710022 154.029968-12.980011 37.799988 46.700013 26.309998 119.739991 1.729981 169.739991-7.849976 15.960022-19.419983 29.720001-27.539978 45.510009-2.02002 10.019989 11.020019 6.440003 16.530029 4.480011 19.880005-7.050018 35.329956-30.529998 51.75-43.25l1.630005-43.370025c10.429993-50.119995 36.23999-103.720001 76.97998-136.019989 58.029969-46.01001 132.379944-36.640015 155.409973 39.420013 15.930054 52.609986-2.630004 112.329987-30.669921 157.329987-3.970093 6.369995-24.77002 28.350006-6.360108 27.670013 19.51001-.720001 39.27002-24.75 52.52002-37.51001 3.72998-3.589996 12.580078-9.160003 14.440063-13.559997 25.609986-89.51001 48.369995-179.550018 75.319946-268.679993 1.77002-5.840027 2.849976-14.320007 4.920044-20.080017 5.549927-15.400024 13.199952-20.190002 29.859986-18.200012 9.23999 1.109985 18.140014 14.700012 18.540039 23.520019l-36.830078 134.26001c-1.53003 9.5 5.140014 15.709992 14.22998 16.279999 25.300049 1.589996 62.390015-21.850006 78.51001-40.560028 6.050049-7.019989 15.410034-24.470001 23.97998-27.019989 10.550049-3.130005 24.51001 2.220001 28.100098 12.98999 3.069946 9.240021-2.97998 19.470001-7.810059 27.290009-8.839965 14.309997-22.130004 27.369995-35.349975 37.649994-7.660034 5.960022-35.560059 21.950012-37.680054 29.320007-2.789917 9.690002 2.98999 17.210022 3.77002 25.800018 3.420044 37.690003-17.409912 65.549988-19.969971 99-.469971 6.169983-2.069946 17.559998 5.439941 18.539978 29.560059 3.860016 63.130005-29.470001 85.050049-46.059997 1.380005-5.339997-.130005-11.039978.589966-16.410004 4.23999-31.629974 21.180054-74.269989 32.619995-104.379974 7.950073-20.940003 17.119995-47.680024 27.880005-67.120026 6.980103-12.600006 17.390015-21.899994 32.290039-13.470001 22.26001 12.600006.579956 48.140014-5.579956 65.180023-15.170044 41.97998-35.530029 98.190002-41.25 141.75-1.590088 12.079987-2.380005 30.470001 5.429932 40.470001 9.119995 11.679993 29.300049-.820007 37.98999-8.050018 65.100098-54.139984 77.220093-113.970001 105.030029-188.970001 4.570069-12.339997 9.849976-32.869995 16.300049-43.700013 9.079956-15.269989 37.75-11.069976 39.219971 7.210022 1.069946 13.359986-8.02002 33.309998-12.070069 45.940003-15.269897 47.540008-30.579956 95.549988-45.509887 143.48999l-11.240113 44.330017c5.360108 14.039978 19.53003 1.419983 26.810059-4.75 11.439941-9.690002 21.829956-22.120025 32.969971-32.029999 3.390014-3.010009 12.099975-10.820007 15.820068-12.180023 7.579956-2.789978 19.579956-.959991 24.209961 6.190003 1.589966 2.460022.920044 6.720001 3.98999 6.510009v11zm-890.23999-180.75c-45.880005 5.51001-84 65.380005-94.5 106.519989-7.299988 28.600006-10.77002 89.870026 24.929992 101.540009 7.109986 2.330017 21.289978 1.73999 23.559998-7.049988 2.090027-8.119995-6.98999-32.950012-7.789978-43.720001-3.179993-43.25 9.509949-105.070008 44.029968-134.050019 8.040039-6.75 17.910034-9.679992 24.929993-17.130004-2.019959-5.399994-10.179993-6.709992-15.159973-6.109986zm256.98999-.019989c-23.73999 3.279999-47.369995 24.109986-61.719971 42.299988-20.810058 26.369995-32.930053 58.890015-36.780029 92.230011-.369995 3.199982-1.119995 7.970001-1.320007 10.75-.969971 13.209991 6.869995 41.119995 15.559997 51.5 9.729981 11.619995 32.28003 20.789978 39.48999 2.389984-.949951-13.970001-6.919982-28.139984-7.95996-41.919983-3.390015-44.830017 10.22998-110.430023 49.070007-137.900024 3-2.119995 18.809997-10.319977 19.429993-11.579987 3.329956-6.720001-11.29004-8.399994-15.77002-7.779999zm-223.969971 49c-20.980041 5.009979-34.25 42.669983-37.510009 61.539978-1.860047 10.820008-2.989991 24.860016-2.320008 35.77002 1.869995 30.279999 10.679993 27.910003 24.859986 5.769989 14.539978-22.700012 30.619995-65.880005 26.130004-92.76001-.72998-4.379974-6.200012-11.509979-11.169982-10.319977zm258.969971-.059997c-7.400024.949981-16.140015 9.659973-20.579956 15.48999-15.360046 20.199982-27.800049 78.419983-16.380066 101.040008 5.740051 11.359986 17.309998-7.660003 20.630066-12.790008 14.789917-22.860016 29.519897-63.019989 26.579956-90.429993-.530029-4.940002-4.26001-14.080017-10.26001-13.309997zm392.98999 275.030029c-5.76001 1.159912-19.890014 14.709961-23.150024 19.880005-2.309937 3.649902-10.51001 21.669922-.299927 18.769897 2.189941-.619995 20.199951-21.179931 22.529907-24.539917 2.670044-3.840088 11.540039-16.23999.920044-14.109985z"/><path d="m0 451.720001c5.25-.579986 2.86-5.850006 3.13-8.369995 8.11-77.290008 72.249997-175.059997 154.509999-185.48999 82.550003-10.470032 100.539994 68.779999 79.690003 132.689972-10.779999 33.060028-49.279999 98.060028-76.410004 119.590027-11.740005 9.309936-31.559997 15.22998-42.439995 1.610016-15.690002-19.650025 11.480004-38.550019 23.040001-52.010041 26.669998-31.079986 63.64-92.149994 54.39-134.419983-7.630005-34.850006-50.650009-17.040008-69.810006-4.010009-62.619998 42.580017-96.719999 134.390014-60.269996 204.090026 28.150001 53.829956 83.740005 51.27002 130.099991 21.729981 48.240005-30.729981 83.790008-90.170014 105.580017-141.420014 6.519989-15.339996 20.459991-48.259979 22.419983-63.579986 3.149994-24.589996-14.649994-16.769989-29.139984-22.690003-14.809998-6.049987-19.080018-29.070007-7.27002-39.720001 9.610016-8.660003 30.660004-4.359985 42.75-6.25 15.830017-2.470001 21.779999-15.200012 27.230011-28.770019 14.339996-35.739991 24.549988-74.169983 39-109.99997 7.51001-18.630005 17.589996-36.619995 25.01001-54.98999 2.309997-5.730042 7.779999-15.220032.25-18.230042-51.350006.350037-104.980011-3.059997-156.290009-.809997-38.61 1.700012-81.169998 17.220032-98.220001 54.780029-5.899994 13-6.800003 40.029968-.089996 52.609986 13.129989 24.609985 46.369995 38.079986 73.330001 35.630004 12.87999-1.170013 22.740006-11.640014 37.199997-6.170013 17.940003 6.790009 14.929993 28.619995 1.25 38.619995-7.320007 5.350006-24.510009 10.5-33.540008 11.460022-97.329987 10.309998-168.709992-82.050018-112.809998-168.810028 29.830002-46.269958 80.480011-65.070007 133.860016-67.119995 62.899994-2.409973 126.399994 3.98999 189.039978-3.959961 15.190003-1.929993 43.240021-11.340027 56.75-6.730042 15.340027 5.239991 16.76001 26.179993 4.700012 36.170044-4.440002 3.669983-10.070007 4.709961-14.440002 7.559998-26.390015 17.169983-57.649994 100.429993-69.160004 130.839966-9.779998 25.820007-33.570007 82.060028-34.359985 107.630005-.51001 16.520019 6.649994 22.640014 18.019989 33.059997 29.600006 27.100006 47.529999 44.170014 68.410004 79.589997 4.589996 7.790008 16.380005 42.300018 26.309997 19.100006 13.480011-31.479981 18.970001-71.959992 31.560028-104.440003 21.949951-62.269989 42.25-126.209991 71.329956-185.669983 23.049988-47.130005 70.100037-119.280029 127.920044-124.080017 11.279969-.940002 18.849976-1.039978 27.809998 6.160034 9.409973 7.559998 11.789978 16.119996 5.059997 26.719971-7.240051 11.380005-15.770019 7.190003-26.809997 9.190003-39.030029 7.080017-69.120056 62.030029-85.820007 94.179992-28.5 54.890015-48.369996 112.309998-67.700013 170.300019-27.150024 81.459991-51.330017 165.75-73.780029 249.220001-3.279968 12.209961-6.599976 35.869995-13.279968 45.71997-6.890015 10.170044-21.76001 11.950074-31.940003 5.920044-18.010009-10.670044-6.330017-39.570068-5.089996-55.940063 4.579987-60.109955-16.460022-128.209961-57.470001-172.49997-8.970001-9.690002-28.740021-31.449981-42.050019-18.019989-7.049987 7.109986-10.169982 23.609986-13.970001 33.029999-43.019989 106.75-111.48999 230.599945-245.979988 219.98996-57.200001-4.52002-100.850002-70.98999-107.390002-123.609955-.68-5.440002.25-10.130005-1.09-15.959991-.58-2.550019.95-2.75-3.03-2.420014z"/></g></svg>