<?xml version="1.0" encoding="UTF-8"?>
<!-- Generated by Pixelmator Pro 3.6.17 -->
<svg width="128" height="76" viewBox="0 0 128 76" xmlns="http://www.w3.org/2000/svg">
    <path id="Path" fill="#000000" stroke="none" d="M 4.714932 0.521362 C 4.532759 0.703529 4.12287 0.862938 3.804068 0.862938 C 3.439723 0.862938 3.212007 0.999565 3.212007 1.204506 C 3.212007 1.386681 3.098148 1.546082 2.961519 1.546082 C 2.642717 1.546082 1.526909 2.684662 1.321964 3.185631 C 1.253649 3.413353 1.094248 3.595528 0.98039 3.595528 C 0.866532 3.595528 0.707131 4.005417 0.616045 4.506386 C 0.54773 5.007362 0.365557 5.417252 0.251699 5.417252 C 0.11507 5.417252 0.023983 7.011269 0.023983 9.629997 C 0.023983 12.157646 0.11507 13.842743 0.251699 13.842743 C 0.365557 13.842743 0.524958 14.207092 0.616045 14.639748 C 0.684359 15.072411 0.843761 15.436752 0.934847 15.436752 C 1.048705 15.436752 1.208106 15.641701 1.276421 15.914963 C 1.458594 16.438705 2.187285 17.258484 2.506087 17.258484 C 2.619945 17.258484 2.756575 17.417885 2.847661 17.60006 C 2.915976 17.782227 3.189235 17.941635 3.439723 17.941635 C 3.895154 17.941635 3.895154 18.055489 3.895154 27.027496 C 3.895154 36.067818 3.895154 36.136139 3.416951 36.272766 C 2.82489 36.477707 1.162563 38.162811 1.162563 38.572693 C 1.162563 38.754868 1.071476 38.891502 0.934847 38.891502 C 0.820989 38.891502 0.707131 39.073669 0.707131 39.301384 C 0.707131 39.529106 0.54773 39.916222 0.365557 40.16671 C -0.089875 40.758774 -0.135418 50.641647 0.320014 50.778275 C 0.479415 50.846588 0.593273 51.324791 0.593273 52.09903 C 0.593273 52.87326 0.479415 53.351463 0.320014 53.419777 C -0.112646 53.556412 -0.067103 56.129593 0.365557 56.562256 C 0.54773 56.767197 0.707131 57.15432 0.707131 57.473122 C 0.707131 57.76915 0.820989 58.019638 0.934847 58.019638 C 1.071476 58.019638 1.162563 58.156265 1.162563 58.33844 C 1.162563 58.748337 3.143692 60.752228 3.553581 60.752228 C 3.712982 60.752228 3.895154 60.866089 3.940698 61.002716 C 4.077327 61.389832 8.882134 61.367065 9.10985 61.002716 C 9.223708 60.843323 9.724683 60.661148 10.24843 60.592834 C 10.749405 60.524521 11.182065 60.387886 11.182065 60.274033 C 11.182065 60.182938 11.910757 60.023544 12.776077 59.932449 C 13.664169 59.864136 14.37009 59.681969 14.37009 59.590881 C 14.37009 59.47702 16.373989 59.385941 18.810551 59.385941 C 21.24711 59.385941 23.251013 59.47702 23.251013 59.590881 C 23.251013 59.681969 24.184647 59.84137 25.345999 59.932449 C 26.507351 60.023544 27.554844 60.182938 27.691473 60.274033 C 27.80533 60.387886 28.602337 60.547287 29.467657 60.638374 C 30.310205 60.706688 30.993355 60.866089 30.993355 60.97995 C 30.993355 61.07103 31.517101 61.207664 32.154705 61.253204 C 32.792313 61.321518 33.384373 61.458145 33.47546 61.572006 C 33.543774 61.685867 33.862576 61.799728 34.181377 61.845268 C 35.61599 62.004669 36.230824 62.16407 36.116962 62.369019 C 36.025879 62.482872 36.412994 62.573959 37.027824 62.573959 C 37.733749 62.573959 38.098095 62.68782 38.189178 62.915527 C 38.280266 63.166016 38.667381 63.257111 39.441616 63.257111 C 40.284168 63.257111 40.557423 63.34819 40.557423 63.598679 C 40.557423 63.849167 40.807915 63.940254 41.491062 63.940254 C 42.014809 63.940254 42.561325 64.099655 42.7435 64.28183 C 42.948441 64.464005 43.426647 64.623398 43.859306 64.623398 C 44.269196 64.623398 44.656311 64.737259 44.701855 64.873886 C 44.747398 64.987747 45.202831 65.169922 45.749348 65.238235 C 46.273098 65.306549 46.705757 65.443176 46.705757 65.557037 C 46.705757 65.670898 47.115643 65.830299 47.616623 65.898613 C 48.117596 65.9897 48.527481 66.126328 48.527481 66.217415 C 48.527481 66.308502 48.960144 66.445129 49.461117 66.513443 C 49.984867 66.581757 50.48584 66.741165 50.554153 66.855019 C 50.622475 66.968872 51.100674 67.128281 51.601646 67.196594 C 52.102627 67.287682 52.535282 67.447083 52.580826 67.58371 C 52.626369 67.697571 53.013489 67.811432 53.446148 67.811432 C 53.947121 67.811432 54.288696 67.948059 54.35701 68.153 C 54.448101 68.380722 54.812447 68.494576 55.495594 68.494576 C 56.224285 68.494576 56.497543 68.585663 56.497543 68.836151 C 56.497543 69.086639 56.770805 69.177719 57.499493 69.177719 C 58.182644 69.177719 58.546986 69.29158 58.638073 69.519295 C 58.706387 69.724243 59.070732 69.86087 59.571709 69.86087 C 60.027138 69.86087 60.550888 70.020271 60.733059 70.202446 C 60.938004 70.384613 61.48452 70.544022 61.985497 70.544022 C 62.463699 70.544022 62.873589 70.635101 62.873589 70.771736 C 62.873589 70.88559 63.260712 71.044998 63.738907 71.113312 C 64.194344 71.181625 64.74086 71.341019 64.968582 71.45488 C 65.173523 71.568741 65.856667 71.728142 66.49427 71.819229 C 67.131882 71.910309 67.655624 72.046944 67.655624 72.138031 C 67.655624 72.229111 68.179375 72.365746 68.816978 72.411285 C 69.454582 72.479599 70.046638 72.639008 70.137733 72.752869 C 70.206047 72.889496 70.934738 73.048889 71.754509 73.11721 C 72.551521 73.185524 73.257439 73.344925 73.302979 73.481552 C 73.348526 73.618179 74.008904 73.73204 74.828674 73.73204 C 75.807854 73.73204 76.377144 73.845901 76.627632 74.073616 C 76.87812 74.324104 77.515724 74.415192 79.223595 74.415192 C 80.977005 74.415192 81.546295 74.483505 81.774017 74.75676 C 82.183907 75.257736 89.288643 75.23497 89.288643 74.733994 C 89.288643 74.483505 89.652985 74.415192 90.746025 74.415192 C 91.839066 74.415192 92.226181 74.324104 92.340034 74.073616 C 92.408348 73.845901 92.77269 73.73204 93.387527 73.73204 C 94.002357 73.73204 94.366707 73.618179 94.43502 73.390472 C 94.526115 73.185524 94.867691 73.048889 95.232025 73.048889 C 95.596375 73.048889 95.89241 72.957809 95.89241 72.843948 C 95.89241 72.730087 96.211205 72.570694 96.575554 72.479599 C 96.962677 72.388519 97.258705 72.251892 97.258705 72.138031 C 97.258705 72.02417 97.577499 71.887543 97.941856 71.796455 C 98.328972 71.705368 98.625 71.568741 98.625 71.45488 C 98.625 71.3638 98.875481 71.204391 99.19429 71.136078 C 99.513084 71.044998 99.763573 70.88559 99.763573 70.771736 C 99.763573 70.635101 99.922981 70.544022 100.105148 70.544022 C 100.287315 70.544022 100.446724 70.384613 100.446724 70.202446 C 100.446724 69.997498 100.651665 69.86087 101.016022 69.86087 C 101.334816 69.86087 101.65361 69.701469 101.721931 69.519295 C 101.813019 69.337128 101.995186 69.177719 102.177368 69.177719 C 102.359535 69.177719 102.496162 69.018326 102.496162 68.836151 C 102.496162 68.653976 102.610023 68.494576 102.746651 68.494576 C 102.883278 68.494576 103.293175 68.175774 103.68029 67.811432 C 104.044632 67.424309 104.500069 67.128281 104.682236 67.128281 C 104.864418 67.128281 105.001045 66.968872 105.001045 66.786705 C 105.001045 66.60453 105.160446 66.445129 105.342621 66.445129 C 105.524788 66.445129 105.684189 66.285728 105.684189 66.103561 C 105.684189 65.921387 105.79805 65.761978 105.911903 65.761978 C 106.207939 65.761978 107.050491 64.919434 107.050491 64.623398 C 107.050491 64.509544 107.118797 64.418457 107.232658 64.441231 C 107.483147 64.532318 108.416786 63.644226 108.280159 63.439285 C 108.211838 63.34819 108.325699 63.257111 108.507866 63.257111 C 108.712814 63.257111 108.872223 63.097702 108.872223 62.915527 C 108.872223 62.73336 109.077156 62.391785 109.327644 62.186844 C 109.578133 61.959122 109.783081 61.685867 109.783081 61.572006 C 109.783081 61.458145 110.010796 61.162125 110.306824 60.888863 C 110.602852 60.615601 110.898888 60.205719 110.989975 60.000771 C 111.081055 59.773056 111.240463 59.659195 111.37709 59.727509 C 111.513718 59.818596 111.604813 59.613647 111.604813 59.294846 C 111.604813 58.930504 111.74144 58.702789 111.946388 58.702789 C 112.128555 58.702789 112.287956 58.566162 112.287956 58.383987 C 112.287956 58.201813 112.44735 58.019638 112.629532 57.928558 C 112.811699 57.860237 112.971107 57.541435 112.971107 57.222633 C 112.971107 56.858292 113.107735 56.653343 113.312683 56.653343 C 113.517616 56.653343 113.654251 56.448395 113.654251 56.106827 C 113.654251 55.810791 113.813644 55.514771 113.995827 55.423676 C 114.178001 55.355362 114.337402 55.059334 114.337402 54.740532 C 114.337402 54.444504 114.496796 54.148468 114.678978 54.057388 C 114.861145 53.989067 115.020554 53.670265 115.020554 53.351463 C 115.020554 53.032661 115.111633 52.782173 115.225487 52.782173 C 115.339348 52.782173 115.498749 52.486145 115.589836 52.09903 C 115.680923 51.711906 115.817551 51.415878 115.931412 51.415878 C 116.045273 51.415878 116.1819 51.119843 116.272987 50.732727 C 116.364067 50.368378 116.523476 50.049576 116.637321 50.049576 C 116.751183 50.049576 116.84227 49.799095 116.84227 49.480293 C 116.84227 49.161484 117.001678 48.842682 117.183846 48.774368 C 117.366013 48.683289 117.525421 48.410027 117.525421 48.113998 C 117.525421 47.840736 117.684822 47.476395 117.866989 47.316986 C 118.049164 47.157593 118.208565 46.72493 118.208565 46.36058 C 118.208565 45.996239 118.345192 45.654663 118.55014 45.586349 C 118.755089 45.495262 118.891716 45.153687 118.891716 44.789345 C 118.891716 44.356682 119.005577 44.128967 119.233292 44.128967 C 119.438232 44.128967 119.57486 43.901245 119.57486 43.536903 C 119.57486 43.218102 119.734268 42.808212 119.916435 42.626038 C 120.09861 42.421097 120.258011 41.988434 120.258011 41.624092 C 120.258011 41.259743 120.417412 40.940941 120.599586 40.849854 C 120.781754 40.78154 120.941162 40.462738 120.941162 40.143936 C 120.941162 39.825134 121.032242 39.574646 121.146103 39.574646 C 121.259964 39.574646 121.419357 39.278618 121.510452 38.891502 C 121.60154 38.504379 121.738167 38.208351 121.852028 38.208351 C 121.943115 38.208351 122.079742 37.798462 122.17083 37.297485 C 122.239143 36.796516 122.421318 36.38662 122.535179 36.38662 C 122.671806 36.38662 122.762886 36.067818 122.762886 35.703476 C 122.762886 35.270813 122.876755 35.020325 123.081688 35.020325 C 123.26387 35.020325 123.468803 34.769844 123.537125 34.451035 C 123.628204 34.109467 123.901474 33.836205 124.24305 33.745117 C 124.561844 33.676804 124.812332 33.517403 124.812332 33.426315 C 124.812332 33.312454 125.017281 33.153053 125.290535 33.08474 C 125.791512 32.925339 126.634064 32.173882 126.634064 31.877846 C 126.634064 31.786758 126.793457 31.53627 126.975639 31.331329 C 127.157806 31.103615 127.385513 30.511551 127.453842 30.010574 C 127.544922 29.509605 127.681549 29.099709 127.79541 29.099709 C 127.909271 29.099709 128.000366 27.209671 128.000366 24.886971 C 128.000366 22.473175 127.909271 20.674225 127.79541 20.674225 C 127.681549 20.674225 127.522156 20.355423 127.431061 19.991074 C 127.339981 19.603958 127.203354 19.30793 127.089493 19.30793 C 126.998405 19.30793 126.838997 19.057442 126.770691 18.73864 C 126.61129 18.123802 125.882599 17.258484 125.495483 17.258484 C 125.381622 17.258484 125.267769 17.144623 125.267769 17.007996 C 125.267769 16.894142 125.176674 16.848595 125.040047 16.916908 C 124.926193 16.985222 124.812332 16.939682 124.812332 16.825821 C 124.812332 16.689194 124.675705 16.575333 124.493523 16.575333 C 124.311356 16.575333 124.129189 16.438705 124.083641 16.279305 C 123.992561 16.074356 122.398537 15.983276 117.343246 15.937729 L 110.693939 15.869415 L 109.896942 15.072411 C 109.441505 14.639748 108.78112 14.161545 108.416786 14.024918 C 108.029671 13.911057 107.733635 13.706116 107.733635 13.592255 C 107.733635 13.478401 103.976326 13.387306 98.852715 13.387306 C 91.406395 13.387306 89.971794 13.341766 89.971794 13.068504 C 89.971794 12.886337 89.812386 12.704163 89.630219 12.613075 C 89.356949 12.521988 89.288643 12.043785 89.288643 10.313141 C 89.288643 8.741905 89.220322 8.149841 89.015381 8.149841 C 88.855988 8.149841 88.514412 7.73996 88.28669 7.238976 C 88.058975 6.738007 87.762939 6.396431 87.67186 6.464745 C 87.557999 6.533058 87.466911 6.464745 87.466911 6.350891 C 87.466911 6.214256 87.30751 6.100403 87.125336 6.100403 C 86.943169 6.100403 86.78376 5.941002 86.78376 5.758827 C 86.78376 5.531105 86.556053 5.417252 86.12339 5.417252 C 85.736267 5.417252 85.417465 5.280624 85.326385 5.075676 C 85.144211 4.551926 69.021919 4.574707 69.021919 5.075676 C 69.021919 5.303398 68.794205 5.417252 68.338768 5.417252 C 67.883339 5.417252 67.655624 5.531105 67.655624 5.758827 C 67.655624 5.941002 67.496223 6.100403 67.314049 6.100403 C 67.131882 6.100403 66.972473 6.259796 66.972473 6.441971 C 66.972473 6.624146 66.813072 6.783546 66.630898 6.783546 C 66.44873 6.783546 66.28933 6.942947 66.28933 7.125122 C 66.28933 7.307297 66.198242 7.466698 66.061615 7.466698 C 65.947754 7.466698 65.765579 7.73996 65.697266 8.081528 C 65.606178 8.445877 65.424011 8.787453 65.287376 8.878532 C 65.127975 8.992393 65.014122 10.586403 64.968582 13.501167 C 64.900261 17.030769 64.831947 17.941635 64.581459 17.941635 C 64.422058 17.941635 64.239883 18.055489 64.194344 18.192116 C 64.148796 18.351517 63.124077 18.488144 61.552837 18.579239 C 59.29845 18.670326 59.002419 18.647552 59.002419 18.305977 C 59.002419 18.101028 58.843018 17.941635 58.660843 17.941635 C 58.478672 17.941635 58.319271 17.782227 58.319271 17.60006 C 58.319271 17.417885 58.114323 17.258484 57.863838 17.258484 C 57.61335 17.258484 57.340092 17.099083 57.271778 16.916908 C 57.180691 16.734734 56.998516 16.575333 56.816345 16.575333 C 56.634171 16.575333 56.497543 16.415932 56.497543 16.233765 C 56.497543 16.05159 56.338139 15.892189 56.155972 15.892189 C 55.973793 15.892189 55.814396 15.801102 55.814396 15.687241 C 55.814396 15.573387 55.518364 15.413979 55.131248 15.322899 C 54.766903 15.231812 54.448101 15.095177 54.448101 14.981323 C 54.448101 14.890236 54.038212 14.753609 53.537235 14.662521 C 53.036263 14.594208 52.626369 14.434799 52.626369 14.320946 C 52.626369 14.207092 52.19371 14.070457 51.669968 14.002144 C 51.123447 13.93383 50.668015 13.751656 50.622475 13.637794 C 50.576923 13.478401 49.688835 13.387306 48.32254 13.387306 C 45.476086 13.387306 45.339458 13.250679 45.339458 10.563629 C 45.339458 9.151794 45.248375 8.536957 44.997887 8.286469 C 44.815716 8.104301 44.656311 7.7855 44.656311 7.603325 C 44.656311 7.398384 44.496914 7.238976 44.314739 7.238976 C 44.132568 7.238976 43.973164 7.125122 43.973164 6.988495 C 43.973164 6.692467 43.403873 6.100403 43.107845 6.100403 C 42.971214 6.100403 42.834583 5.941002 42.7435 5.758827 C 42.675186 5.576653 42.470238 5.417252 42.288067 5.417252 C 42.105892 5.417252 41.923721 5.280624 41.878178 5.121223 C 41.78709 4.916283 40.033676 4.825188 34.340778 4.779648 C 27.987505 4.734108 26.894466 4.665794 26.894466 4.392532 C 26.894466 4.210358 26.803381 4.050957 26.689524 4.050957 C 26.575665 4.050957 26.393492 3.823242 26.325178 3.54998 C 26.234091 3.299492 25.892515 2.821289 25.550941 2.502487 C 25.23214 2.206459 24.981653 1.864883 25.004425 1.751022 C 25.049967 1.637169 24.867794 1.546082 24.617308 1.546082 C 24.366819 1.546082 24.161875 1.386681 24.161875 1.204506 C 24.161875 0.976791 23.93416 0.862938 23.387642 0.862938 C 22.909437 0.862938 22.567863 0.726303 22.476776 0.521362 C 22.362921 0.225327 21.178795 0.179787 13.709713 0.179787 C 6.331716 0.179787 5.010963 0.225327 4.714932 0.521362 Z M 21.657 9.402283 C 21.657 12.18042 21.611456 12.704163 21.315426 12.704163 C 21.133253 12.704163 20.973852 12.863564 20.973852 13.045738 C 20.973852 13.318993 20.655048 13.387306 19.539242 13.387306 C 18.218489 13.387306 18.059088 13.432854 17.603655 14.070457 C 17.125452 14.708061 17.10268 14.958549 17.10268 19.30793 L 17.10268 23.862244 L 20.95108 23.862244 C 24.161875 23.862244 24.822252 23.907791 24.936111 24.203819 C 25.027195 24.454308 25.414312 24.545395 26.325178 24.545395 C 27.008326 24.545395 27.577614 24.636475 27.577614 24.773109 C 27.577614 24.886971 27.896418 25.000824 28.283533 25.000824 L 29.012226 25.000824 L 28.898367 22.222687 C 28.830051 20.446503 28.693424 19.421783 28.511251 19.35347 C 28.37462 19.30793 28.260763 18.966354 28.260763 18.602005 C 28.260763 18.009949 28.169678 17.941635 27.577614 17.941635 C 27.122181 17.941635 26.894466 17.827774 26.894466 17.60006 C 26.894466 17.326797 26.598434 17.258484 25.642029 17.258484 C 24.412363 17.258484 24.412363 17.258484 24.275734 16.484245 C 24.184647 16.05159 24.161875 14.639748 24.207418 13.341766 C 24.252962 11.497269 24.366819 10.882439 24.662849 10.586403 C 25.004425 10.244827 25.801432 10.199287 32.223019 10.199287 C 36.868427 10.199287 39.418842 10.290375 39.418842 10.427002 C 39.418842 10.540863 39.578243 10.654716 39.760418 10.654716 C 40.05645 10.654716 40.101994 11.110153 40.101994 13.432854 C 40.101994 17.190163 40.07922 17.258484 38.826782 17.258484 C 38.143635 17.258484 37.779289 17.372337 37.688202 17.60006 C 37.597118 17.782227 37.34663 17.941635 37.118916 17.941635 C 36.891197 17.941635 36.686253 18.078262 36.686253 18.260437 C 36.686253 18.442604 36.549625 18.624779 36.412994 18.670326 C 36.20805 18.73864 36.116962 19.467323 36.116962 21.175194 C 36.116962 22.518723 36.18528 23.657295 36.276363 23.74839 C 36.435764 23.930557 37.3694 23.065239 37.3694 22.723671 C 37.3694 22.587036 37.528801 22.495949 37.710976 22.495949 C 37.89315 22.495949 38.052547 22.336548 38.052547 22.154373 C 38.052547 21.972198 38.211948 21.812805 38.394123 21.812805 C 38.576298 21.812805 38.735695 21.653404 38.735695 21.47123 C 38.735695 21.289055 38.895096 21.129654 39.077271 21.129654 C 39.259445 21.129654 39.418842 21.038567 39.418842 20.901939 C 39.418842 20.788078 39.669334 20.628677 39.988136 20.53759 C 40.306938 20.469276 40.557423 20.309875 40.557423 20.218788 C 40.557423 20.104935 40.876228 19.968307 41.240574 19.877213 C 41.627689 19.786133 41.923721 19.626732 41.923721 19.512871 C 41.923721 19.39901 42.19698 19.30793 42.561325 19.30793 C 42.902901 19.30793 43.472187 19.148521 43.836536 18.966354 C 44.679085 18.510918 47.366131 18.510918 48.208679 18.966354 C 48.573029 19.148521 49.256176 19.30793 49.734379 19.30793 C 50.189808 19.30793 50.576923 19.39901 50.576923 19.512871 C 50.576923 19.626732 50.895729 19.786133 51.260075 19.877213 C 51.647194 19.968307 51.943222 20.127701 51.943222 20.241562 C 51.943222 20.355423 52.011539 20.423737 52.125397 20.400963 C 52.671917 20.287109 55.131248 22.359322 55.131248 22.928612 C 55.131248 23.065239 55.290646 23.1791 55.47282 23.1791 C 55.654991 23.1791 55.814396 23.338493 55.814396 23.520668 C 55.814396 23.70285 55.973793 23.862244 56.155972 23.862244 C 56.360912 23.862244 56.497543 24.089966 56.497543 24.454308 C 56.497543 24.773109 56.656944 25.182999 56.839119 25.365166 C 57.021286 25.570114 57.180691 25.91169 57.180691 26.162178 C 57.180691 26.52652 57.271778 26.594833 57.681664 26.458206 C 58.1371 26.321579 58.364811 26.162178 59.070732 25.54734 C 59.230137 25.410713 59.594482 25.205772 59.867741 25.137459 C 60.140995 25.046364 60.368713 24.864197 60.368713 24.750343 C 60.368713 24.636475 60.710289 24.545395 61.142948 24.545395 C 61.575611 24.545395 62.076584 24.385994 62.281528 24.203819 C 62.691418 23.79393 66.881393 23.70285 67.018021 24.112732 C 67.063568 24.249359 67.587311 24.408768 68.179375 24.477081 C 68.748665 24.545395 69.18132 24.682022 69.113007 24.795883 C 69.044693 24.909737 69.113007 25.000824 69.272408 25.000824 C 69.682297 25.000824 71.526794 25.95723 71.526794 26.184952 C 71.526794 26.276031 71.686195 26.367119 71.86837 26.367119 C 72.050545 26.367119 72.209946 26.52652 72.209946 26.708694 C 72.209946 26.890869 72.369347 27.05027 72.551521 27.05027 C 72.733688 27.05027 72.893097 27.209671 72.893097 27.391838 C 72.893097 27.574013 73.029724 27.733414 73.211899 27.733414 C 73.371292 27.733414 73.599014 28.074989 73.690094 28.462105 C 73.826721 29.122482 73.872276 29.16803 74.03167 28.758141 C 74.259392 28.23439 74.327705 18.852493 74.122757 18.305977 C 74.054443 18.101028 73.735641 17.941635 73.439606 17.941635 C 73.098038 17.941635 72.893097 17.805 72.893097 17.60006 C 72.893097 17.349571 72.619835 17.258484 71.86837 17.258484 C 71.116913 17.258484 70.843651 17.167397 70.843651 16.916908 C 70.843651 16.734734 70.752556 16.575333 70.615929 16.575333 C 70.479301 16.575333 70.388214 15.505074 70.388214 13.842743 C 70.388214 13.57518 70.385666 13.327171 70.383301 13.097298 C 70.371521 11.95163 70.364372 11.256279 70.70063 10.835129 C 71.219849 10.18483 72.557838 10.188271 75.961838 10.197021 C 76.386169 10.198112 76.842606 10.199287 77.333557 10.199287 C 81.204727 10.199287 83.368027 10.290375 83.368027 10.427002 C 83.368027 10.540863 83.527428 10.654716 83.709595 10.654716 C 84.00563 10.654716 84.05117 11.178467 84.05117 13.956604 L 84.05117 17.258484 L 82.935364 17.258484 C 82.161133 17.258484 81.774017 17.349571 81.682922 17.60006 C 81.614609 17.782227 81.341354 17.941635 81.090866 17.941635 C 80.817604 17.941635 80.680977 18.055489 80.74929 18.169342 C 80.817604 18.305977 80.726524 18.465378 80.54435 18.533691 C 80.225548 18.647552 80.18 19.512871 80.18 25.365166 L 80.18 32.06002 L 80.817604 31.786758 C 81.15918 31.627357 81.819557 31.126381 82.274986 30.648178 C 82.753197 30.169975 83.2314 29.78286 83.368027 29.78286 C 83.481888 29.78286 83.891777 29.486824 84.278893 29.099709 C 84.666008 28.735367 85.075897 28.416565 85.189758 28.416565 C 85.326385 28.416565 85.417465 28.257164 85.417465 28.074989 C 85.417465 27.892822 85.576874 27.733414 85.759041 27.733414 C 85.941216 27.733414 86.100616 27.596786 86.100616 27.414612 C 86.100616 27.232445 86.237251 27.027496 86.396645 26.981956 C 86.829308 26.799782 86.100616 26.367119 85.371925 26.367119 C 85.007584 26.367119 84.734322 26.253265 84.734322 26.139404 C 84.734322 26.002777 84.574921 25.91169 84.392746 25.91169 C 84.096718 25.91169 84.05117 25.387939 84.05117 22.609802 C 84.05117 19.831673 84.096718 19.30793 84.392746 19.30793 C 84.574921 19.30793 84.734322 19.148521 84.734322 18.966354 C 84.734322 18.670326 86.055077 18.624779 95.209259 18.624779 C 104.363441 18.624779 105.684189 18.670326 105.684189 18.966354 C 105.684189 19.148521 105.843597 19.30793 106.025764 19.30793 C 106.3218 19.30793 106.36734 19.808899 106.36734 22.427635 L 106.36734 25.570114 L 105.661415 25.95723 C 105.2743 26.184952 104.705009 26.367119 104.408981 26.367119 C 103.953545 26.367119 103.862457 26.48098 103.862457 27.05027 C 103.862457 27.414612 103.953545 27.733414 104.090187 27.733414 C 104.204033 27.733414 104.386208 28.143311 104.454521 28.644279 C 104.545609 29.145256 104.682236 29.555145 104.773331 29.555145 C 104.864418 29.555145 105.023811 29.919495 105.092133 30.35215 C 105.183212 30.784813 105.342621 31.149155 105.456482 31.149155 C 105.593109 31.149155 105.684189 31.399643 105.684189 31.695679 C 105.684189 32.014481 105.843597 32.401596 106.025764 32.606537 C 106.207939 32.788712 106.36734 33.244141 106.36734 33.631256 C 106.36734 34.109467 106.481201 34.337181 106.708916 34.337181 C 106.93663 34.337181 107.050491 34.564896 107.050491 34.997559 C 107.050491 35.3619 107.209892 35.817337 107.392059 36.022278 C 107.574234 36.204453 107.733635 36.591568 107.733635 36.887596 C 107.733635 37.183632 107.984123 37.639061 108.280159 37.935089 L 108.826668 38.436066 L 108.986069 37.707375 C 109.077156 37.297485 109.236557 36.91037 109.350418 36.842056 C 109.441505 36.773743 109.600906 36.363853 109.66922 35.93119 C 109.737534 35.498528 109.896942 35.088646 110.010796 35.020325 C 110.124657 34.952011 110.261284 34.633209 110.306824 34.337181 C 110.352364 34.041153 110.511772 33.745117 110.648399 33.699577 C 110.8078 33.65403 110.921661 33.403542 110.921661 33.130287 C 110.921661 32.333282 111.172142 31.604584 111.399864 31.741219 C 111.513718 31.809532 111.604813 31.399643 111.604813 30.830353 C 111.604813 30.261063 111.513718 29.78286 111.37709 29.78286 C 111.263237 29.78286 111.149376 29.623459 111.149376 29.441284 C 111.149376 29.21357 110.921661 29.099709 110.488991 29.099709 C 110.124657 29.099709 109.783081 28.963081 109.691994 28.758141 C 109.623672 28.575966 109.418732 28.416565 109.213791 28.416565 C 109.031616 28.416565 108.872223 28.211624 108.872223 27.961136 C 108.872223 27.710648 108.78112 27.505699 108.644493 27.505699 C 108.507866 27.505699 108.416786 26.549294 108.416786 25.114685 C 108.416786 23.79393 108.507866 22.723671 108.621727 22.723671 C 108.73558 22.723671 108.872223 22.404861 108.963303 22.04052 L 109.09993 21.357368 L 115.24826 21.357368 C 121.760933 21.357368 121.965881 21.380142 122.079742 22.404861 C 122.102509 22.632576 122.125282 24.089966 122.102509 25.615654 C 122.079742 27.938362 122.011421 28.416565 121.738167 28.416565 C 121.556 28.416565 121.396591 28.575966 121.396591 28.758141 C 121.396591 29.008629 121.146103 29.099709 120.485733 29.099709 C 119.825348 29.099709 119.57486 29.190804 119.57486 29.441284 C 119.57486 29.623459 119.415459 29.78286 119.233292 29.78286 C 119.005577 29.78286 118.891716 30.010574 118.891716 30.466003 C 118.891716 30.8759 118.777863 31.149155 118.59568 31.149155 C 118.413513 31.149155 118.276886 31.49073 118.254112 31.991707 C 118.208565 32.46991 118.049164 32.925339 117.866989 33.0392 C 117.684822 33.130287 117.525421 33.471855 117.525421 33.767891 C 117.525421 34.086693 117.434334 34.337181 117.297707 34.337181 C 117.183846 34.337181 117.001678 34.74707 116.933357 35.248047 C 116.84227 35.749023 116.705643 36.158905 116.591782 36.158905 C 116.477928 36.158905 116.386848 36.29554 116.386848 36.432167 C 116.364067 36.591568 116.1819 37.138084 115.931412 37.639061 C 115.680923 38.140038 115.498749 38.686554 115.475975 38.823189 C 115.475975 38.98259 115.384888 39.119217 115.271027 39.119217 C 115.157181 39.119217 115.020554 39.529106 114.929451 40.030083 C 114.861145 40.531052 114.678978 40.940941 114.565117 40.940941 C 114.42849 40.940941 114.337402 41.191429 114.337402 41.510231 C 114.337402 41.829033 114.178001 42.147835 113.995827 42.216148 C 113.790878 42.307236 113.654251 42.648811 113.654251 43.013153 C 113.654251 43.445816 113.54039 43.673538 113.312683 43.673538 C 113.062195 43.673538 112.971107 43.924019 112.971107 44.584396 C 112.971107 45.244774 112.880013 45.495262 112.629532 45.495262 C 112.40181 45.495262 112.287956 45.722977 112.287956 46.178406 C 112.287956 46.633842 112.174095 46.861557 111.946388 46.861557 C 111.74144 46.861557 111.604813 47.089279 111.604813 47.453613 C 111.604813 47.772423 111.445404 48.182312 111.263237 48.364487 C 111.081055 48.569427 110.921661 48.911003 110.921661 49.161484 C 110.921661 49.389206 110.830566 49.594147 110.693939 49.594147 C 110.580086 49.594147 110.420685 49.844635 110.329597 50.163437 C 110.261284 50.482239 110.101875 50.732727 109.988029 50.732727 C 109.874161 50.732727 109.783081 50.937675 109.783081 51.16539 C 109.783081 51.415878 109.623672 51.757446 109.441505 51.939621 C 109.282104 52.121796 109.05439 52.531685 108.963303 52.87326 C 108.894989 53.192062 108.73558 53.465317 108.644493 53.465317 C 108.553413 53.465317 108.394005 53.715805 108.325699 54.034607 C 108.234612 54.353409 108.075211 54.603897 107.961349 54.603897 C 107.824722 54.603897 107.733635 54.763306 107.733635 54.945473 C 107.733635 55.127647 107.574234 55.287048 107.392059 55.287048 C 107.187119 55.287048 107.050491 55.491989 107.050491 55.856339 C 107.050491 56.17514 106.891083 56.493942 106.708916 56.562256 C 106.526741 56.653343 106.36734 56.835518 106.36734 57.017685 C 106.36734 57.19986 106.207939 57.336487 106.025764 57.336487 C 105.843597 57.336487 105.684189 57.495895 105.684189 57.67807 C 105.684189 57.860237 105.524788 58.019638 105.319839 58.019638 C 105.137672 58.019638 105.046585 58.133499 105.114906 58.24736 C 105.183212 58.383987 105.092133 58.543388 104.909958 58.611702 C 104.705009 58.680016 104.545609 58.884964 104.545609 59.067139 C 104.545609 59.249306 104.386208 59.385941 104.204033 59.385941 C 104.021866 59.385941 103.862457 59.522568 103.862457 59.704742 C 103.862457 60.160172 100.697212 63.257111 100.241776 63.257111 C 100.127922 63.257111 99.991295 63.416504 99.9002 63.598679 C 99.831894 63.780853 99.626945 63.940254 99.421997 63.940254 C 99.23983 63.940254 99.080429 64.099655 99.080429 64.28183 C 99.080429 64.464005 98.921021 64.623398 98.738853 64.623398 C 98.556679 64.623398 98.397278 64.714493 98.397278 64.85112 C 98.397278 64.964981 98.14679 65.124374 97.850754 65.215469 C 97.53196 65.283783 97.235931 65.488724 97.16761 65.670898 C 97.099304 65.853073 96.894356 65.9897 96.689407 65.9897 C 96.50724 65.9897 96.347832 66.08078 96.347832 66.194641 C 96.347832 66.308502 96.120125 66.490677 95.846855 66.581757 C 95.550835 66.672852 95.277573 66.809479 95.209259 66.92334 C 95.140945 67.037193 94.822136 67.151047 94.526115 67.196594 C 94.23008 67.242142 93.934052 67.401535 93.888512 67.538162 C 93.842964 67.697571 93.524155 67.811432 93.159821 67.811432 C 92.795464 67.811432 92.362808 67.970825 92.15786 68.153 C 91.975693 68.335175 91.429169 68.494576 90.905426 68.494576 C 90.222282 68.494576 89.971794 68.585663 89.971794 68.836151 C 89.971794 69.132179 89.288643 69.177719 85.098663 69.177719 C 81.432442 69.177719 80.202774 69.109406 80.13446 68.904465 C 80.066147 68.72229 79.360229 68.585663 78.107788 68.540115 C 77.060295 68.471802 76.126656 68.357941 76.058342 68.244087 C 75.990028 68.130234 75.261337 67.970825 74.418785 67.879745 C 73.576241 67.811432 72.893097 67.674797 72.893097 67.560944 C 72.893097 67.469849 72.164406 67.310455 71.276306 67.21936 C 70.388214 67.128281 69.773384 66.991653 69.932785 66.900558 C 70.069412 66.809479 69.613983 66.672852 68.908066 66.60453 C 68.202141 66.536217 67.496223 66.376816 67.359596 66.262955 C 67.200195 66.149101 66.608131 65.966927 66.016075 65.898613 C 65.401237 65.807526 64.923035 65.648125 64.923035 65.557037 C 64.923035 65.443176 64.399284 65.306549 63.738907 65.238235 C 63.101303 65.147148 62.509243 65.010521 62.440929 64.896667 C 62.372616 64.782806 61.894413 64.623398 61.393436 64.555084 C 60.892464 64.464005 60.459797 64.304596 60.414257 64.167969 C 60.368713 64.054115 60.049911 63.940254 59.685566 63.940254 C 58.843018 63.940254 58.296497 63.71254 58.455898 63.462051 C 58.524216 63.34819 58.15987 63.257111 57.636124 63.257111 C 57.0896 63.257111 56.543087 63.097702 56.360912 62.915527 C 56.155972 62.73336 55.677765 62.573959 55.245106 62.573959 C 54.835217 62.573959 54.448101 62.460098 54.402557 62.323471 C 54.35701 62.20961 53.901581 62.027443 53.355064 61.959122 C 52.831314 61.890808 52.398655 61.754181 52.398655 61.64032 C 52.398655 61.526466 51.98877 61.367065 51.487789 61.298752 C 50.986816 61.207664 50.576923 61.07103 50.576923 60.97995 C 50.576923 60.888863 50.144268 60.752228 49.643295 60.683914 C 49.119545 60.615601 48.618572 60.4562 48.550251 60.342346 C 48.481937 60.228485 48.003738 60.069084 47.502758 60.000771 C 47.001785 59.909683 46.56913 59.750282 46.523586 59.613647 C 46.478039 59.499794 46.04538 59.385941 45.544407 59.385941 C 44.906799 59.385941 44.656311 59.294846 44.656311 59.044357 C 44.656311 58.793869 44.405823 58.702789 43.722675 58.702789 C 43.198933 58.702789 42.652412 58.543388 42.470238 58.361214 C 42.265293 58.156265 41.696007 58.019638 41.103943 58.019638 C 40.375252 58.019638 40.101994 57.928558 40.101994 57.67807 C 40.101994 57.427582 39.828735 57.336487 39.100044 57.336487 C 38.416897 57.336487 38.052547 57.222633 37.961464 56.994919 C 37.870377 56.744431 37.506031 56.653343 36.709026 56.653343 C 35.934792 56.653343 35.547672 56.562256 35.456585 56.311768 C 35.365501 56.084053 35.001156 55.9702 34.318008 55.9702 C 33.771488 55.9702 33.020027 55.810791 32.678452 55.628624 C 32.314106 55.446449 31.630959 55.287048 31.175526 55.287048 C 30.697323 55.287048 30.310205 55.195961 30.310205 55.082108 C 30.310205 54.99102 29.490429 54.808846 28.488478 54.740532 C 27.48653 54.649445 26.666752 54.490044 26.666752 54.398956 C 26.666752 54.307869 25.414312 54.148468 23.888617 54.057388 C 22.362921 53.966293 21.042168 53.8069 20.95108 53.670265 C 20.791679 53.397003 16.419533 53.442551 16.419533 53.693039 C 16.419533 53.8069 15.394812 53.966293 14.142373 54.034607 C 12.889935 54.125702 11.865213 54.285095 11.865213 54.376183 C 11.865213 54.490044 11.250381 54.626671 10.498918 54.717758 C 9.747455 54.808846 9.132622 54.945473 9.132622 55.059334 C 9.132622 55.150421 8.699961 55.287048 8.176214 55.355362 C 7.629696 55.423676 7.174265 55.60585 7.128721 55.719711 C 7.083179 55.856339 6.901005 55.9702 6.718832 55.9702 C 6.513888 55.9702 6.445574 55.856339 6.513888 55.742477 C 6.582203 55.60585 6.491117 55.514771 6.308943 55.514771 C 6.058456 55.514771 5.944598 55.309814 5.944598 54.831619 C 5.944598 54.376183 6.058456 54.148468 6.286172 54.148468 C 6.468345 54.148468 6.627746 54.011841 6.627746 53.829666 C 6.627746 53.647491 6.878234 53.442551 7.197036 53.374237 C 7.515839 53.28315 7.766326 53.123749 7.766326 53.009888 C 7.766326 52.87326 7.925727 52.782173 8.107901 52.782173 C 8.290072 52.782173 8.449474 52.622772 8.449474 52.440598 C 8.449474 52.212883 8.67719 52.09903 9.132622 52.09903 C 9.588054 52.09903 9.81577 51.985168 9.81577 51.757446 C 9.81577 51.575279 9.929627 51.415878 10.066257 51.415878 C 10.202887 51.415878 10.453374 51.25647 10.635548 51.074303 C 10.840491 50.892128 11.250381 50.732727 11.546412 50.732727 C 11.865213 50.732727 12.070158 50.641647 12.001843 50.527786 C 11.842442 50.277298 12.38896 50.049576 13.117651 50.049576 C 13.413681 50.049576 13.686941 49.935722 13.732484 49.799095 C 13.778028 49.685234 14.233459 49.503067 14.779977 49.434753 C 15.303724 49.366432 15.736385 49.229805 15.736385 49.115952 C 15.736385 49.024857 16.305674 48.865456 16.988823 48.797142 C 17.67197 48.706055 18.241261 48.546661 18.241261 48.455566 C 18.241261 48.318939 20.245161 48.045685 22.066889 47.931824 C 22.20352 47.931824 22.340147 47.840736 22.340147 47.726883 C 22.340147 47.453613 35.274414 47.499161 35.365501 47.772423 C 35.411045 47.886276 36.709026 48.068451 38.280266 48.136765 C 39.851505 48.227859 41.17226 48.364487 41.240574 48.455566 C 41.308887 48.546661 42.333611 48.706055 43.517731 48.797142 C 44.701855 48.888229 45.726578 49.04763 45.794891 49.138718 C 45.885979 49.252579 48.117596 49.571381 49.597752 49.66246 C 49.757149 49.66246 49.825462 49.753555 49.779922 49.844635 C 49.711609 49.935722 50.394756 50.049576 51.305622 50.095123 C 52.307568 50.140671 52.967941 50.300064 53.036263 50.459473 C 53.081806 50.641647 53.673862 50.732727 54.698586 50.732727 C 55.905479 50.732727 56.315369 50.823814 56.406452 51.074303 C 56.520313 51.324791 56.930202 51.415878 58.114323 51.415878 C 59.32122 51.415878 59.73111 51.506966 59.822193 51.757446 C 59.936054 52.007935 60.345943 52.09903 61.438976 52.09903 C 62.440929 52.09903 63.010223 52.212883 63.23793 52.440598 C 63.465652 52.66832 64.034943 52.782173 64.923035 52.782173 C 65.742813 52.782173 66.28933 52.896027 66.334877 53.055435 C 66.403191 53.214828 67.063568 53.374237 68.019966 53.419777 C 68.885292 53.488098 69.659523 53.624725 69.727837 53.715805 C 69.796158 53.829666 70.524849 53.989067 71.367393 54.080154 C 72.209946 54.148468 72.893097 54.285095 72.893097 54.376183 C 72.893097 54.46727 73.62178 54.603897 74.532646 54.694992 C 75.443512 54.786072 76.240517 54.922699 76.30883 55.03656 C 76.377144 55.150421 77.219696 55.264282 78.198875 55.332596 C 79.178055 55.400909 80.088921 55.560303 80.248314 55.719711 C 80.384949 55.856339 81.15918 55.9702 82.001732 55.9702 C 83.84623 55.9702 85.212524 56.197914 85.053123 56.448395 C 84.98481 56.562256 86.419418 56.653343 88.263924 56.653343 C 90.131195 56.653343 91.54303 56.562256 91.474716 56.448395 C 91.315308 56.197914 92.11232 55.9702 93.228127 55.9702 C 93.706329 55.9702 94.252846 55.810791 94.43502 55.628624 C 94.639961 55.446449 95.027084 55.287048 95.345886 55.287048 C 95.641922 55.287048 95.89241 55.195961 95.89241 55.082108 C 95.89241 54.968246 96.211205 54.808846 96.575554 54.717758 C 96.962677 54.626671 97.258705 54.46727 97.258705 54.353409 C 97.258705 54.239555 97.418098 54.148468 97.600281 54.148468 C 97.782448 54.148468 98.124023 53.943527 98.328972 53.715805 C 98.533905 53.465317 98.784393 53.305923 98.898254 53.374237 C 98.989342 53.442551 99.080429 53.32869 99.080429 53.146515 C 99.080429 52.941574 99.23983 52.782173 99.421997 52.782173 C 99.604172 52.782173 99.763573 52.622772 99.763573 52.440598 C 99.763573 52.258423 99.922981 52.09903 100.105148 52.09903 C 100.287315 52.09903 100.446724 51.939621 100.446724 51.757446 C 100.446724 51.575279 100.606125 51.415878 100.788292 51.415878 C 100.970467 51.415878 101.129868 51.25647 101.129868 51.074303 C 101.129868 50.892128 101.289276 50.732727 101.471443 50.732727 C 101.676392 50.732727 101.813019 50.527786 101.813019 50.163437 C 101.813019 49.799095 101.949646 49.594147 102.154594 49.594147 C 102.336761 49.594147 102.496162 49.389206 102.496162 49.161484 C 102.496162 48.933777 102.655571 48.683289 102.837738 48.592201 C 103.019913 48.52388 103.179314 48.273392 103.179314 48.022903 C 103.179314 47.772423 103.293175 47.544708 103.429802 47.499161 C 103.771378 47.3853 103.794151 45.654663 103.452576 45.540802 C 103.293175 45.495262 103.179314 45.199234 103.179314 44.903198 C 103.179314 44.584396 103.019913 44.288368 102.837738 44.220047 C 102.610023 44.128967 102.496162 43.764618 102.496162 43.195328 C 102.496162 42.557724 102.405083 42.307236 102.154594 42.307236 C 101.92688 42.307236 101.813019 42.079521 101.813019 41.669632 C 101.813019 41.328056 101.65361 40.849854 101.471443 40.622139 C 101.289276 40.371651 101.129868 39.893448 101.129868 39.529106 C 101.129868 39.119217 101.016022 38.891502 100.788292 38.891502 C 100.560585 38.891502 100.446724 38.66378 100.446724 38.117264 C 100.446724 37.639061 100.310097 37.297485 100.105148 37.206398 C 99.9002 37.138084 99.763573 36.796516 99.763573 36.38662 C 99.763573 36.022278 99.672485 35.703476 99.558624 35.703476 C 99.444778 35.703476 99.262596 35.384674 99.19429 34.974785 C 99.103203 34.564896 98.943802 34.086693 98.829933 33.881752 C 98.420052 33.130287 97.964622 31.90062 97.827988 31.194695 C 97.736908 30.784813 97.577499 30.511551 97.463638 30.602638 C 97.349792 30.670952 97.258705 30.35215 97.258705 29.919495 C 97.258705 29.350197 97.16761 29.099709 96.91713 29.099709 C 96.689407 29.099709 96.575554 28.872002 96.575554 28.416565 C 96.575554 27.961136 96.461693 27.733414 96.233986 27.733414 C 96.029037 27.733414 95.89241 27.528473 95.89241 27.186897 C 95.89241 26.822556 95.733002 26.594833 95.391434 26.52652 C 94.79937 26.367119 93.842964 26.549294 93.842964 26.822556 C 93.842964 26.913643 93.592476 27.073036 93.273666 27.141357 C 92.954872 27.232445 92.704384 27.391838 92.704384 27.505699 C 92.704384 27.642326 92.544975 27.733414 92.362808 27.733414 C 92.180641 27.733414 92.021233 27.892822 92.021233 28.074989 C 92.021233 28.257164 91.861832 28.416565 91.679657 28.416565 C 91.49749 28.416565 91.338089 28.575966 91.338089 28.758141 C 91.338089 28.940315 91.17868 29.099709 90.996513 29.099709 C 90.814339 29.099709 90.654938 29.259117 90.654938 29.441284 C 90.654938 29.623459 90.495537 29.78286 90.313362 29.78286 C 90.131195 29.78286 89.971794 29.942261 89.971794 30.124435 C 89.971794 30.30661 90.131195 30.466003 90.313362 30.466003 C 90.541077 30.466003 90.654938 30.693726 90.654938 31.240242 C 90.654938 31.650131 90.814339 32.128334 90.996513 32.287735 C 91.17868 32.447136 91.338089 32.788712 91.338089 33.061974 C 91.338089 33.312454 91.49749 33.745117 91.679657 33.972832 C 91.861832 34.22332 92.021233 34.701523 92.021233 35.065872 C 92.021233 35.407448 92.135094 35.703476 92.248947 35.703476 C 92.385574 35.703476 92.476669 35.840103 92.476669 35.976738 C 92.476669 36.136139 92.613297 36.546021 92.795464 36.887596 C 92.977638 37.229172 93.182587 37.798462 93.273666 38.185577 C 93.364754 38.572693 93.524155 38.891502 93.638016 38.891502 C 93.751869 38.891502 93.842964 39.187531 93.842964 39.551872 C 93.842964 39.916222 93.979591 40.257797 94.18454 40.348885 C 94.366707 40.417198 94.526115 40.713226 94.526115 41.032028 C 94.526115 41.35083 94.662743 41.737953 94.822136 41.897354 C 95.004318 42.056755 95.209259 42.48941 95.300346 42.830986 C 95.368652 43.172562 95.550835 43.445816 95.664688 43.445816 C 95.801315 43.445816 95.89241 43.559677 95.89241 43.673538 C 95.89241 43.810165 96.302292 44.288368 96.803268 44.789345 C 97.304245 45.267548 97.714127 45.79129 97.714127 45.927917 C 97.714127 46.064552 98.032936 46.178406 98.397278 46.178406 C 98.852715 46.178406 99.080429 46.292267 99.080429 46.519989 C 99.080429 46.72493 99.28537 46.861557 99.558624 46.861557 C 100.014061 46.861557 100.036842 46.952644 99.945747 48.091225 C 99.85466 49.252579 99.421997 50.049576 98.875481 50.049576 C 98.738853 50.049576 98.625 50.208984 98.625 50.391159 C 98.625 50.573326 98.465599 50.732727 98.283424 50.732727 C 98.078484 50.732727 97.873535 50.892128 97.805214 51.074303 C 97.714127 51.25647 97.418098 51.415878 97.12207 51.415878 C 96.780495 51.415878 96.575554 51.552505 96.575554 51.757446 C 96.575554 51.985168 96.347832 52.09903 95.89241 52.09903 C 95.436974 52.09903 95.209259 52.212883 95.209259 52.440598 C 95.209259 52.645546 94.981537 52.782173 94.617195 52.782173 C 94.298393 52.782173 93.888512 52.941574 93.706329 53.123749 C 93.433075 53.397003 92.681602 53.465317 90.085655 53.465317 C 86.897629 53.465317 86.829308 53.465317 86.69268 52.941574 C 86.510506 52.235657 86.533279 47.476395 86.73822 47.180359 C 86.829308 47.043732 87.125336 46.861557 87.421371 46.77047 C 87.694633 46.679382 87.922348 46.497215 87.922348 46.383354 C 87.922348 46.269501 88.081749 46.178406 88.263924 46.178406 C 88.673805 46.178406 88.7649 44.447769 88.355003 44.311142 C 88.241142 44.265594 88.058975 43.810165 87.990654 43.263641 C 87.922348 42.739899 87.785721 42.307236 87.67186 42.307236 C 87.580772 42.307236 87.444145 41.988434 87.353058 41.624092 C 87.261971 41.236977 87.125336 40.940941 87.034256 40.940941 C 86.920395 40.940941 86.78376 40.508278 86.715446 39.984535 C 86.647133 39.438019 86.464958 38.98259 86.351105 38.937042 C 86.214478 38.891502 86.100616 38.595467 86.100616 38.299438 C 86.100616 37.980637 85.941216 37.684601 85.759041 37.616287 C 85.531326 37.5252 85.417465 37.160858 85.417465 36.591568 C 85.417465 35.953964 85.326385 35.703476 85.075897 35.703476 C 84.848183 35.703476 84.734322 35.475761 84.734322 35.020325 C 84.734322 34.405495 84.666008 34.337181 84.05117 34.337181 C 83.595741 34.337181 83.368027 34.451035 83.368027 34.678749 C 83.368027 34.860924 83.208626 35.020325 83.026451 35.020325 C 82.844276 35.020325 82.684875 35.179726 82.684875 35.3619 C 82.684875 35.544075 82.525475 35.703476 82.3433 35.703476 C 82.161133 35.703476 82.001732 35.794563 82.001732 35.93119 C 82.001732 36.045052 81.751244 36.204453 81.432442 36.29554 C 81.11364 36.363853 80.863152 36.568794 80.863152 36.750969 C 80.863152 36.933144 80.703751 37.069771 80.521576 37.069771 C 80.225548 37.069771 80.18 37.5252 80.18 39.893448 C 80.18 41.464691 80.271088 42.785446 80.384949 42.876526 C 80.498802 42.944847 80.680977 43.559677 80.74929 44.242828 C 80.840378 44.925972 80.999779 45.495262 81.11364 45.495262 C 81.227493 45.495262 81.318581 45.654663 81.318581 45.836838 C 81.318581 46.132866 81.910645 46.315033 82.525475 46.201187 C 82.639336 46.178406 82.662102 46.269501 82.571022 46.383354 C 82.502708 46.519989 82.798737 46.679382 83.254166 46.77047 L 84.05117 46.907104 L 84.05117 53.510864 L 82.183907 53.419777 C 80.977005 53.374237 80.293861 53.23761 80.225548 53.055435 C 80.18 52.87326 79.587936 52.782173 78.47213 52.782173 C 77.28801 52.782173 76.695946 52.691086 76.445457 52.440598 C 76.240517 52.212883 75.671227 52.09903 74.851448 52.09903 C 73.872276 52.09903 73.576241 52.030716 73.576241 51.757446 C 73.576241 51.506966 73.302979 51.415878 72.551521 51.415878 C 71.982231 51.415878 71.526794 51.324791 71.526794 51.188156 C 71.526794 51.074303 71.276306 50.914902 70.957504 50.823814 C 70.410988 50.687187 70.388214 50.618874 70.388214 48.774368 C 70.388214 46.907104 70.410988 46.861557 70.934738 46.861557 C 71.686195 46.861557 72.232719 46.633842 72.073311 46.383354 C 72.004997 46.269501 72.164406 46.178406 72.414886 46.178406 C 72.688148 46.178406 72.893097 46.019012 72.893097 45.836838 C 72.893097 45.654663 73.05249 45.495262 73.234665 45.495262 C 73.462379 45.495262 73.576241 45.267548 73.576241 44.834885 C 73.576241 44.470543 73.690094 44.128967 73.849503 44.08342 C 74.145531 43.969566 74.373245 41.669632 74.168297 40.827087 C 73.963356 40.030083 73.576241 40.098396 73.576241 40.940941 C 73.576241 41.396378 73.462379 41.624092 73.234665 41.624092 C 73.05249 41.624092 72.893097 41.783493 72.893097 41.965668 C 72.893097 42.147835 72.733688 42.307236 72.551521 42.307236 C 72.369347 42.307236 72.209946 42.466637 72.209946 42.648811 C 72.209946 42.830986 72.050545 42.990387 71.86837 42.990387 C 71.686195 42.990387 71.526794 43.149788 71.526794 43.331955 C 71.526794 43.51413 71.367393 43.673538 71.185226 43.673538 C 71.003052 43.673538 70.843651 43.764618 70.843651 43.878479 C 70.843651 43.99234 70.547615 44.151733 70.1605 44.242828 C 69.796158 44.333908 69.477356 44.470543 69.477356 44.56163 C 69.477356 44.675484 69.044693 44.812119 68.520943 44.880432 C 67.974426 44.948746 67.518997 45.13092 67.47345 45.244774 C 67.42791 45.404175 66.517044 45.495262 65.127975 45.495262 C 63.852768 45.495262 62.896358 45.404175 62.964676 45.290314 C 63.124077 45.039825 62.327072 44.812119 61.234035 44.812119 C 60.755829 44.812119 60.368713 44.721024 60.368713 44.60717 C 60.368713 44.493317 60.072681 44.288368 59.708336 44.174515 C 59.34399 44.03788 58.843018 43.741852 58.615303 43.51413 C 58.387585 43.286423 57.909382 42.922073 57.567806 42.694351 C 57.226234 42.48941 56.952972 42.125069 56.952972 41.897354 C 56.952972 41.555779 56.907433 41.555779 56.725258 41.851807 C 56.543087 42.125069 56.497543 42.056755 56.497543 41.555779 C 56.497543 41.168655 56.383682 40.940941 56.155972 40.940941 C 55.928253 40.940941 55.814396 40.713226 55.814396 40.257797 C 55.814396 39.825134 55.700535 39.574646 55.495594 39.574646 C 55.313419 39.574646 55.108479 39.438019 55.040157 39.278618 C 54.9263 39.050903 54.88076 39.050903 54.766903 39.278618 C 54.698586 39.438019 54.448101 39.574646 54.197613 39.574646 C 53.969894 39.574646 53.764954 39.734047 53.764954 39.916222 C 53.764954 40.098396 53.628319 40.257797 53.446148 40.257797 C 53.263973 40.257797 53.081806 40.417198 52.990715 40.599365 C 52.922401 40.78154 52.671917 40.940941 52.421429 40.940941 C 52.17094 40.940941 51.943222 41.054802 51.897678 41.168655 C 51.852135 41.30529 51.419476 41.464691 50.918499 41.555779 C 50.417526 41.624092 49.939323 41.806267 49.848236 41.942894 C 49.757149 42.102295 48.550251 42.216148 46.796841 42.261696 C 43.836536 42.352783 42.720726 42.216148 42.948441 41.851807 C 43.039528 41.715179 42.697956 41.624092 42.17421 41.624092 C 41.491062 41.624092 41.240574 41.533005 41.240574 41.282516 C 41.240574 41.054802 41.012856 40.940941 40.557423 40.940941 C 40.101994 40.940941 39.874275 40.827087 39.874275 40.599365 C 39.874275 40.417198 39.805962 40.280563 39.714874 40.280563 C 39.145588 40.371651 38.735695 40.21225 38.735695 39.916222 C 38.735695 39.734047 38.576298 39.574646 38.394123 39.574646 C 38.211948 39.574646 38.052547 39.415245 38.052547 39.23307 C 38.052547 39.050903 37.89315 38.891502 37.710976 38.891502 C 37.528801 38.891502 37.3694 38.777641 37.3694 38.66378 C 37.3694 38.322212 36.435764 37.456886 36.276363 37.639061 C 35.980331 37.912323 36.094193 40.098396 36.412994 40.189484 C 36.549625 40.257797 36.686253 40.439964 36.686253 40.622139 C 36.686253 40.827087 36.936741 40.940941 37.3694 40.940941 C 37.756519 40.940941 38.052547 41.032028 38.052547 41.168655 C 38.052547 41.282516 38.439667 41.441917 38.91787 41.533005 C 39.988136 41.737953 40.101994 41.897354 40.101994 43.445816 C 40.101994 45.199234 39.714874 45.495262 37.460487 45.495262 C 36.390224 45.495262 35.798161 45.404175 35.889248 45.267548 C 35.980331 45.108139 34.135838 45.039825 30.492378 45.039825 C 27.440985 45.039825 24.822252 44.948746 24.640079 44.834885 C 23.979702 44.402222 24.048016 40.940941 24.731165 40.940941 C 24.91334 40.940941 25.072739 40.804314 25.072739 40.622139 C 25.072739 40.439964 25.209368 40.303337 25.368769 40.326111 C 26.552893 40.371651 27.80533 40.21225 27.714245 40.052849 C 27.645931 39.938995 27.737017 39.802361 27.919188 39.711281 C 28.10136 39.64296 28.260763 39.438019 28.260763 39.255844 C 28.260763 39.073669 28.397392 38.891502 28.556793 38.845955 C 28.852825 38.732101 29.103312 33.289688 28.852825 31.946159 C 28.716196 31.217476 28.693424 31.194695 27.122181 31.058067 C 26.234091 30.966988 25.528172 30.807579 25.528172 30.670952 C 25.528172 30.39769 20.586735 30.39769 20.404562 30.670952 C 20.336246 30.807579 19.562012 30.966988 18.696692 31.058067 L 17.10268 31.217476 L 17.10268 35.270813 C 17.10268 40.21225 17.125452 40.257797 19.493698 40.257797 C 20.655048 40.257797 20.973852 40.326111 20.973852 40.599365 C 20.973852 40.78154 21.133253 40.940941 21.315426 40.940941 C 21.588684 40.940941 21.657 41.328056 21.657 42.990387 C 21.657 44.698257 21.588684 45.039825 21.292654 45.039825 C 21.110481 45.039825 21.019394 45.13092 21.087709 45.267548 C 21.178795 45.404175 20.700594 45.495262 19.835272 45.495262 C 18.810551 45.495262 18.423433 45.586349 18.332346 45.836838 C 18.241261 46.087326 17.854143 46.178406 17.057137 46.178406 C 16.351217 46.178406 15.804699 46.315033 15.599754 46.519989 C 15.394812 46.72493 14.825521 46.861557 14.25623 46.861557 C 13.595855 46.861557 13.231508 46.975418 13.140423 47.203133 C 13.072107 47.3853 12.753306 47.544708 12.434504 47.544708 C 12.092929 47.544708 11.683041 47.704109 11.500868 47.886276 C 11.295924 48.068451 10.840491 48.227859 10.476146 48.227859 C 10.089028 48.227859 9.81577 48.341705 9.81577 48.52388 C 9.81577 48.683289 9.54251 48.842682 9.223708 48.865456 C 8.904905 48.888229 8.495017 49.070404 8.312844 49.252579 C 8.107901 49.434753 7.81187 49.594147 7.629696 49.594147 C 7.447523 49.594147 7.310894 49.685234 7.310894 49.821869 C 7.310894 49.935722 7.014863 50.049576 6.627746 50.049576 L 5.944598 50.049576 L 5.944598 45.722977 C 5.944598 42.830986 6.035685 41.396378 6.195086 41.396378 C 6.308943 41.396378 6.354486 41.282516 6.286172 41.168655 C 6.195086 41.032028 6.582203 40.940941 7.288122 40.940941 C 8.176214 40.940941 8.449474 40.849854 8.449474 40.599365 C 8.449474 40.417198 8.586103 40.257797 8.745504 40.257797 C 8.904905 40.257797 9.200936 40.052849 9.428652 39.802361 C 9.792998 39.369705 9.81577 38.344978 9.81577 27.05027 L 9.81577 14.753609 L 9.200936 14.070457 C 8.722733 13.523941 8.426702 13.387306 7.67524 13.387306 C 6.104 13.387306 5.944598 13.022964 5.944598 9.288422 L 5.944598 6.100403 L 21.657 6.100403 L 21.657 9.402283 Z M 62.98745 30.147202 C 63.306252 29.851181 63.556732 29.509605 63.556732 29.350197 C 63.556732 29.190804 64.148796 29.099709 65.264603 29.099709 C 66.630898 29.099709 66.972473 29.16803 66.972473 29.441284 C 66.972473 29.623459 67.131882 29.78286 67.314049 29.78286 C 67.518997 29.78286 67.655624 29.987808 67.655624 30.329376 C 67.655624 30.625412 67.815025 30.944214 68.019966 31.012527 C 68.316002 31.126381 68.361542 31.559044 68.293228 34.041153 C 68.247688 36.090591 68.133827 36.955917 67.951653 37.024231 C 67.769485 37.069771 67.655624 37.47966 67.655624 38.00341 C 67.655624 38.595467 67.564537 38.891502 67.336823 38.891502 C 67.177422 38.891502 66.972473 39.187531 66.90416 39.574646 L 66.767532 40.257797 L 64.809174 40.257797 C 63.556732 40.257797 62.896358 40.16671 62.98745 40.030083 C 63.055763 39.893448 62.964676 39.734047 62.782501 39.665733 C 62.57756 39.59742 62.418156 39.392471 62.418156 39.210304 C 62.418156 39.02813 62.258759 38.891502 62.076584 38.891502 C 61.780552 38.891502 61.735008 38.390526 61.735008 35.680702 C 61.735008 33.153053 61.803322 32.401596 62.076584 32.151108 C 62.258759 31.946159 62.418156 31.53627 62.418156 31.240242 C 62.418156 30.92144 62.668648 30.443237 62.98745 30.147202 Z M 44.656311 24.203819 C 44.656311 24.385994 44.496914 24.545395 44.314739 24.545395 C 44.132568 24.545395 43.973164 24.704788 43.973164 24.886971 C 43.973164 25.069145 43.813766 25.228539 43.631592 25.228539 C 43.403873 25.228539 43.290016 25.456261 43.290016 25.888916 C 43.290016 26.253265 43.153385 26.594833 43.016758 26.640381 C 42.629639 26.777016 42.584099 34.724297 42.971214 34.974785 C 43.107845 35.065872 43.290016 35.3619 43.381104 35.635162 C 43.472187 35.93119 43.654362 36.158905 43.768219 36.158905 C 43.88208 36.158905 43.973164 36.29554 43.973164 36.477707 C 43.973164 36.796516 44.633541 37.069771 45.521633 37.069771 C 45.794891 37.069771 46.022606 37.160858 46.022606 37.297485 C 46.022606 37.411346 46.273098 37.5252 46.5919 37.5252 C 46.910702 37.5252 47.161186 37.411346 47.161186 37.297485 C 47.161186 37.160858 47.479988 37.069771 47.844334 37.069771 C 48.29977 37.069771 48.527481 36.955917 48.527481 36.728195 C 48.527481 36.546021 48.686886 36.38662 48.869057 36.38662 C 49.051231 36.38662 49.210629 36.181679 49.210629 35.93119 C 49.210629 35.680702 49.370033 35.407448 49.552204 35.339127 C 49.802692 35.225273 49.893776 34.838158 49.893776 33.904518 C 49.91655 33.153053 50.053181 32.447136 50.235352 32.196648 C 50.713558 31.559044 50.713558 29.099709 50.235352 29.099709 C 49.962097 29.099709 49.893776 28.780907 49.893776 27.505699 C 49.893776 26.230492 49.825462 25.91169 49.552204 25.91169 C 49.370033 25.91169 49.210629 25.706741 49.210629 25.456261 C 49.210629 25.205772 49.051231 25.000824 48.846283 25.000824 C 48.664116 25.000824 48.573029 24.886971 48.641342 24.773109 C 48.709656 24.636475 48.618572 24.545395 48.413624 24.545395 C 48.231457 24.545395 48.003738 24.385994 47.935425 24.203819 C 47.821564 23.953331 47.411674 23.862244 46.227554 23.862244 C 44.975113 23.862244 44.656311 23.930557 44.656311 24.203819 Z"/>
</svg>
