<svg height="76" viewBox="0 0 128 76" width="128" xmlns="http://www.w3.org/2000/svg"><path d="m4.714932.521362c-.182173.182167-.592062.341576-.910864.341576-.364345 0-.592061.136627-.592061.341568 0 .182175-.113859.341576-.250488.341576-.318802 0-1.43461 1.13858-1.639555 1.639549-.068315.227722-.227716.409897-.341574.409897s-.273259.409889-.364345.910858c-.068315.500976-.250488.910866-.364346.910866-.136629 0-.227716 1.594017-.227716 4.212745 0 2.527649.091087 4.212746.227716 4.212746.113858 0 .273259.364349.364346.797005.068314.432663.227716.797004.318802.797004.113858 0 .273259.204949.341574.478211.182173.523742.910864 1.343521 1.229666 1.343521.113858 0 .250488.159401.341574.341576.068315.182167.341574.341575.592062.341575.455431 0 .455431.113854.455431 9.085861 0 9.040322 0 9.108643-.478203 9.24527-.592061.204941-2.254388 1.890045-2.254388 2.299927 0 .182175-.091087.318809-.227716.318809-.113858 0-.227716.182167-.227716.409882 0 .227722-.159401.614838-.341574.865326-.455432.592064-.500975 10.474937-.045543 10.611565.159401.068313.273259.546516.273259 1.320755 0 .77423-.113858 1.252433-.273259 1.320747-.43266.136635-.387117 2.709816.045543 3.142479.182173.204941.341574.592064.341574.910866 0 .296028.113858.546516.227716.546516.136629 0 .227716.136627.227716.318802 0 .409897 1.981129 2.413788 2.391018 2.413788.159401 0 .341573.113861.387117.250488.136629.387116 4.941436.364349 5.169152 0 .113858-.159393.614833-.341568 1.13858-.409882.500975-.068313.933635-.204948.933635-.318801 0-.091095.728692-.250489 1.594012-.341584.888092-.068313 1.594013-.25048 1.594013-.341568 0-.113861 2.003899-.20494 4.440461-.20494 2.436559 0 4.440462.091079 4.440462.20494 0 .091088.933634.250489 2.094986.341568 1.161352.091095 2.208845.250489 2.345474.341584.113857.113853.910864.273254 1.776184.364341.842548.068314 1.525698.227715 1.525698.341576 0 .09108.523746.227714 1.16135.273254.637608.068314 1.229668.204941 1.320755.318802.068314.113861.387116.227722.705917.273262 1.434613.159401 2.049447.318802 1.935585.523751-.091083.113853.296032.20494.910862.20494.705925 0 1.070271.113861 1.161354.341568.091088.250489.478203.341584 1.252438.341584.842552 0 1.115807.091079 1.115807.341568 0 .250488.250492.341575.933639.341575.523747 0 1.070263.159401 1.252438.341576.204941.182175.683147.341568 1.115806.341568.40989 0 .797005.113861.842549.250488.045543.113861.500976.296036 1.047493.364349.52375.068314.956409.204941.956409.318802s.409886.273262.910866.341576c.500973.091087.910858.227715.910858.318802s.432663.227714.933636.296028c.52375.068314 1.024723.227722 1.093036.341576.068322.113853.546521.273262 1.047493.341575.500981.091088.933636.250489.97918.387116.045543.113861.432663.227722.865322.227722.500973 0 .842548.136627.910862.341568.091091.227722.455437.341576 1.138584.341576.728691 0 1.001949.091087 1.001949.341575s.273262.341568 1.00195.341568c.683151 0 1.047493.113861 1.13858.341576.068314.204948.432659.341575.933636.341575.455429 0 .979179.159401 1.16135.341576.204945.182167.751461.341576 1.252438.341576.478202 0 .888092.091079.888092.227714 0 .113854.387123.273262.865318.341576.455437.068313 1.001953.227707 1.229675.341568.204941.113861.888085.273262 1.525688.364349.637612.09108 1.161354.227715 1.161354.318802 0 .09108.523751.227715 1.161354.273254.637604.068314 1.22966.227723 1.320755.341584.068314.136627.797005.29602 1.616776.364341.797012.068314 1.50293.227715 1.54847.364342.045547.136627.705925.250488 1.525695.250488.97918 0 1.54847.113861 1.798958.341576.250488.250488.888092.341576 2.595963.341576 1.75341 0 2.3227.068313 2.550422.341568.40989.500976 7.514626.47821 7.514626-.022766 0-.250489.364342-.318802 1.457382-.318802 1.093041 0 1.480156-.091088 1.594009-.341576.068314-.227715.432656-.341576 1.047493-.341576.61483 0 .97918-.113861 1.047493-.341568.091095-.204948.432671-.341583.797005-.341583.36435 0 .660385-.09108.660385-.204941s.318795-.273254.683144-.364349c.387123-.09108.683151-.227707.683151-.341568s.318794-.250488.683151-.341576c.387116-.091087.683144-.227714.683144-.341575 0-.09108.250481-.250489.56929-.318802.318794-.09108.569283-.250488.569283-.364342 0-.136635.159408-.227714.341575-.227714s.341576-.159409.341576-.341576c0-.204948.204941-.341576.569298-.341576.318794 0 .637588-.159401.705909-.341575.091088-.182167.273255-.341576.455437-.341576.182167 0 .318794-.159393.318794-.341568s.113861-.341575.250489-.341575c.136627 0 .546524-.318802.933639-.683144.364342-.387123.819779-.683151 1.001946-.683151.182182 0 .318809-.159409.318809-.341576 0-.182175.159401-.341576.341576-.341576.182167 0 .341568-.159401.341568-.341568 0-.182174.113861-.341583.227714-.341583.296036 0 1.138588-.842544 1.138588-1.13858 0-.113854.068306-.204941.182167-.182167.250489.091087 1.184128-.797005 1.047501-1.001946-.068321-.091095.04554-.182174.227707-.182174.204948 0 .364357-.159409.364357-.341584 0-.182167.204933-.523742.455421-.728683.250489-.227722.455437-.500977.455437-.614838s.227715-.409881.523743-.683143.592064-.683144.683151-.888092c.09108-.227715.250488-.341576.387115-.273262.136628.091087.227723-.113862.227723-.432663 0-.364342.136627-.592057.341575-.592057.182167 0 .341568-.136627.341568-.318802 0-.182174.159394-.364349.341576-.455429.182167-.068321.341575-.387123.341575-.705925 0-.364341.136628-.56929.341576-.56929.204933 0 .341568-.204948.341568-.546516 0-.296036.159393-.592056.341576-.683151.182174-.068314.341575-.364342.341575-.683144 0-.296028.159394-.592064.341576-.683144.182167-.068321.341576-.387123.341576-.705925s.091079-.56929.204933-.56929c.113861 0 .273262-.296028.364349-.683143.091087-.387124.227715-.683152.341576-.683152s.250488-.296035.341575-.683151c.09108-.364349.250489-.683151.364334-.683151.113862 0 .204949-.250481.204949-.569283 0-.318809.159408-.637611.341576-.705925.182167-.091079.341575-.364341.341575-.66037 0-.273262.159401-.637603.341568-.797012.182175-.159393.341576-.592056.341576-.956406 0-.364341.136627-.705917.341575-.774231.204949-.091087.341576-.432662.341576-.797004 0-.432663.113861-.660378.341576-.660378.20494 0 .341568-.227722.341568-.592064 0-.318801.159408-.728691.341575-.910865.182175-.204941.341576-.637604.341576-1.001946 0-.364349.159401-.683151.341575-.774238.182168-.068314.341576-.387116.341576-.705918s.09108-.56929.204941-.56929.273254-.296028.364349-.683144c.091088-.387123.227715-.683151.341576-.683151.091087 0 .227714-.409889.318802-.910866.068313-.500969.250488-.910865.364349-.910865.136627 0 .227707-.318802.227707-.683144 0-.432663.113869-.683151.318802-.683151.182182 0 .387115-.250481.455437-.56929.091079-.341568.364349-.61483.705925-.705918.318794-.068313.569282-.227714.569282-.318802 0-.113861.204949-.273262.478203-.341575.500977-.159401 1.343529-.910858 1.343529-1.206894 0-.091088.159393-.341576.341575-.546517.182167-.227714.409874-.819778.478203-1.320755.09108-.500969.227707-.910865.341568-.910865s.204956-1.890038.204956-4.212738c0-2.413796-.091095-4.212746-.204956-4.212746s-.273254-.318802-.364349-.683151c-.09108-.387116-.227707-.683144-.341568-.683144-.091088 0-.250496-.250488-.318802-.56929-.159401-.614838-.888092-1.480156-1.275208-1.480156-.113861 0-.227714-.113861-.227714-.250488 0-.113854-.091095-.159401-.227722-.091088-.113854.068314-.227715.022774-.227715-.091087 0-.136627-.136627-.250488-.318809-.250488-.182167 0-.364334-.136628-.409882-.296028-.09108-.204949-1.685104-.296029-6.740395-.341576l-6.649307-.068314-.796997-.797004c-.455437-.432663-1.115822-.910866-1.480156-1.047493-.387115-.113861-.683151-.318802-.683151-.432663 0-.113854-3.757309-.204949-8.88092-.204949-7.44632 0-8.880921-.04554-8.880921-.318802 0-.182167-.159408-.364341-.341575-.455429-.27327-.091087-.341576-.56929-.341576-2.299934 0-1.571236-.068321-2.1633-.273262-2.1633-.159393 0-.500969-.409881-.728691-.910865-.227715-.500969-.523751-.842545-.61483-.774231-.113861.068313-.204949 0-.204949-.113854 0-.136635-.159401-.250488-.341575-.250488-.182167 0-.341576-.159401-.341576-.341576 0-.227722-.227707-.341575-.66037-.341575-.387123 0-.705925-.136628-.797005-.341576-.182174-.52375-16.304466-.500969-16.304466 0 0 .227722-.227714.341576-.683151.341576-.455429 0-.683144.113853-.683144.341575 0 .182175-.159401.341576-.341575.341576-.182167 0-.341576.159393-.341576.341568s-.159401.341575-.341575.341575c-.182168 0-.341568.159401-.341568.341576s-.091088.341576-.227715.341576c-.113861 0-.296036.273262-.364349.61483-.091088.364349-.273255.705925-.40989.797004-.159401.113861-.273254 1.707871-.318794 4.622635-.068321 3.529602-.136635 4.440468-.387123 4.440468-.159401 0-.341576.113854-.387115.250481-.045548.159401-1.070267.296028-2.641507.387123-2.254387.091087-2.550418.068313-2.550418-.273262 0-.204949-.159401-.364342-.341576-.364342-.182171 0-.341572-.159408-.341572-.341575 0-.182175-.204948-.341576-.455433-.341576-.250488 0-.523746-.159401-.59206-.341576-.091087-.182174-.273262-.341575-.455433-.341575-.182174 0-.318802-.159401-.318802-.341568 0-.182175-.159404-.341576-.341571-.341576-.182179 0-.341576-.091087-.341576-.204948 0-.113854-.296032-.273262-.683148-.364342-.364345-.091087-.683147-.227722-.683147-.341576 0-.091087-.409889-.227714-.910866-.318802-.500972-.068313-.910866-.227722-.910866-.341575 0-.113854-.432659-.250489-.956401-.318802-.546521-.068314-1.001953-.250488-1.047493-.36435-.045552-.159393-.93364-.250488-2.299935-.250488-2.846454 0-2.983082-.136627-2.983082-2.823677 0-1.411835-.091083-2.026672-.341571-2.27716-.182171-.182168-.341576-.500969-.341576-.683144 0-.204941-.159397-.364349-.341572-.364349-.182171 0-.341575-.113854-.341575-.250481 0-.296028-.569291-.888092-.865319-.888092-.136631 0-.273262-.159401-.364345-.341576-.068314-.182174-.273262-.341575-.455433-.341575-.182175 0-.364346-.136628-.409889-.296029-.091088-.20494-1.844502-.296035-7.5374-.341575-6.353273-.04554-7.446312-.113854-7.446312-.387116 0-.182174-.091085-.341575-.204942-.341575-.113859 0-.296032-.227715-.364346-.500977-.091087-.250488-.432663-.728691-.774237-1.047493-.318801-.296028-.569288-.637604-.546516-.751465.045542-.113853-.136631-.20494-.387117-.20494-.250489 0-.455433-.159401-.455433-.341576 0-.227715-.227715-.341568-.774233-.341568-.478205 0-.819779-.136635-.910866-.341576-.113855-.296035-1.297981-.341575-8.767063-.341575-7.377997 0-8.69875.04554-8.994781.341575zm16.942068 8.880921c0 2.778137-.045544 3.30188-.341574 3.30188-.182173 0-.341574.159401-.341574.341575 0 .273255-.318804.341568-1.43461.341568-1.320753 0-1.480154.045548-1.935587.683151-.478203.637604-.500975.888092-.500975 5.237473v4.554314h3.8484c3.210795 0 3.871172.045547 3.985031.341575.091084.250489.478201.341576 1.389067.341576.683148 0 1.252436.09108 1.252436.227714 0 .113862.318804.227715.705919.227715h.728693l-.113859-2.778137c-.068316-1.776184-.204943-2.800904-.387116-2.869217-.136631-.04554-.250488-.387116-.250488-.751465 0-.592056-.091085-.66037-.683149-.66037-.455433 0-.683148-.113861-.683148-.341575 0-.273263-.296032-.341576-1.252437-.341576-1.229666 0-1.229666 0-1.366295-.774239-.091087-.432655-.113859-1.844497-.068316-3.142479.045544-1.844497.159401-2.459327.455431-2.755363.341576-.341576 1.138583-.387116 7.56017-.387116 4.645408 0 7.195823.091088 7.195823.227715 0 .113861.159401.227714.341576.227714.296032 0 .341576.455437.341576 2.778138 0 3.757309-.022774 3.82563-1.275212 3.82563-.683147 0-1.047493.113853-1.13858.341576-.091084.182167-.341572.341575-.569286.341575-.227719 0-.432663.136627-.432663.318802 0 .182167-.136628.364342-.273259.409889-.204944.068314-.296032.796997-.296032 2.504868 0 1.343529.068318 2.482101.159401 2.573196.159401.182167 1.093037-.683151 1.093037-1.024719 0-.136635.159401-.227722.341576-.227722.182174 0 .341571-.159401.341571-.341576s.159401-.341568.341576-.341568.341572-.159401.341572-.341575c0-.182175.159401-.341576.341576-.341576.182174 0 .341571-.091087.341571-.227715 0-.113861.250492-.273262.569294-.364349.318802-.068314.569287-.227715.569287-.318802 0-.113853.318805-.250481.683151-.341575.387115-.09108.683147-.250481.683147-.364342s.273259-.204941.637604-.204941c.341576 0 .910862-.159409 1.275211-.341576.842549-.455436 3.529595-.455436 4.372143 0 .36435.182167 1.047497.341576 1.5257.341576.455429 0 .842544.09108.842544.204941s.318806.273262.683152.364342c.387119.091094.683147.250488.683147.364349s.068317.182175.182175.159401c.54652-.113854 3.005851 1.958359 3.005851 2.527649 0 .136627.159398.250488.341572.250488.182171 0 .341576.159393.341576.341568 0 .182182.159397.341576.341576.341576.20494 0 .341571.227722.341571.592064 0 .318801.159401.728691.341576.910858.182167.204948.341572.546524.341572.797012 0 .364342.091087.432655.500973.296028.455436-.136627.683147-.296028 1.389068-.910866.159405-.136627.52375-.341568.797009-.409881.273254-.091095.500972-.273262.500972-.387116 0-.113868.341576-.204948.774235-.204948.432663 0 .933636-.159401 1.13858-.341576.40989-.409889 4.599865-.500969 4.736493-.091087.045547.136627.56929.296036 1.161354.364349.56929.068314 1.001945.204941.933632.318802-.068314.113854 0 .204941.159401.204941.409889 0 2.254386.956406 2.254386 1.184128 0 .091079.159401.182167.341576.182167s.341576.159401.341576.341575c0 .182175.159401.341576.341575.341576.182167 0 .341576.159401.341576.341568 0 .182175.136627.341576.318802.341576.159393 0 .387115.341575.478195.728691.136627.660377.182182.705925.341576.296036.227722-.523751.296035-9.905648.091087-10.452164-.068314-.204949-.387116-.364342-.683151-.364342-.341568 0-.546509-.136635-.546509-.341575 0-.250489-.273262-.341576-1.024727-.341576-.751457 0-1.024719-.091087-1.024719-.341576 0-.182174-.091095-.341575-.227722-.341575-.136628 0-.227715-1.070259-.227715-2.73259 0-.267563-.002548-.515572-.004913-.745445-.01178-1.145668-.018929-1.841019.317329-2.262169.519219-.650299 1.857208-.646858 5.261208-.638108.424331.001091.880768.002266 1.371719.002266 3.87117 0 6.03447.091088 6.03447.227715 0 .113861.159401.227714.341568.227714.296035 0 .341575.523751.341575 3.301888v3.30188h-1.115806c-.774231 0-1.161347.091087-1.252442.341576-.068313.182167-.341568.341575-.592056.341575-.273262 0-.409889.113854-.341576.227707.068314.136635-.022766.296036-.20494.364349-.318802.113861-.36435.97918-.36435 6.831475v6.694854l.637604-.273262c.341576-.159401 1.001953-.660377 1.457382-1.13858.478211-.478203.956414-.865318 1.093041-.865318.113861 0 .52375-.296036.910866-.683151.387115-.364342.797004-.683144.910865-.683144.136627 0 .227707-.159401.227707-.341576 0-.182167.159409-.341575.341576-.341575.182175 0 .341575-.136628.341575-.318802 0-.182167.136635-.387116.296029-.432656.432663-.182174-.296029-.614837-1.02472-.614837-.364341 0-.637603-.113854-.637603-.227715 0-.136627-.159401-.227714-.341576-.227714-.296028 0-.341576-.523751-.341576-3.301888 0-2.778129.045548-3.301872.341576-3.301872.182175 0 .341576-.159409.341576-.341576 0-.296028 1.320755-.341575 10.474937-.341575s10.47493.045547 10.47493.341575c0 .182167.159408.341576.341575.341576.296036 0 .341576.500969.341576 3.119705v3.142479l-.705925.387116c-.387115.227722-.956406.409889-1.252434.409889-.455436 0-.546524.113861-.546524.683151 0 .364342.091088.683144.22773.683144.113846 0 .296021.409897.364334.910865.091088.500977.227715.910866.31881.910866.091087 0 .25048.36435.318802.797005.091079.432663.250488.797005.364349.797005.136627 0 .227707.250488.227707.546524 0 .318802.159408.705917.341575.910858.182175.182175.341576.637604.341576 1.024719 0 .478211.113861.705925.341576.705925.227714 0 .341575.227715.341575.660378 0 .364341.159401.819778.341568 1.024719.182175.182175.341576.56929.341576.865318 0 .296036.250488.751465.546524 1.047493l.546509.500977.159401-.728691c.091087-.40989.250488-.797005.364349-.865319.091087-.068313.250488-.478203.318802-.910866.068314-.432662.227722-.842544.341576-.910865.113861-.068314.250488-.387116.296028-.683144s.204948-.592064.341575-.637604c.159401-.045547.273262-.296035.273262-.56929 0-.797005.250481-1.525703.478203-1.389068.113854.068313.204949-.341576.204949-.910866s-.091095-1.047493-.227723-1.047493c-.113853 0-.227714-.159401-.227714-.341576 0-.227714-.227715-.341575-.660385-.341575-.364334 0-.70591-.136628-.796997-.341568-.068322-.182175-.273262-.341576-.478203-.341576-.182175 0-.341568-.204941-.341568-.455429s-.091103-.455437-.22773-.455437-.227707-.956405-.227707-2.391014c0-1.320755.09108-2.391014.204941-2.391014.113853 0 .250496-.31881.341576-.683151l.136627-.683152h6.14833c6.512673 0 6.717621.022774 6.831482 1.047493.022767.227715.04554 1.685105.022767 3.210793-.022767 2.322708-.091088 2.800911-.364342 2.800911-.182167 0-.341576.159401-.341576.341576 0 .250488-.250488.341568-.910858.341568-.660385 0-.910873.091095-.910873.341575 0 .182175-.159401.341576-.341568.341576-.227715 0-.341576.227714-.341576.683143 0 .409897-.113853.683152-.296036.683152-.182167 0-.318794.341575-.341568.842552-.045547.478203-.204948.933632-.387123 1.047493-.182167.091087-.341568.432655-.341568.728691 0 .318802-.091087.56929-.227714.56929-.113861 0-.296029.409889-.36435.910866-.091087.500976-.227714.910858-.341575.910858-.113854 0-.204934.136635-.204934.273262-.022781.159401-.204948.705917-.455436 1.206894-.250489.500977-.432663 1.047493-.455437 1.184128 0 .159401-.091087.296028-.204948.296028-.113846 0-.250473.409889-.341576.910866-.068306.500969-.250473.910858-.364334.910858-.136627 0-.227715.250488-.227715.56929s-.159401.637604-.341575.705917c-.204949.091088-.341576.432663-.341576.797005 0 .432663-.113861.660385-.341568.660385-.250488 0-.341576.250481-.341576.910858 0 .660378-.091094.910866-.341575.910866-.227722 0-.341576.227715-.341576.683144 0 .455436-.113861.683151-.341568.683151-.204948 0-.341575.227722-.341575.592056 0 .31881-.159409.728699-.341576.910874-.182182.20494-.341576.546516-.341576.796997 0 .227722-.091095.432663-.227722.432663-.113853 0-.273254.250488-.364342.56929-.068313.318802-.227722.56929-.341568.56929-.113868 0-.204948.204948-.204948.432663 0 .250488-.159409.592056-.341576.774231-.159401.182175-.387115.592064-.478202.933639-.068314.318802-.227723.592057-.31881.592057-.09108 0-.250488.250488-.318794.56929-.091087.318802-.250488.56929-.36435.56929-.136627 0-.227714.159409-.227714.341576 0 .182174-.159401.341575-.341576.341575-.20494 0-.341568.204941-.341568.569291 0 .318801-.159408.637603-.341575.705917-.182175.091087-.341576.273262-.341576.455429 0 .182175-.159401.318802-.341576.318802-.182167 0-.341575.159408-.341575.341583 0 .182167-.159401.341568-.36435.341568-.182167 0-.273254.113861-.204933.227722.068306.136627-.022773.296028-.204948.364342-.204949.068314-.364349.273262-.364349.455437 0 .182167-.159401.318802-.341576.318802-.182167 0-.341576.136627-.341576.318801 0 .45543-3.165245 3.552369-3.620681 3.552369-.113854 0-.250481.159393-.341576.341568-.068306.182174-.273255.341575-.478203.341575-.182167 0-.341568.159401-.341568.341576s-.159408.341568-.341576.341568c-.182174 0-.341575.091095-.341575.227722 0 .113861-.250488.273254-.546524.364349-.318794.068314-.614823.273255-.683144.455429-.068306.182175-.273254.318802-.478203.318802-.182167 0-.341575.09108-.341575.204941s-.227707.296036-.500977.387116c-.29602.091095-.569282.227722-.637596.341583-.068314.113853-.387123.227707-.683144.273254-.296035.045548-.592063.204941-.637603.341568-.045548.159409-.364357.27327-.728691.27327-.364357 0-.797013.159393-1.001961.341568-.182167.182175-.728691.341576-1.252434.341576-.683144 0-.933632.091087-.933632.341575 0 .296028-.683151.341568-4.873131.341568-3.666221 0-4.895889-.068313-4.964203-.273254-.068313-.182175-.774231-.318802-2.026672-.36435-1.047493-.068313-1.981132-.182174-2.049446-.296028-.068314-.113853-.797005-.273262-1.639557-.364342-.842544-.068313-1.525688-.204948-1.525688-.318801 0-.091095-.728691-.250489-1.616791-.341584-.888092-.091079-1.502922-.227707-1.343521-.318802.136627-.091079-.318802-.227706-1.024719-.296028-.705925-.068313-1.411843-.227714-1.54847-.341575-.159401-.113854-.751465-.296028-1.343521-.364342-.614838-.091087-1.09304-.250488-1.09304-.341576 0-.113861-.523751-.250488-1.184128-.318802-.637604-.091087-1.229664-.227714-1.297978-.341568-.068313-.113861-.546516-.273269-1.047493-.341583-.500972-.091079-.933639-.250488-.979179-.387115-.045544-.113854-.364346-.227715-.728691-.227715-.842548 0-1.389069-.227714-1.229668-.478203.068318-.113861-.296028-.20494-.819774-.20494-.546524 0-1.093037-.159409-1.275212-.341584-.20494-.182167-.683147-.341568-1.115806-.341568-.409889 0-.797005-.113861-.842549-.250488-.045547-.113861-.500976-.296028-1.047493-.364349-.52375-.068314-.956409-.204941-.956409-.318802 0-.113854-.409885-.273255-.910866-.341568-.500973-.091088-.910866-.227722-.910866-.318802 0-.091087-.432655-.227722-.933628-.296036-.52375-.068313-1.024723-.227714-1.093044-.341568-.068314-.113861-.546513-.273262-1.047493-.341575-.500973-.091088-.933628-.250489-.979172-.387124-.045547-.113853-.478206-.227706-.979179-.227706-.637608 0-.888096-.091095-.888096-.341584 0-.250488-.250488-.341568-.933636-.341568-.523742 0-1.070263-.159401-1.252437-.341575-.204945-.204949-.774231-.341576-1.366295-.341576-.728691 0-1.001949-.09108-1.001949-.341568s-.273259-.341583-1.00195-.341583c-.683147 0-1.047497-.113854-1.13858-.341568-.091087-.250488-.455433-.341576-1.252438-.341576-.774234 0-1.161354-.091087-1.252441-.341575-.091084-.227715-.455429-.341568-1.138577-.341568-.54652 0-1.297981-.159409-1.639556-.341576-.364346-.182175-1.047493-.341576-1.502926-.341576-.478203 0-.865321-.091087-.865321-.20494 0-.091088-.819776-.273262-1.821727-.341576-1.001948-.091087-1.821726-.250488-1.821726-.341576 0-.091087-1.25244-.250488-2.778135-.341568-1.525696-.091095-2.846449-.250488-2.937537-.387123-.159401-.273262-4.531547-.227714-4.531547.022774 0 .113861-1.024721.273254-2.27716.341568-1.252438.091095-2.27716.250488-2.27716.341576 0 .113861-.614832.250488-1.366295.341575-.751463.091088-1.366296.227715-1.366296.341576 0 .091087-.432661.227714-.956408.296028-.546518.068314-1.001949.250488-1.047493.364349-.045542.136628-.227716.250489-.409889.250489-.204944 0-.273258-.113861-.204944-.227723.068315-.136627-.022771-.227706-.204945-.227706-.250487 0-.364345-.204957-.364345-.683152 0-.455436.113858-.683151.341574-.683151.182173 0 .341574-.136627.341574-.318802s.250488-.387115.56929-.455429c.318803-.091087.56929-.250488.56929-.364349 0-.136628.159401-.227715.341575-.227715.182171 0 .341573-.159401.341573-.341575 0-.227715.227716-.341568.683148-.341568s.683148-.113862.683148-.341584c0-.182167.113857-.341568.250487-.341568s.387117-.159408.569291-.341575c.204943-.182175.614833-.341576.910864-.341576.318801 0 .523746-.09108.455431-.204941-.159401-.250488.387117-.47821 1.115808-.47821.29603 0 .56929-.113854.614833-.250481.045544-.113861.500975-.296028 1.047493-.364342.523747-.068321.956408-.204948.956408-.318801 0-.091095.569289-.250496 1.252438-.31881.683147-.091087 1.252438-.250481 1.252438-.341576 0-.136627 2.0039-.409881 3.825628-.523742.136631 0 .273258-.091088.273258-.204941 0-.27327 12.934267-.227722 13.025354.04554.045544.113853 1.343525.296028 2.914765.364342 1.571239.091094 2.891994.227722 2.960308.318801.068313.091095 1.093037.250489 2.277157.341576 1.184124.091087 2.208847.250488 2.27716.341576.091088.113861 2.322705.432663 3.802861.523742.159397 0 .22771.091095.18217.182175-.068313.091087.614834.204941 1.5257.250488 1.001946.045548 1.662319.204941 1.730641.36435.045543.182174.637599.273254 1.662323.273254 1.206893 0 1.616783.091087 1.707866.341576.113861.250488.52375.341575 1.707871.341575 1.206897 0 1.616787.091088 1.70787.341568.113861.250489.52375.341584 1.616783.341584 1.001953 0 1.571247.113853 1.798954.341568.227722.227722.797013.341575 1.685105.341575.819778 0 1.366295.113854 1.411842.273262.068314.159393.728691.318802 1.685089.364342.865326.068321 1.639557.204948 1.707871.296028.068321.113861.797012.273262 1.639556.364349.842553.068314 1.525704.204941 1.525704.296029 0 .091087.728683.227714 1.639549.318809.910866.09108 1.707871.227707 1.776184.341568.068314.113861.910866.227722 1.890045.296036.97918.068313 1.890046.227707 2.049439.387115.136635.136628.910866.250489 1.753418.250489 1.844498 0 3.210792.227714 3.051391.478195-.068313.113861 1.366295.204948 3.210801.204948 1.867271 0 3.279106-.091087 3.210792-.204948-.159408-.250481.637604-.478195 1.753411-.478195.478202 0 1.024719-.159409 1.206893-.341576.204941-.182175.592064-.341576.910866-.341576.296036 0 .546524-.091087.546524-.20494 0-.113862.318795-.273262.683144-.36435.387123-.091087.683151-.250488.683151-.364349 0-.113854.159393-.204941.341576-.204941.182167 0 .523742-.204941.728691-.432663.204933-.250488.455421-.409882.569282-.341568.091088.068314.182175-.045547.182175-.227722 0-.204941.159401-.364342.341568-.364342.182175 0 .341576-.159401.341576-.341575 0-.182175.159408-.341568.341575-.341568s.341576-.159409.341576-.341584c0-.182167.159401-.341568.341568-.341568.182175 0 .341576-.159408.341576-.341575 0-.182175.159408-.341576.341575-.341576.204949 0 .341576-.204941.341576-.56929 0-.364342.136627-.56929.341575-.56929.182167 0 .341568-.204941.341568-.432663 0-.227707.159409-.478195.341576-.569283.182175-.068321.341576-.318809.341576-.569298 0-.25048.113861-.478195.250488-.523742.341576-.113861.364349-1.844498.022774-1.958359-.159401-.04554-.273262-.341568-.273262-.637604 0-.318802-.159401-.61483-.341576-.683151-.227715-.09108-.341576-.455429-.341576-1.024719 0-.637604-.091079-.888092-.341568-.888092-.227714 0-.341575-.227715-.341575-.637604 0-.341576-.159409-.819778-.341576-1.047493-.182167-.250488-.341575-.728691-.341575-1.093033 0-.409889-.113846-.637604-.341576-.637604-.227707 0-.341568-.227722-.341568-.774238 0-.478203-.136627-.819779-.341576-.910866-.204948-.068314-.341575-.409882-.341575-.819778 0-.364342-.091088-.683144-.204949-.683144-.113846 0-.296028-.318802-.364334-.728691-.091087-.409889-.250488-.888092-.364357-1.093033-.409881-.751465-.865311-1.981132-1.001945-2.687057-.09108-.409882-.250489-.683144-.36435-.592057-.113846.068314-.204933-.250488-.204933-.683143 0-.569298-.091095-.819786-.341575-.819786-.227723 0-.341576-.227707-.341576-.683144 0-.455429-.113861-.683151-.341568-.683151-.204949 0-.341576-.204941-.341576-.546517 0-.364341-.159408-.592064-.500976-.660377-.592064-.159401-1.54847.022774-1.54847.296036 0 .091087-.250488.25048-.569298.318801-.318794.091088-.569282.250481-.569282.364342 0 .136627-.159409.227715-.341576.227715s-.341575.159408-.341575.341575c0 .182175-.159401.341576-.341576.341576-.182167 0-.341568.159401-.341568.341576 0 .182174-.159409.341568-.341576.341568-.182174 0-.341575.159408-.341575.341575 0 .182175-.159401.341576-.341576.341576-.182167 0-.341568.159401-.341568.341575 0 .182175.159401.341568.341568.341568.227715 0 .341576.227723.341576.774239 0 .409889.159401.888092.341575 1.047493.182167.159401.341576.500977.341576.774239 0 .25048.159401.683143.341568.910858.182175.250488.341576.728691.341576 1.09304 0 .341576.113861.637604.227714.637604.136627 0 .227722.136627.227722.273262 0 .159401.136628.569283.318795.910858.182174.341576.387123.910866.478202 1.297981.091088.387116.250489.705925.36435.705925.113853 0 .204948.296029.204948.66037 0 .36435.136627.705925.341576.797013.182167.068313.341575.364341.341575.683143s.136628.705925.296021.865326c.182182.159401.387123.592056.47821.933632.068306.341576.250489.61483.364342.61483.136627 0 .227722.113861.227722.227722 0 .136627.409882.61483.910858 1.115807.500977.478203.910859 1.001945.910859 1.138572 0 .136635.318809.250489.683151.250489.455437 0 .683151.113861.683151.341583 0 .204941.204941.341568.478195.341568.455437 0 .478218.091087.387123 1.229668-.091087 1.161354-.52375 1.958351-1.070266 1.958351-.136628 0-.250481.159408-.250481.341583 0 .182167-.159401.341568-.341576.341568-.20494 0-.409889.159401-.47821.341576-.091087.182167-.387116.341575-.683144.341575-.341575 0-.546516.136627-.546516.341568 0 .227722-.227722.341584-.683144.341584-.455436 0-.683151.113853-.683151.341568 0 .204948-.227722.341575-.592064.341575-.318802 0-.728683.159401-.910866.341576-.273254.273254-1.024727.341568-3.620674.341568-3.188026 0-3.256347 0-3.392975-.523743-.182174-.705917-.159401-5.465179.04554-5.761215.091088-.136627.387116-.318802.683151-.409889.273262-.091088.500977-.273255.500977-.387116 0-.113853.159401-.204948.341576-.204948.409881 0 .500976-1.730637.091079-1.867264-.113861-.045548-.296028-.500977-.364349-1.047501-.068306-.523742-.204933-.956405-.318794-.956405-.091088 0-.227715-.318802-.318802-.683144-.091087-.387115-.227722-.683151-.318802-.683151-.113861 0-.250496-.432663-.31881-.956406-.068313-.546516-.250488-1.001945-.364341-1.047493-.136627-.04554-.250489-.341575-.250489-.637604 0-.318801-.1594-.614837-.341575-.683151-.227715-.091087-.341576-.455429-.341576-1.024719 0-.637604-.09108-.888092-.341568-.888092-.227714 0-.341575-.227715-.341575-.683151 0-.61483-.068314-.683144-.683152-.683144-.455429 0-.683143.113854-.683143.341568 0 .182175-.159401.341576-.341576.341576s-.341576.159401-.341576.341575c0 .182175-.1594.341576-.341575.341576-.182167 0-.341568.091087-.341568.227714 0 .113862-.250488.273263-.56929.36435-.318802.068313-.56929.273254-.56929.455429s-.159401.318802-.341576.318802c-.296028 0-.341576.455429-.341576 2.823677 0 1.571243.091088 2.891998.204949 2.983078.113853.068321.296028.683151.364341 1.366302.091088.683144.250489 1.252434.36435 1.252434.113853 0 .204941.159401.204941.341576 0 .296028.592064.478195 1.206894.364349.113861-.022781.136627.068314.045547.182167-.068314.136635.227715.296028.683144.387116l.797004.136634v6.60376l-1.867263-.091087c-1.206902-.04554-1.890046-.182167-1.958359-.364342-.045548-.182175-.637612-.273262-1.753418-.273262-1.18412 0-1.776184-.091087-2.026673-.341575-.20494-.227715-.77423-.341568-1.594009-.341568-.979172 0-1.275207-.068314-1.275207-.341584 0-.25048-.273262-.341568-1.02472-.341568-.56929 0-1.024727-.091087-1.024727-.227722 0-.113853-.250488-.273254-.56929-.364342-.546516-.136627-.56929-.20494-.56929-2.049446 0-1.867264.022774-1.912811.546524-1.912811.751457 0 1.297981-.227715 1.138573-.478203-.068314-.113853.091095-.204948.341575-.204948.273262 0 .478211-.159394.478211-.341568 0-.182175.159393-.341576.341568-.341576.227714 0 .341576-.227714.341576-.660377 0-.364342.113853-.705918.273262-.751465.296028-.113854.523742-2.413788.318794-3.256333-.204941-.797004-.592056-.728691-.592056.113854 0 .455437-.113862.683151-.341576.683151-.182175 0-.341568.159401-.341568.341576 0 .182167-.159409.341568-.341576.341568-.182174 0-.341575.159401-.341575.341575 0 .182175-.159401.341576-.341576.341576s-.341576.159401-.341576.341568c0 .182175-.159401.341583-.341568.341583-.182174 0-.341575.09108-.341575.204941s-.296036.273254-.683151.364349c-.364342.09108-.683144.227715-.683144.318802 0 .113854-.432663.250489-.956413.318802-.546517.068314-1.001946.250488-1.047493.364342-.04554.159401-.956406.250488-2.345475.250488-1.275207 0-2.231617-.091087-2.163299-.204948.159401-.250489-.637604-.478195-1.730641-.478195-.478206 0-.865322-.091095-.865322-.204949 0-.113853-.296032-.318802-.660377-.432655-.364346-.136635-.865318-.432663-1.093033-.660385-.227718-.227707-.705921-.592057-1.047497-.819779-.341572-.204941-.614834-.569282-.614834-.796997 0-.341575-.045539-.341575-.227714-.045547-.182171.273262-.227715.204948-.227715-.296028 0-.387124-.113861-.614838-.341571-.614838-.227719 0-.341576-.227715-.341576-.683144 0-.432663-.113861-.683151-.318802-.683151-.182175 0-.387115-.136627-.455437-.296028-.113857-.227715-.159397-.227715-.273254 0-.068317.159401-.318802.296028-.56929.296028-.227719 0-.432659.159401-.432659.341576 0 .182174-.136635.341575-.318806.341575-.182175 0-.364342.159401-.455433.341568-.068314.182175-.318798.341576-.569286.341576-.250489 0-.478207.113861-.523751.227714-.045543.136635-.478202.296036-.979179.387124-.500973.068313-.979176.250488-1.070263.387115-.091087.159401-1.297985.273254-3.051395.318802-2.960305.091087-4.076115-.045548-3.8484-.409889.091087-.136628-.250485-.227715-.774231-.227715-.683148 0-.933636-.091087-.933636-.341576 0-.227714-.227718-.341575-.683151-.341575-.455429 0-.683148-.113854-.683148-.341576 0-.182167-.068313-.318802-.159401-.318802-.569286.091088-.979179-.068313-.979179-.364341 0-.182175-.159397-.341576-.341572-.341576s-.341576-.159401-.341576-.341576c0-.182167-.159397-.341568-.341571-.341568-.182175 0-.341576-.113861-.341576-.227722 0-.341568-.933636-1.206894-1.093037-1.024719-.296032.273262-.18217 2.459335.136631 2.550423.136631.068313.273259.25048.273259.432655 0 .204948.250488.318802.683147.318802.387119 0 .683147.091087.683147.227714 0 .113861.38712.273262.865323.36435 1.070266.204948 1.184124.364349 1.184124 1.912811 0 1.753418-.38712 2.049446-2.641507 2.049446-1.070263 0-1.662326-.091087-1.571239-.227714.091083-.159409-1.75341-.227723-5.39687-.227723-3.051393 0-5.670126-.091079-5.852299-.20494-.660377-.432663-.592063-3.893944.091086-3.893944.182175 0 .341574-.136627.341574-.318802s.136629-.318802.29603-.296028c1.184124.04554 2.436561-.113861 2.345476-.273262-.068314-.113854.022772-.250488.204943-.341568.182172-.068321.341575-.273262.341575-.455437s.136629-.364342.29603-.409889c.296032-.113854.546519-5.556267.296032-6.899796-.136629-.728683-.159401-.751464-1.730644-.888092-.88809-.091079-1.594009-.250488-1.594009-.387115 0-.273262-4.941437-.273262-5.12361 0-.068316.136627-.84255.296036-1.70787.387115l-1.594012.159409v4.053337c0 4.941437.022772 4.986984 2.391018 4.986984 1.16135 0 1.480154.068314 1.480154.341568 0 .182175.159401.341576.341574.341576.273258 0 .341574.387115.341574 2.049446 0 1.70787-.068316 2.049438-.364346 2.049438-.182173 0-.27326.091095-.204945.227723.091086.136627-.387115.227714-1.252437.227714-1.024721 0-1.411839.091087-1.502926.341576-.091085.250488-.478203.341568-1.275209.341568-.70592 0-1.252438.136627-1.457383.341583-.204942.204941-.774233.341568-1.343524.341568-.660375 0-1.024722.113861-1.115807.341576-.068316.182167-.387117.341575-.705919.341575-.341575 0-.751463.159401-.933636.341568-.204944.182175-.660377.341583-1.024722.341583-.387118 0-.660376.113846-.660376.296021 0 .159409-.27326.318802-.592062.341576-.318803.022773-.728691.204948-.910864.387123-.204943.182174-.500974.341568-.683148.341568-.182173 0-.318802.091087-.318802.227722 0 .113853-.296031.227707-.683148.227707h-.683148v-4.326599c0-2.891991.091087-4.326599.250488-4.326599.113857 0 .1594-.113862.091086-.227723-.091086-.136627.296031-.227714 1.00195-.227714.888092 0 1.161352-.091087 1.161352-.341576 0-.182167.136629-.341568.29603-.341568s.455432-.204948.683148-.455436c.364346-.432656.387118-1.457383.387118-12.752091v-12.296661l-.614834-.683152c-.478203-.546516-.774234-.683151-1.525696-.683151-1.57124 0-1.730642-.364342-1.730642-4.098884v-3.188019h15.712402zm41.33045 20.744919c.318802-.296021.569282-.637597.569282-.797005 0-.159393.592064-.250488 1.707871-.250488 1.366295 0 1.70787.068321 1.70787.341575 0 .182175.159409.341576.341576.341576.204948 0 .341575.204948.341575.546516 0 .296036.159401.614838.364342.683151.296036.113854.341576.546517.273262 3.028626-.04554 2.049438-.159401 2.914764-.341575 2.983078-.182168.04554-.296029.455429-.296029.979179 0 .592057-.091087.888092-.318801.888092-.159401 0-.36435.296029-.432663.683144l-.136628.683151h-1.958358c-1.252442 0-1.912816-.091087-1.821724-.227714.068313-.136635-.022774-.296036-.204949-.36435-.204941-.068313-.364345-.273262-.364345-.455429 0-.182174-.159397-.318802-.341572-.318802-.296032 0-.341576-.500976-.341576-3.2108 0-2.527649.068314-3.279106.341576-3.529594.182175-.204949.341572-.614838.341572-.910866 0-.318802.250492-.797005.569294-1.09304zm-18.331139-5.943383c0 .182175-.159397.341576-.341572.341576-.182171 0-.341575.159393-.341575.341576 0 .182174-.159398.341568-.341572.341568-.227719 0-.341576.227722-.341576.660377 0 .364349-.136631.705917-.273258.751465-.387119.136635-.432659 8.083916-.045544 8.334404.136631.091087.318802.387115.40989.660377.091083.296028.273258.523743.387115.523743.113861 0 .204945.136635.204945.318802 0 .318809.660377.592064 1.548469.592064.273258 0 .500973.091087.500973.227714 0 .113861.250492.227715.569294.227715s.569286-.113854.569286-.227715c0-.136627.318802-.227714.683148-.227714.455436 0 .683147-.113854.683147-.341576 0-.182174.159405-.341575.341576-.341575.182174 0 .341572-.204941.341572-.45543 0-.250488.159404-.523742.341575-.592063.250488-.113854.341572-.500969.341572-1.434609.022774-.751465.159405-1.457382.341576-1.70787.478206-.637604.478206-3.096939 0-3.096939-.273255 0-.341576-.318802-.341576-1.59401 0-1.275207-.068314-1.594009-.341572-1.594009-.182171 0-.341575-.204949-.341575-.455429 0-.250489-.159398-.455437-.364346-.455437-.182167 0-.273254-.113853-.204941-.227715.068314-.136634-.02277-.227714-.227718-.227714-.182167 0-.409886-.159401-.478199-.341576-.113861-.250488-.523751-.341575-1.707871-.341575-1.252441 0-1.571243.068313-1.571243.341575z"/></svg>