<svg height="43" viewBox="0 0 128 43" width="128" xmlns="http://www.w3.org/2000/svg"><path d="m87.206497 36.417305h-6.407425s-.014862-1.828571-.014862-2.393494c-1.665046 1.813702-4.058548 2.943554-7.596756 2.943554-7.492676 0-12.562137-5.827644-12.562137-13.09733 0-7.314285 5.099186-13.097326 12.562137-13.097326 3.523346 0 5.91684 1.174446 7.596756 2.839485v-2.408361h6.422287zm-13.260849-5.232986c3.567948 0 6.689896-2.794888 6.689896-7.314284s-3.121948-7.314285-6.689896-7.314285c-3.746345 0-6.734505 2.75029-6.734505 7.314285.014878 4.54913 2.98816 7.314284 6.734505 7.314284zm-19.147976-22.686177c2.125908 0 3.924744-1.858303 3.924744-4.013939 0-2.170498-1.798836-3.984203-3.924744-3.984203-2.125896 0-4.013935 1.769104-4.013935 3.969337-.014862 2.2151 1.888039 4.028805 4.013935 4.028805zm42.369343 25.525669c0 .906853-.029732 2.438092-.029732 2.438092h-6.481765s0-3.597676 0-5.069451v-29.777469h6.511497v12.071544c1.665039-1.70964 4.118004-2.898956 7.64135-2.898956 7.448074 0 12.517525 5.783045 12.517525 13.09733 0 7.314287-5.00998 13.09733-12.517525 13.09733-3.538216.029732-5.976311-1.100117-7.64135-2.95842zm6.868301-2.794891c3.746331 0 6.734482-2.794891 6.734482-7.314285 0-4.519396-2.988151-7.314286-6.734482-7.314286-3.746353 0-6.689903 2.79489-6.689903 7.314286 0 4.519394 3.121948 7.314285 6.689903 7.314285zm18.746567-30.72892c2.170494 0 3.924744 1.813705 3.924744 3.969337 0 2.170502-1.769112 4.013939-3.924744 4.013939-2.170494 0-4.013939-1.813705-4.013939-4.013939-.014862-2.200233 1.798836-3.969337 4.013939-3.969337zm-3.107086 10.748432h6.556091v21.095471c0 .832519.014862 1.888034.490601 2.75029.40139.728454 1.278511 1.189315 1.278511 1.189315v.163529h-7.106163s-.550049-.327061-.862244-.787918c-.312187-.460862-.356796-.832524-.356796-1.977238 0-1.129849 0-22.433449 0-22.433449zm-67.999073 0h6.556103v27.800232c0 2.111034-1.471783 3.211147-2.36377 3.449013h-6.675022v-.163532s.921711-.40139 1.501507-1.204182c.579792-.802788.981182-2.244827.981182-4.415329zm-9.856445 25.213471h6.511497l-.074333-25.213471h-6.422295v2.408362c-1.679912-1.665039-4.073406-2.839491-7.596752-2.839491-7.462951 0-12.562137 5.783046-12.562137 13.097332 0 7.269684 5.06946 13.097328 12.562137 13.097328 3.538208 0 5.931713-1.129849 7.596752-2.943554 0 .564926-.014869 2.393494-.014869 2.393494zm-26.432519-25.198605h8.087338l-10.361901 10.257839 10.406505 14.970501h-7.641352l-7.195354-10.584902-2.170499 2.1705v8.414402h-6.511497v-34.876655h6.526364v18.731706zm26.313588 12.636469c0 4.519398-3.121952 7.314287-6.689896 7.314287-3.746341 0-6.719629-2.75029-6.734491-7.314287 0-4.563995 2.98815-7.314285 6.734491-7.314285 3.567944 0 6.689896 2.794889 6.689896 7.314285z"/></svg>