<svg height="31" viewBox="0 0 129 31" width="129" xmlns="http://www.w3.org/2000/svg"><path d="m126.333336 23.463066c-1.920487 1.177191-5.575653 3.369793-10.966309 6.579462-.121948.073004-.228965.125269-.319389.156794-.02739.009125-.052277.003317-.072998-.017424-.089607-.092081-.134415-.201589-.133583-.327688.011619-6.503126.005821-13.00544-.017403-19.507738-.000847-.268786-.06057-.443007-.332672-.502732-.025726-.004985-.052261-.002492-.0755.009123-.153481.076325-.259667.132731-.316903.17006-9.677955 6.266704-19.350944 12.543367-29.009826 18.839935-.922508.601452-1.672463.666986-2.884476.670301-4.07991.014109-8.162315.025719-12.241402-.003315-2.248176-.016592-4.500511.035672-6.747028-.02074-1.173038-.029864-1.873211-.936602-1.898098-2.087244-.017414-.843689-.025715-1.577872-.024055-2.202553.019077-7.326912.049774-14.653002-.019085-21.97909-.00166-.118629-.050606-.224817-.147664-.318548-.019084-.018263-.042304-.028215-.06969-.030703-.120281-.008297-.199925-.000833-.237263.021569-6.419346 3.850944-12.868553 7.658754-19.256374 11.561966-.174214.106178-.291188.234758-.350914.385749-.010784.027384-.006642.058066.010784.081299.091255.117804.186661.226475.285381.326033 4.568535 4.585119 9.138725 9.166939 13.712242 13.747087.086281.086279.146012.1626.179184.229796.058907.118631-.02322.258001-.155128.264639-.633793.029863-1.4609.009954-1.913029.012441-3.750557.019083-7.501953.012446-11.252518-.019079-.673622-.004978-1.270095-.169235-1.737987-.636291-2.774967-2.766678-5.560723-5.548285-8.358084-8.345652-.090435-.091253-.228138-.116135-.345112-.062218-.211544.097895-.431381.215701-.657861.352574-4.568541 2.757545-9.142886 5.506799-13.721375 8.247761-.536745.32188-1.158106.480327-1.863256.476181-2.680395-.018254-5.366601-.058903-8.046996-.028208-2.315375.027378-4.063318.029039-5.24216.004978-.884341-.01825-1.568748-.798893-1.80933-1.591148-.052265-.170895-.073834-.569926-.064712-1.197924.009959-.729212.014935-1.458412.01411-2.187622-.000834-3.033798.044793-6.065113.013268-9.099748-.025716-2.541016-.016593-4.345368.028208-5.413058.014102-.331835.119462-.769018.316071-1.310743.30031-.823782.963152-1.493254 1.695677-1.936251 3.59211-2.171034 7.191692-4.329611 10.797911-6.475763.150153-.089592.292843-.130242.428068-.122778.029863.001657.056412.01991.068848.046459.076326.163429.113656.27211.112831.326023-.02572 1.588667.005801 3.195574.005801 4.760172.002492 5.751526.004154 11.503893.003321 17.255419 0 .135223.03318.25634.099554.364189.014102.023231.040647.036495.068026.034006.151808-.013266.261314-.03982.328514-.080467 4.035943-2.412436 12.985531-7.788156 26.850422-16.126337 3.204705-1.927962 6.911297-4.172003 9.614087-5.773108.68441-.405662 1.290836-.494429 2.156093-.492765 6.430962.014923 12.861931.018243 19.292061.00995 1.578697-.001661 2.341919.770678 2.34523 2.344412.01577 7.992243.019089 15.984493.009132 23.976725-.000831.202425.16343.462085.430565.29949 2.210846-1.343928 4.348694-2.813963 6.529671-4.207665.517662-.331003.982231-.630493 1.392883-.898449 10.676789-6.973516 21.385094-13.898906 32.086769-20.834245.937439-.607262 1.623513-.693545 2.73433-.688565 2.706115.011607 5.412224.015761 8.118332.011607.468711-.000828.821304.037338 1.057724.113664 1.127426.365011 1.367179 1.258478 1.367179 2.364323.001648 4.768469.002472 9.536102.001648 14.303739 0 2.408295.428055 4.772618-1.865745 6.177933z"/></svg>