<svg height="38" viewBox="0 0 129 38" width="129" xmlns="http://www.w3.org/2000/svg"><path d="m50.82996 36.999981h7.354305l4.377575-17.335154 4.37756 17.335154h7.354301l4.552674-36.421333h-7.529412l-1.926132 17.86046-3.852257-17.86046h-5.953487l-3.852257 18.035562-2.101234-18.035562h-7.529412zm-6.829006-2.626537c1.225719-1.575921 1.575924-3.502053 1.575924-7.354306 0-3.677156-.700409-5.953489-3.32695-8.229824l-5.778386-5.077974c-1.225715-1.050615-1.400818-2.101233-1.400818-3.852259v-2.101228c0-1.050618.875515-1.575922 1.400818-1.575922.700413 0 1.400818.525304 1.400818 1.575922v3.852254h7.179215c.350204-7.704513-.875511-11.206565-8.229824-11.206565h-1.22572c-6.653898 0-8.229822 2.451435-8.229822 10.331052 0 4.027361.700413 5.603283 3.677158 8.229823l4.027357 3.677156c2.276333 2.276331 2.451436 2.80164 2.451436 5.428179v1.400821c0 1.050616-1.050618 1.400818-1.575921 1.400818-.875515 0-1.400821-.525304-1.400821-1.225715 0 0 0-2.276333 0-4.377564h-7.179209c0 4.377564 0 7.529411 1.926132 9.630642 1.400818 1.575924 2.976744 2.276329 6.128588 2.276329h1.57592c4.202465-.175102 5.953491-1.400818 7.004105-2.801639zm-22.41313-11.206564c2.451439 0 4.552671-2.101231 4.552671-4.55267 0-2.451435-2.101232-4.552667-4.552671-4.552667-2.451433 0-4.552666 2.101232-4.552666 4.552667 0 2.451439 2.101233 4.55267 4.552666 4.55267zm.350206 13.833101-8.580029-19.436386 8.229823-16.984947h-8.404923l-4.902871 11.206564v-11.206564h-7.35431v36.246235h7.35431v-13.658003l5.253078 13.658003h8.404922zm58.659367 0h8.054718v-36.421333h-8.054718zm18.21067-36.771542c-7.179199 0-8.22982 2.976746-8.22982 10.331053 0 4.027361.700401 5.778385 3.677162 8.404925l4.027344 3.677156c2.276337 2.276331 2.451447 2.80164 2.451447 5.428179v1.400821c0 1.050616-.875519 1.225718-1.400826 1.225718-.700409 0-1.225723-.350204-1.225723-1.050615 0 0 0-2.451439 0-4.377564h-7.354302c0 4.377564 0 7.529411 1.926133 9.630642 1.400817 1.575924 2.976737 2.276329 6.128585 2.276329h1.575928c4.027351 0 5.778374-1.225712 7.004097-2.626537 1.225716-1.57592 1.575928-3.502051 1.575928-7.354309 0-4.202461-.700409-6.128588-3.32695-8.404923l-5.778389-5.077974c-1.225716-1.050615-1.400811-2.101233-1.400811-3.852259v-2.451435c0-1.050615.875504-1.225715 1.225708-1.225715.350197 0 1.225716 0 1.225716 1.225715v4.377566h6.478798.700424c.175095-7.879618-.700424-11.556773-7.879623-11.556773zm20.136795 0h1.400826c7.354309 0 8.054718 3.677155 7.879623 11.556773h-.700424-6.653892c0-2.101233 0-4.377566 0-4.377566 0-1.050615-1.050614-1.225715-1.225716-1.225715-.350205 0-1.225708 0-1.225708 1.225715v2.101233c0 1.751026.350189 2.801637 1.40081 3.852253l5.778389 5.077976c2.626541 2.276337 3.32695 4.377565 3.32695 8.404928 0 3.852255-.35022 5.778381-1.575928 7.354309-1.225723 1.57592-2.976745 2.626538-7.004104 2.626538h-1.575928c-3.15184 0-4.72776-.700413-6.128578-2.276337-1.926132-2.101227-2.101242-5.428181-1.926132-9.630642h7.354301v4.377563c0 .700411.525315 1.05062 1.225723 1.05062.525307 0 1.400811-.175105 1.400811-1.225722v-1.225715c0-2.801644-.350197-3.326951-2.451432-5.428181l-3.852249-3.502052c-2.801643-2.62654-3.677154-4.377564-3.677154-8.404925 0-7.354307 1.050613-10.331053 8.229812-10.331053z"/></svg>