<svg height="58" viewBox="0 0 129 58" width="129" xmlns="http://www.w3.org/2000/svg"><path d="m54.560837 17.830555c-1.626427 2.566212-1.770645 3.807743-1.81596 4.642323-.055058.813827-.055058 2.276603 1.265842 3.472862 2.237618 1.982012 5.354805 1.660732 8.121464 1.660732h22.816715c.972428 0 1.258499-.282276 1.78032-.98752 1.824371-2.778692 2.644218-5.788222 2.644218-8.48406 0-5.772522-3.766136-13.040783-13.282776-16.327969l-1.070373 1.529823c7.546798 3.57074 10.676391 8.24588 10.676391 14.78587.035248 1.751053-.417991 3.647575-1.573929 5.398563h-22.186248c-1.330647 0-1.510354-1.497959-1.038636-2.338634 1.971096-3.477848 3.992112-6.552265 6.360375-9.714802 2.24353-2.981602 4.455391-5.770001 6.766014-8.691807.629433-.8101.209045-1.592148-1.038559-1.847618-2.590683-.546043-5.299721-.92374-8.574623-.92374-18.203598 0-24.842503 10.414783-24.842503 18.134052 0 8.365469 6.697403 18.08754 24.887814 18.08754 10.098182 0 16.711563-3.244404 20.540016-7.406426h-3.860268c-3.351738 3.079443-9.095138 5.261944-16.679748 5.261944-15.40799 0-21.090138-8.628498-21.090138-16.059151.116055-6.626877 6.212696-15.783108 21.476231-16.088447.577888-.016056 1.025139.510772.623123 1.008056-2.610195 3.199025-10.053104 13.552803-10.904762 14.888409m68.581871 29.887035h-14.601402c.195465-1.771881 1.725547-3.251659 3.274902-3.251659h14.777359l-.051308-3.080689h-15.664512c-4.956383 0-8.918061 4.101021-9.037651 8.870442-.019494.333603.206542.537609.585365.537609l17.77594-.062325c.912658.124646 1.61293.845582 1.61293 1.693726 0 .954273-.877403 1.719311-1.928261 1.719311h-19.556541v-12.746445h-5.752991v12.78043h-10.585915c-2.880004 0-3.471626-1.738777-3.471626-3.334698v-9.522571h-9.550934c-.945747.642597-1.858398 1.341648-2.828689 1.929187l-5.660317 3.477887-7.368416-5.359562h-11.45457-10.808506c-2.927746 0-5.177443.762584-6.845352 2.074905-2.998868 2.355938-3.949582 4.848755-3.911602 5.963192h3.898105c-1.712051 1.27581-2.866739 2.808163-3.470371 4.579971h-12.811339c-2.300869 0-3.779403-1.62638-3.779403-3.210052v-9.520378h-5.662588v9.890484c0 3.553478 3.387226 6.013565 8.824951 6.013565h34.566105 8.36539c.896893-.601471 1.739022-1.24062 2.671269-1.806164l5.832539-3.519417 7.38916 5.256985h8.414436l-11.117462-8.338661 5.713905-3.717381c1.215996-.79657 2.49408-1.465011 3.741799-2.200756v8.39743c0 3.535183.906738 5.988965 8.06369 5.988965l40.411911-.094105c3.117271.04509 5.122307-2.109188 5.122307-4.702122 0-2.580875-2.300881-4.707104-5.122307-4.707104m-72.262459 6.236931h-7.224178-13.710734c.055058-1.632728 1.793799-3.272381 3.381213-3.272381h10.329521 2.854412v-3.271347h-2.854412-13.880471c-.189374-.954277 1.606924-2.834961 2.979073-2.834961h10.901398 4.13998v-1.754612l9.749863 6.96996z"/></svg>