<svg height="62" viewBox="0 0 129 62" width="129" xmlns="http://www.w3.org/2000/svg"><path d="m27.197544.678997-8.20525 12.564499-7.49-10.95475-11.50225 27.432003 12.35225 4.391998-9.229 22.03075 12.914752 4.558251 2.278997-5.994503 4.558251 6.313503 3.555-5.682751 1.8235 5.925999 11.059999-4.019501c2.541393 1.821507 5.595101 2.789864 8.721752 2.765751 4.465668.051602 8.70913-1.944393 11.517002-5.417251 2.279065 3.654113 6.350682 6.367 12.040745 6.367 3.480667.102566 6.870117-1.122188 9.481255-3.425998l-.092003.348499 2.278999.75975c.173867.058636.344307.126995.510498.20475 2.314209 1.057492 4.831436 1.596806 7.375756 1.58025 2.676002.062435 5.328727-.51012 7.740745-1.67075l21.271256 1.701752.630745-11.395252-3.304497-.189751.75975-5.575996 1.580246.158745 1.572754-10.976746-2.127754-.144005-.562248-9.314995 9.291252-10.346252-10.764748-9.116249-5.780754 7.983997-5.789497-6.4795-.811753.759751v-.236248l-20.907753-.494v1.891751l-6.001747-4.261254-4.938003 7.110253-.759751-4.785252-11.098495 1.716751c-1.53466-.623455-3.147774-1.032871-4.793999-1.216751-.650513-.078281-1.305046-.118431-1.960251-.120251-2.920734-.015621-5.776989.858479-8.188751 2.506001l.143749-2.278999-12.990249-.949502-.44075 9.822503zm-.547251 5.491997 8.314753 20.156254.847-18.857251 7.794498.554497-.532501 8.669754c1.395256-5.411575 6.344879-9.369018 12.976254-8.586002 2.392772.193249 4.683529 1.053085 6.612499 2.481998l-.24625-1.410999 7.702999-1.200249 1.291496 8.637749 7.164002-10.308998 5.887504 4.178249-6.518005 8.485752 8.322998 5.774998.314507-17.041252 15.535751.364754-.473 4.224247 3.845993-3.548249 6.176255 6.91325 6.024246-8.35675 6.624504 5.62175-8.2425 9.184749.554496 8.736252-7.991996.061001-.106247-9.207501-8.591256-7.759502-6.078498-.133747v2.628498l5.872497.068501-.524246 5.530498-5.439255-.174999v2.78825l8.728752.106502-.060745 6.168499-16.272507-.577249.089501-4.856001-5.961998 5.820751-7.733498-7.528499 1.010246 6.791498-7.201751 1.245998-3.265743-18.71525-2.394001 3.962002c-1.007645-1.127464-2.412285-1.821549-3.920002-1.937-2.772862-.326691-5.127694 1.055858-5.484749 3.98825-.326664 2.765255 1.671127 5.013859 4.778251 5.4165 1.291218.13382 2.595543-.051349 3.7985-.539249l2.188 5.86475c-2.426639 1.200273-5.162308 1.629726-7.84 1.230749-5.726669-.680969-10.66605-4.075499-11.440754-9.705l-.600246 9.773251-7.422253-.349501.099251-2.207499-8.045502 2.936997-2.67425-8.683247-4.497249 7.16375-5.089999-6.99675h-.06075l-3.038751 8.05275-8.03-2.87175 8.6225-20.511501 6.9435 10.14175h.060999zm3.145251 26.40675 6.639 16.094253c-.212593-.874607-.326001-1.800041-.326001-2.769501 0-6.882785 5.735547-11.547249 11.927002-11.547249 6.191456 0 11.980252 4.618897 11.980252 11.547249 0 6.928357-5.773598 11.547249-11.980252 11.547249-4.200477 0-8.184078-2.141983-10.316501-5.664249l1.192749 2.891502-8.98725 3.289498-2.6665-8.713749-4.52775 7.194248-5.052-7.026997h-.06825l-3.038749 8.05275-8.02225-2.86425 8.64525-20.5495 6.935999 10.18h.068251zm62.978.721752c2.530243.092125 5.01696.686039 7.31575 1.747249l-1.466247 5.317749c-1.747612-1.009071-3.732788-1.533607-5.750755-1.5195-.427361-.03125-.848969.113243-1.167321.400062-.318351.286831-.505867.691143-.51918 1.119438 0 .911629.972527 1.321911 1.519501 1.466252 1.746864.339863 3.456566.848674 5.105003 1.519252 2.362618 1.124016 4.022812 3.017601 4.206253 5.635499l.959496-15.184754 15.505249 1.056-.873497 5.872253-7.597-.501251-.151749 2.621002 5.864746.3265-.75975 5.507752-5.424248-.425503-.144249 2.78825 8.721252.493751-.342002 6.161-16.226754-1.299.331002-5.237c-.850251 4.369812-5.110474 6.710751-10.716004 6.710751-2.45343-.015034-4.872497-.578262-7.080246-1.648502l1.352249-5.203751c1.523247.748581 3.195076 1.145756 4.89225 1.162251 2.233483 0 2.818505-.75969 2.818505-1.625748 0-1.466183-2.757637-1.686409-4.315003-2.203003-2.848831-.894543-4.76181-2.430092-5.540252-4.612999.021888.337025.037811.674412.047752 1.012001.015182 7.855167-3.942856 13.651501-11.737251 13.651501-7.73362 0-11.585247-5.826657-11.585247-11.205254 0-5.993927 2.545032-10.696506 3.836498-13.499748l7.049751 2.415748c-1.997978 4.482155-2.894256 7.596848-2.894256 10.020253 0 3.221065 1.352081 5.1585 3.737503 5.1585 2.864021 0 3.608497-4.155662 3.608497-7.475502-.019317-2.477916-.442619-4.9361-1.25325-7.277752l7.528504-.972496c.583351 1.629052 1.017631 3.307686 1.2975 5.015252.347794-4.948205 4.138062-7.286503 9.847-7.286503zm-44.737999 8.03725c-2.051155 0-4.034 1.679035-4.034 4.558251 0 2.879219 1.982845 4.55825 4.034 4.55825 2.051159 0 4.064251-1.686615 4.064251-4.55825 0-2.871605-2.013092-4.558251-4.064251-4.558251z"/></svg>