<svg height="27" viewBox="0 0 129 27" width="129" xmlns="http://www.w3.org/2000/svg"><path d="m10.032422 23.264164c1.423513.186472 2.86187.308685 4.27678.453121l.409907 1.728508c-2.365589-.148172-4.791645-.182731-7.169575-.182731-2.264316 0-4.573074.025907-6.833704.182731l.325938-1.724771c1.190193-.15186 2.382845-.253134 3.580462-.444466.108646-2.08655.12718-8.579519.12718-11.532782v-1.354391c0-1.006233-.018534-6.359644-.12718-8.06711-1.188965-.248167-2.426057-.300031-3.627361-.408678l-.244479-1.68161 8.475787-.030823c3.719981 0 6.955969.296296 8.728869 1.019801 3.270599 1.363044 3.654548 3.658235 3.654548 4.6595 0 5.949736-5.832438 8.663486-10.910496 9.369686l.212375-1.855637c3.075478-.766721 5.318803-2.482891 5.318803-6.280645 0-1.903818-.937062-3.419949-2.477924-4.186667-.911154-.448154-2.361851-.653106-3.724896-.696319-.099992 1.550691-.1259 5.667011-.1259 8.25358v1.442046c0 2.648315.025908 9.473367.130866 11.337657zm24.46926.017309c1.171662.208635 2.369278.317282 3.536022.435812l.414818 1.750729c-2.413715-.23086-4.979294-.204952-7.383129-.204952-1.98159 0-3.980488.06052-5.941084.182731l.330906-1.750728c1.180309-.060469 2.386528-.227177 3.554501-.427161.122215-1.929777.156828-7.569602.156828-10.662333v-2.012464c0-1.035877-.034613-6.475714-.139523-8.240013-1.185278-.178995-2.356935-.313599-3.532331-.439499l-.409909-1.76061c2.417456.261734 5.043499.218521 7.443648.218521 1.955684 0 3.985405.003736 5.937401-.222208l-.432126 1.764297c-1.180313.1259-2.36436.322252-3.540939.474112-.086426 1.193878-.12595 4.643472-.12595 8.384395v2.103856c0 4.054521.039524 9.020246.130867 10.405515zm24.604065-3.671804c-1.819847-2.151984-3.375503-4.124921-4.26321-5.179333-1.211186 1.638397-4.190353 6.316433-5.532406 8.911654.837071.156774 1.672905.292606 2.522366.379032l.239513 1.676645h-.570419c-.544457 0-3.458195-.134605-5.41388-.134605-1.490173 0-2.94461.077772-4.438522.1963l.579071-1.73834c.758068-.108647 1.585255-.187697 2.295193-.456858 1.455612-.980272 7.312732-8.742435 8.85482-10.719111-1.184052-1.516132-2.77795-3.606369-4.285435-5.549713-1.545776-1.976623-2.984134-3.784135-3.754543-4.621254-.780285-.239513-1.598869-.343193-2.391495-.49633l-.248165-1.759333c1.877911.313601 3.954529.253083 5.815132.253083 2.138417 0 4.290402-.079003 6.428765-.170344l-.501248 1.712433c-.835838.091341-1.672958.19507-2.503826.356814.940746 1.511163 3.431057 5.186704 4.519974 6.646055 1.159324-1.571684 3.480469-4.90398 4.491619-6.659624l-.601292-.122267c-.50616-.091341-1.006183-.169113-1.493911-.243198l-.33582-1.71617c1.781601.148173 3.580464.196301 5.383057.196301 1.367958 0 2.735916-.079003 4.103928-.196301l-.161736 1.676644c-.806252.208639-1.611214.356811-2.43103.558078l-.277756.277758c-1.193932 1.116108-2.2742 2.370506-3.349602 3.58543-1.576595 1.785288-3.192776 3.666834-3.928619 4.538513 3.780498 5.174366 7.483169 10.435158 11.363617 15.518183l-2.756966.544462c-2.701355-2.04211-5.16571-4.721248-7.357174-7.264604zm31.20277 3.706363c-1.035881-3.018695-1.955688-6.175632-3.235984-9.107903-1.506256.030874-5.679306.222207-7.195435.392601-.391426 1.237093-1.781608 6.184285-2.20385 8.715302.919808.213606 1.87294.296343 2.810059.401253l.330856 1.728508c-2.026039-.122211-4.076752-.182731-6.094177-.182731-1.519814 0-3.044601.06052-4.55085.1963l.243195-1.742077c1.028457-.10491 2.034683-.244428 3.044609-.453121 1.337127-2.635925 6.960876-17.762735 8.170837-21.007324-.839531-.16548-1.676643-.251904-2.517403-.353127l-.069168-1.714941c1.742073.1173 3.518715.182734 5.274407.182734 2.243332 0 4.516296-.025908 6.738632-.182734l-.249397 1.714941c-.801285.09257-1.611206.187647-2.398926.366696.60498 1.947029 2.242149 6.65097 3.427376 9.886959.927231 2.569315 2.948303 8.065881 4.499046 11.106796 1.040787.203724 2.072929.334591 3.118683.470427l.253082 1.771722c-2.051941-.343246-4.54348-.243251-6.581856-.243251-2.121101 0-4.298996.025907-6.420097.1963l.409897-1.750729c1.075355-.096258 2.133446-.187648 3.196464-.392601zm15.485054-20.962938c-1.190185-.174078-2.426109-.261734-3.6249-.361727l-.239518-1.698864 8.258446-.034559c3.205162 0 7.70047.034559 10.135185 1.001265 1.94703.771684 3.244584 2.212503 3.244584 4.352096 0 2.307579-2.42109 5.091677-4.952103 6.646055 2.408752 4.071879 7.012749 10.453694 10.100571 13.72424l-2.939698.396339c-2.451973-1.128446-9.986961-9.669668-12.152504-12.28711-.940803.07035-1.907516.148174-2.552009.170395v.400023c0 2.051939.056778 6.733711.148163 8.646132 1.159324.191385 2.351974.304996 3.528602.409906l.330857 1.742077c-2.138375-.17408-4.347138-.1963-6.48555-.1963-2.212449 0-4.507645 0-6.711487.1963l.325935-1.750729c1.193932-.096258 2.413712-.201215 3.575539-.42716.104919-1.695181.144439-7.565865.144439-10.849981v-2.081635c0-1.150669-.03952-6.533674-.134552-7.996763zm-22.174324 1.585304c-.985244 2.717436-2.365539 6.468239-2.932273 8.114061l5.749702.104909c-.709885-2.121113-2.060593-5.937348-2.817429-8.21897zm30.936524 7.652289c1.372925-.504985 3.563156-1.950716 3.563156-5.021279 0-1.733423-1.52478-4.195322-6.902878-4.338527-.087646 1.972938-.144424 7.226354-.144424 9.425239v.544461c1.080307-.030875 2.277923-.165428 3.484146-.609894z"/></svg>