<svg height="140" viewBox="0 0 130 140" width="130" xmlns="http://www.w3.org/2000/svg"><path d="m96.622444 20.680008-2.815643 1.358124s-.108826 1.741432-.203476 3.392967c-.832863 11.560661-.946434 16.486839-.946434 20.064354.037865 9.208778 1.064735 19.875069 1.064735 19.875069l.146698 1.807685 2.711533-1.216163s.042587-43.450691.042587-45.282036zm-6.317436 3.04277-2.673668 1.116799s-.108841 1.358131-.208214 3.004913c-.946434 11.607987-1.036346 17.532661-1.055282 19.983917-.070977 8.607796 1.140457 20.49498 1.140457 20.49498l.184562 1.703575 3.137421-1.419647.160889-2.763573c.473221-5.678596.473221-5.678596.662506-19.032753.118301-8.04467-1.154648-20.390869-1.183045-20.788368-.056785-.82341-.179824-2.290382-.179824-2.290382zm-6.326897 2.962342-2.687858 1.235084s-.104111 1.339211-.203484 2.976532c-.946434 11.612724-1.036346 17.537384-1.060013 20.007569-.066246 8.598342 1.145188 20.494987 1.145188 20.494987l.175087 1.618401 3.146888-1.419648.156166-2.678405s.473214-5.678589.667222-19.061135c.118301-8.04467-1.159371-20.390877-1.18776-20.783653-.056785-.823387-.146698-2.366081-.146698-2.366081zm-6.284309 2.924469-2.768311 1.173584c-.014007.949363-.080368 1.897224-.198745 2.839294-.683251 6.742096-1.019677 13.514854-1.00795 20.291489-.104111 8.517883 1.192497 20.461868 1.192497 20.461868l.156166 1.618385 2.839302-1.381782.217674-2.602684s.705086-6.184937.861252-19.681053c.075722-6.951539-1.069473-19.146325-1.116791-20.428734-.004737-.790268-.175094-2.290367-.175094-2.290367zm-6.625023 3.052246-2.053749.832855-.279198 2.806183c-1.159385 11.106361-1.272957 17.556297-1.306083 20.12587-.099373 8.51789 1.419647 20.575424 1.419647 20.575424l.160896 1.788757 2.593224-1.235092.151435-2.673668s.619912-6.298515.804459-19.789894c.104111-7.136101-1.206695-19.113197-1.353393-20.693741-.028389-.776062-.108841-1.736694-.108841-1.736694zm-6.511452 2.933937-1.367588.591514v1.372322c-.752411 5.815835-2.086883 12.819436-2.238315 21.413025-.165627 9.40754 1.802951 20.778916 1.802951 20.778916l.189286 1.793495 1.556881-.747681.250801-2.839294c1.168846-10.467545 1.419647-11.636391 1.537956-20.282044.104103-7.216545-1.140457-14.972541-1.698845-20.518638-.048813-.522186-.063034-1.047028-.042587-1.571076zm-6.246441 2.929207-1.381797.629379s.184562 7.571457-.241345 10.831909c-1.391243 7.694496-1.892864 10.377625-1.717762 14.030853.176747 3.267578.59272 6.517807 1.244545 9.724594.302864 2.053757.402237 3.312516.402237 3.312516l.056782 7.420013 1.33921-.662491s0-6.184936.037854-6.530395c.037864-.345436.037864-.700348.113578-1.589997.231873-2.720993 1.097851-8.267082 1.419648-12.776832.388027-5.815827-.86599-11.324051-1.116795-14.045044-.1325-1.46225-.227135-3.416618-.16563-10.358704zm-6.170742 2.915008-1.310802.558396c.042587 8.820747.042587 11.357177.033115 12.455047-1.272953 6.625023-1.51902 6.960999-1.7225 10.207268-.156169 2.550629.265 4.377251.705086 6.568237.383305 1.892868.847061 3.956085.847061 3.956085l-.037864 12.156914 1.419647-.690887.037865-12.019684s1.192501-6.468872 1.377063-10.174141c.212937-4.448242-1.353409-9.208794-1.353409-10.301926zm-6.151806 2.877144-1.263492.534737v19.59114c0 .473214-.913303 1.717774-1.140438 2.484383-.22715.766625-.567867 1.807694.799721 2.763596.440101.307586.302864 1.296608.340717 1.949646.037865.653045 0 18.356041 0 18.356041l1.301342-.553658v-19.610069c0-.591522 1.892864-2.276169 1.24456-4.074387-.217674-.596252-1.031605-1.306076-1.041065-1.419647-.089912-.936974-.241345-19.998108-.241345-19.998108zm-5.948329 2.801445-1.183041.473221v45.111664l1.187778-.473214zm-5.512963 2.569565-1.197235.501602v45.116409l1.192497-.506332zm21.114895 50.250801c-3.511253 0-7.737083 1.717773-7.661369 5.678589.075718 3.960815 4.197426 5.489311 7.661369 5.489311 3.463944 0 7.240212-1.537956 7.311192-5.489311s-3.714749-5.697518-7.315915-5.697518zm-16.874885.075714c-1.336133-.0252-2.662747.229485-3.894558.747673-2.602688 1.168846-1.892865 3.473419-1.395993 4.060204.567868.761871 1.561608 1.130973 2.839299 1.419647 1.817146.411697 4.258941.563133 5.801631.766609 1.419648.184555 1.315541 1.580536.525261 2.0159-1.339195.728744-4.689571.686157-6.520916-.335991-1.599472-.880173-1.419647-1.717766-1.419647-1.940178h-1.419647v3.785736h1.585278v-.326523c-.037854-.548935.728755-.127777 1.201972.03785 2.616883.903846 6.303223 1.064735 8.413777-.312325 2.366081-1.537949 1.585277-4.41983-1.093125-5.285812-2.030101-.662499-5.314224-.553665-6.975215-1.060013-1.287148-.392761-.903843-2.271431 2.900817-2.124741 3.728943.141983 4.637524 1.864472 4.637524 2.489121h1.282414v-3.473404h-1.37706c.141956.657768-.22715.73822-.50161.473221-.473217-.411698-2.422863-.946427-4.590202-.946427zm25.690898.473213v1.339203h1.263497c.700348.023667.700348.35965.700348.761887v6.113952c0 .298111-.094635.582047-.629372.619912h-1.315536v1.206695h5.924652v-1.291885h-1.348664c-.298134 0-.64357.052063-.64357-.615174v-5.039749l7.902703 6.946808h1.89286v-8.148781c0-.298126.151436-.629371.473213-.629371h1.381798v-1.301339h-5.754303v1.28241h1.263489c.293396.037842.648308.037842.648308.757141v4.221085l-6.762261-6.260636zm16.889077 0v1.315544h1.11206c.445648-.016998.872116.182137 1.14518.534737.037865.056778 3.98922 4.396179 3.98922 4.396179v2.280892c0 .151435-.028405.23661-.307602.23661h-1.64206v1.277687h6.7528v-1.291885h-1.476432c-.283936 0-.283936 0-.283936-.236611v-2.257232s3.563316-4.216355 3.847252-4.505013c.19149-.249359.477447-.408607.79026-.440101h1.306084v-1.315537h-5.583962v1.315537h.847062c.279197 0 .321785.392776.189285.572601l-2.323479 2.735184s-2.030098-2.437058-2.318771-2.716263c-.288651-.279198-.075714-.591522.075722-.591522h.700363v-1.315537zm-25.771332.946434c2.418125 0 4.258942 1.485909 4.258942 4.102791s-1.892865 4.031792-4.258942 4.098038c-2.366081.066253-4.258946-1.481156-4.258946-4.098038s1.836083-4.116989 4.254208-4.116989zm-5.678593 12.431382c-1.836078-.03312-4.074398.946434-4.036533 3.501808.037853 2.555366 2.366081 3.312515 4.258945 3.312515 1.982777 0 3.080628-1.268234 3.208405-2.224121h-.719299c-.265 1.173576-1.585263 1.419647-2.418126 1.419647-1.407272-.015587-2.539116-1.162216-2.536445-2.569565 0-1.37706.728756-2.48912 2.186268-2.6642 1.381782-.175094 2.673667.534729 2.735191 1.64679h.662498v-2.124748h-.719299c.075718.473213-.127762.473213-.283916.293388-.697709-.434708-1.50631-.658234-2.328228-.643562zm42.589436.151435h-.170365c-.656158.030205-1.299682.191101-1.892868.473214-.454582.195472-.79911.582435-.940727 1.056572-.141594.474143-.065689.986671.207253 1.399414.375701.468193.915336.776054 1.509559.861259 1.004021.209015 2.018013.366959 3.03804.473213.946427.141968.752411.970093.274468 1.258759-.99849.629371-2.190987.539459-3.421356-.241341-.823387-.530006-.742951-1.036346-.742951-1.168846h-.742935v2.309296h.832848v-.198761c0-.350174.378578-.094628.634109 0 1.372337.553672 3.312508.653045 4.40564-.18454 1.230362-.946434.856529-2.668945-.572586-3.198944-1.069474-.392761-2.810906-.255539-3.657952-.64357-.757148-.340714-.47322-1.419647 1.514283-1.381798 1.98751.037865 2.446533 1.225624 2.446533 1.60421h.671959v-2.148407h-.724022c.070976.444824-.080437.440094-.288658.335983-.726357-.393646-1.539917-.598655-2.366074-.596245zm-50.884911.165627v.804466h.700352c.269733 0 .340713.151421.340713.388031v3.861443c0 .23661-.07098.340721-.340713.340721h-.700352v.804466h3.629559v-.813927h-.709824c-.27446 0-.335979-.108848-.335979-.345459l.023655-3.861442c0-.231865.056781-.388024.331256-.388024h.709824v-.799736zm20.93507 0v.804466h.705086c.269733 0 .335991.151421.335991.388031v3.033318c0 1.89286 1.556873 2.25251 3.038036 2.25251 1.481171 0 2.948143-.354912 2.929215-2.153137v-2.839302c0-.473214.14669-.648301.321777-.648301h.72876v-.799736h-3.099556v.804474h.700348c.274475 0 .340713.151428.340713.383301v3.127968c0 .671959-.165626 1.419647-1.89286 1.419647-1.552147 0-1.471695-1.216171-1.471695-1.419647v-3.146904c0-.236603.066238-.388024.340713-.388024h.705086v-.828125zm-8.229233 0v2.366081h.757149c0-1.61367.080452-1.509567.719296-1.566345h1.419647v4.258942c0 .23661-.070992.388038-.340714.388038h-.705101v.757134h3.657963v-.766602h-.705086c-.269737 0-.335994-.15142-.335994-.388031v-4.258942h1.419647c.572601.066239.719299-.09465.719299 1.566346h.738217v-2.366082zm-21.16222 0v.818664h.667237c.269737 0 .340717.123024.340717.350182v3.861435c0 .231873-.06152.340721-.335979.340721h-.705086v.804459h3.672146v-.804459h-.719284c-.269738 0-.33598-.104111-.33598-.335991v-1.523742h2.214646c2.006431 0 2.839298-.520539 2.839298-1.807694 0-1.287148-.582062-1.708313-2.366081-1.708313zm38.283181 0v.766609h.667236c.269722 0 .335983.170364.335983.402237v3.856705c0 .236603-.056785.345451-.33126.345451h-.709824v.828125h3.657967v-.813927h-.667237c-.269737 0-.335983-.10411-.335983-.335983v-1.523758h1.802956c.705085 0 1.078933.184548 1.078933.662506v.681427c0 1.230355.785538 1.490631 1.604195 1.490631.9701 0 1.2351-.317062 1.2351-1.419647v-.473221h-.653038v.397499c0 .335984.033127.695633-.269738.695633-.302856 0-.335983-.260261-.335983-.435371v-.894363c-.033127-.752411-.473213-.880188-1.083664-1.031609.714554-.1325 1.542687-.449562 1.547425-1.419647 0-1.164124-.5868-1.73671-2.366082-1.73671zm9.118866 0v.804466h.705085c.269738 0 .335999.156159.335999.388031v3.85672c0 .231873-.066261.345444-.335999.345444h-.705085v.804466h7.372703v-2.366081h-.714546c0 1.201965-.108849 1.504829-.747696 1.566345h-3.274643v-1.954384h1.528481c.203491 0 .331253.075722.331253.392769v.667236h.695633v-2.90554h-.681435v.63884c0 .326522-.127762.397499-.331261.397499h-1.542671v-1.864472h3.288841c.638848.061524.747689.392762.747689 1.590004h.714561v-2.366081zm-44.818276.771339h2.101078c.700352 0 1.173569.217682 1.173569.946434 0 .72876-.473217.946434-1.282414.946434h-1.996971zm40.459961 0h.042587c.512482.023873.922562.433953.946434.946434 0 .596245-.416435.946434-1.178306.946434h-1.996971v-1.892868h2.172065z"/></svg>