<svg height="63" viewBox="0 0 128 63" width="128" xmlns="http://www.w3.org/2000/svg"><path d="m7.093199 1.031067c-4.116205.870525-7.093199 4.363392-7.093199 8.329132 0 3.224182 1.192947 5.631573 3.460621 7.007221.978002.601849 2.181696.978005 4.352645 1.386399 2.332158.429889 3.170445.687824 3.707809 1.128463.773804.634091.816792 1.7733.107472 2.48262-1.246682 1.235936-3.138203 0-3.320906-2.170948l-.064484-.741561h-4.116205-4.126952v5.373634 5.373634h2.83728 2.826532l.075231-.440635c.07523-.483628.644836-1.171452.967254-1.171452.311671 0 .849034.279427 1.891519.988747 1.450882.978 2.794291 1.375652 4.685812 1.375652 4.277413 0 7.952981-2.794292 9.09219-6.931992.333166-1.225189.333166-3.901256 0-5.158691-.655582-2.418133-2.063476-4.169941-4.159193-5.169434-1.257431-.601848-2.848027-.892025-4.857767-.902771-1.472377 0-2.579345-.386901-2.891016-.98875-.548111-1.053234.171956-2.117214 1.332662-1.988247.881276.096725 1.321914.63409 1.397145 1.708817l.042989.623344h4.234425 4.234425v-4.782536-4.782539h-3.062973-3.052225l-.07523.558857c-.053737.36541-.161209.644836-.322418.806046-.386902.386905-.354661.408397-1.880774-.763054-.376153-.290177-.935011-.634087-1.235935-.773804-1.311167-.580353-3.299413-.730816-4.986734-.376152zm26.81444-.096726c-6.050711.945759-9.95197 5.878754-10.596806 13.434086-.558861 6.555836 1.902264 12.004704 6.469856 14.304619 3.073719 1.547608 7.179177 1.698071 10.403359.376156 3.525104-1.429386 6.17968-4.954495 7.103946-9.436104.935013-4.556843.300927-9.597313-1.633583-13.036442-1.601349-2.826534-3.879768-4.621326-6.846016-5.39513-.816791-.204197-1.364902-.26868-2.643829-.300922-.881275-.021496-1.902264 0-2.256927.053737zm2.278423 8.167927c.720066.440636 1.149959 1.870022 1.332661 4.427872.19345 2.869522-.118218 6.147442-.698575 7.25441-.085975.161209-.300918.440639-.494373.62334-.290172.279431-.41914.322419-.913517.322419-.462131 0-.634086-.053734-.859783-.268681-.870525-.806046-1.074726-1.977497-1.074726-6.072208 0-3.449875.107471-4.427876.612594-5.491856.451386-.956505 1.300423-1.278923 2.095719-.795296zm11.961712-3.869018v3.654068h.483627c.623341 0 1.139214.21495 1.429386.591102.236443.300923.236443.311672.236443 6.061463 0 3.170444.053737 6.222667.107471 6.792274.193451 2.052727.978005 3.686314 2.375145 4.986733 1.741062 1.612091 4.191437 2.471874 7.404873 2.600841 6.039967.247185 10.220654-2.21394 11.123425-6.54509.128967-.601844.161209-1.956001.171959-6.996471 0-4.556847.032241-6.351639.128967-6.620323.171951-.49437.591095-.78455 1.246681-.849034l.548111-.053733v-3.632576-3.64333h-5.319901-5.319896v3.64333 3.632576l.333164.075229c.472881.08598.935013.623341 1.010239 1.171452.032249.247188.053741 2.600841.032249 5.233921l-.032249 4.782535-.268677.526619c-.343914.698571-.70932.945759-1.429386 1.010243-.773804.064484-1.375653-.236439-1.708817-.870529l-.247188-.451386v-5.352142-5.362888l.397651-.365406c.236435-.214947.515866-.36541.677075-.36541h.268684v-3.654068-3.654076h-6.824516-6.82452zm26.406051-3.578842c-.042991.032241-.075233 2.891014-.075233 6.340888v6.26566h2.901764 2.901756v-1.913014c0-1.042484.053742-2.084972.118225-2.310665.161209-.580353.601845-1.031738 1.096222-1.117714l.408394-.064483-.032242 5.868007c-.032242 5.728298-.032242 5.868012-.257934 6.168934-.279427.386902-.849038.666332-1.536858.752312l-.548111.06448v3.740051 3.750797h7.361877 7.361886v-3.750797-3.740051l-.548111-.06448c-.687828-.08598-1.257431-.36541-1.536858-.752312-.2257-.300922-.2257-.440636-.257935-6.158184l-.021499-5.846519h.311676c.47287 0 1.03173.526619 1.182197 1.117717.064484.268685.118218 1.332665.118218 2.364403v1.891518h2.901764 2.901764v-6.340889-6.340893h-12.337868c-6.792275 0-12.380859.032242-12.413094.075234zm25.825692 3.578842v3.654068h.386894c.526619 0 1.096222.29018 1.27893.655586.236443.451385.236443 10.811756 0 11.273888-.2257.440639-.644836.730812-1.192955.816791l-.472869.064484v3.750797 3.750797h6.663307 6.663299v-3.740047-3.729305l-.505111-.16121c-.795304-.257934-.892022-.537361-.892022-2.654575v-1.751804h1.880761 1.880775v1.590595c0 .870529-.042984 1.741058-.107475 1.945255-.13971.494377-.49437.849034-.935005.935013l-.354668.064484v3.750797 3.750797h6.663315 6.663307v-3.761543-3.761543h-.290176c-.171952 0-.505127-.096726-.763054-.214947-.35466-.161209-.505127-.311672-.666336-.666332-.193444-.440636-.214943-.741562-.214943-5.599327 0-5.55634.010742-5.674561.580353-6.039967.139717-.096725.494377-.214943.784553-.247189l.515869-.075229v-3.600334-3.600338l-6.631073-.032242-6.641815-.021496v3.654076c0 3.224182.0215 3.654068.161209 3.654068.37616 0 .827545.354664 1.031746.784553.161209.365406.204193.70932.204193 1.708817v1.268177h-1.891518-1.891517l.042984-1.515366.032242-1.515365.397651-.365406c.236443-.214947.515877-.36541.677086-.36541h.268669v-3.654068-3.654076h-6.663299-6.663307zm-38.206559 32.757679v3.589592l.634091.128967c.763065.150459 1.13921.515869 1.246692 1.225189.032235.247185.053727 2.686813.032235 5.416622-.032235 4.814778-.042977 4.965241-.257931 5.255417-.333161.462132-.720066.698574-1.203693.763058l-.451394.064484v3.740047 3.750797h6.878266 6.87825v-3.761543-3.761543h-.397652c-.515861 0-1.042488-.322419-1.289673-.773804-.150467-.290176-.182701-.63409-.193443-1.85928v-1.504619h.870514c.988762.01075 1.321922.150463 1.622856.730816.161209.290176.193443.795299.257927 3.299411.075234 3.331654.204186 4.191437.795303 5.438118.849022 1.78405 2.504113 2.622338 5.126435 2.622338 3.858276-.01075 5.986244-2.117214 6.53434-6.480606.053741-.483628.107483-2.095719.107483-3.589589v-2.719059h-1.020997-1.020996v2.246178c0 1.235939-.032234 2.396645-.064468 2.590096-.085999.408394-.311676.526615-.558861.279426-.150459-.139713-.193458-.462131-.236442-1.547607-.053742-1.21444-.096741-1.440132-.354668-1.977497-.322418-.655583-.945747-1.289673-1.698067-1.730313-.558861-.333164-1.90226-.720066-2.514862-.730812-.859787-.010749-.892021-.171959-.053741-.247188 2.82653-.268681 4.578346-1.547608 5.341408-3.912007.376144-1.128463.46212-3.26717.204193-4.470863-.601845-2.686821-2.751305-4.642822-5.975487-5.395134-.730812-.171951-1.676575-.193451-10.016449-.225689l-9.221169-.042988zm13.810257 3.740051c.225678.064484.569603.268684.763047.462135.859787.85978.666328 3.159699-.311676 3.869019-.247185.182701-.505112.236439-1.375649.257934l-1.063972.042988v-2.299915c0-1.268181.032234-2.342907.075233-2.375149.10746-.118221 1.440132-.085979 1.913017.042988zm14.562538-3.729302v3.578843l.623345.128967c.709328.139713 1.042488.408394 1.203697.988747.150467.515869.139717 9.919731-.010742 10.467842-.193466.70932-.849045 1.235939-1.547608 1.235939h-.268692v3.761543 3.761543h6.609574 6.609573v-3.750797-3.750797l-.354652-.064484c-.72007-.139713-1.031746-.816791-1.042488-2.267673v-.752308l.784553-.612595.773796-.612595.902787 1.794793c.838279 1.687324.892021 1.805542.752296 2.063476-.085976.150463-.311668.311672-.505112.376156l-.343925.096726v3.740051 3.740047h6.663315 6.663314v-3.750797-3.740047l-.419166-.075234c-.23642-.032242-.548088-.171955-.687813-.311668-.257927-.236443-5.051224-9.919731-4.997482-10.080941.021492-.053737.322418-.333168.666328-.623344 1.020996-.859779 2.364411-1.483124 3.643318-1.676575l.397652-.064483v-3.589589-3.600334h-5.964737-5.964729v3.600334 3.600338l.268692.107472c.311676.118221.354652.472881.096718.838287-.15046.225693-2.213944 1.676575-2.568596 1.816288-.128975.042992-.161209-.064483-.161209-.569603.010742-1.246685.386902-1.988247 1.085464-2.12796l.311676-.064484v-3.600338-3.600334h-6.609573-6.609574zm-78.132655 3.589589v-7.179177h8.683791c8.855753 0 9.833752.042988 11.359868.42989 2.837284.730816 4.718052 2.740555 5.276908 5.674561.204197 1.074726.204197 3.492858-.010742 4.481613-.72007 3.406883-3.052231 5.298401-7.0932 5.749786-.526616.053738-2.192439.107475-3.68631.107475h-2.729809l.042988 1.203694c.032244 1.375652.161209 1.719562.72007 2.095718.311662.204197.505115.247189 1.257427.247189h.902767v7.523086h-14.723758v-7.523086h.257931c.763057 0 1.407893-.548111 1.569102-1.343411.075232-.376156.107476-2.246181.085977-5.502605-.032234-4.492356-.053733-4.954491-.225687-5.223171-.225697-.343915-.623346-.558857-1.225195-.666333zm29.071376-5.889504c.161209-.612594.311672-1.160709.333161-1.203693.032234-.042992 2.7513-.08598 6.03997-.08598h5.986225l.902767 3.363896c2.461132 9.145927 4.202179 15.465324 4.352642 15.744751.236443.451385.666329.763057 1.160717.838287l.408398.075234v7.490844h-14.401352v-7.523086h.354653c.870533 0 1.579856-.462136 1.579856-1.020993 0-.128967-.075233-.591098-.171955-1.010242l-.171951-.763058-1.891533.021496-1.902252.032242-.139721.773804c-.257931 1.321914-.021488 1.805542.945766 1.934509l.429882.064484v7.490844h-10.747272v-7.523086h.247185c.763057 0 1.547611-.483628 1.891521-1.171456.247196-.483627 3.417645-12.058433 4.793293-17.528797zm5.642315 12.649536c0-.064483-.225696-1.472377-.505134-3.116707-.268677-1.633586-.526608-2.976993-.569603-2.976993-.042981 0-1.020977 4.234421-1.375653 5.986229-.042976.247185-.03223.247185 1.203697.247185.924275 0 1.246693-.032238 1.246693-.139714zm-19.678259-5.094204c-.096721-.677078-.333162-1.06398-.838289-1.364906-.365406-.214943-2.138706-.386902-2.289171-.214943-.053732.042988-.085976 1.117714-.085976 2.385895v2.299915l1.05323-.042988c.870533-.021495 1.09623-.075233 1.37566-.268684.623337-.451386.945755-1.590595.784546-2.794289z"/></svg>