<svg height="72" viewBox="0 0 542 72" width="542" xmlns="http://www.w3.org/2000/svg"><path d="m509.335938 32.734375c-3.5-1.28125-6.09375-3.109375-7.78125-5.484375s-2.53125-5.21875-2.53125-8.53125c0-5 1.796875-9.203125 5.390625-12.609375s8.375-5.109375 14.34375-5.109375c6 0 10.828125 1.742188 14.484375 5.226563s5.484375 7.726562 5.484375 12.726562c0 3.1875-.835938 5.960938-2.507813 8.320313s-4.210937 4.179687-7.617187 5.460937c4.21875 1.375 7.429687 3.59375 9.632812 6.65625s3.304688 6.71875 3.304688 10.96875c0 5.875-2.078125 10.8125-6.234375 14.8125s-9.625 6-16.40625 6-12.25-2.007812-16.40625-6.023437-6.234375-9.023438-6.234375-15.023438c0-4.46875 1.132812-8.210937 3.398437-11.226562s5.492188-5.070313 9.679688-6.164063zm-1.6875-14.296875c0 3.25 1.046875 5.90625 3.140625 7.96875s4.8125 3.09375 8.15625 3.09375c3.25 0 5.914062-1.023437 7.992187-3.070312s3.117188-4.554688 3.117188-7.523438c0-3.09375-1.070313-5.695312-3.210938-7.804687s-4.804687-3.164063-7.992187-3.164063c-3.21875 0-5.890625 1.03125-8.015625 3.09375s-3.1875 4.53125-3.1875 7.40625zm-2.71875 31.734375c0 2.40625.570312 4.734375 1.710937 6.984375s2.835938 3.992188 5.085938 5.226563 4.671875 1.851562 7.265625 1.851562c4.03125 0 7.359375-1.296875 9.984375-3.890625s3.9375-5.890625 3.9375-9.890625c0-4.0625-1.351563-7.421875-4.054688-10.078125s-6.085937-3.984375-10.148437-3.984375c-3.96875 0-7.257813 1.3125-9.867188 3.9375s-3.914062 5.90625-3.914062 9.84375zm-30.1875 19.828125h-8.4375v-53.765625c-2.03125 1.9375-4.695313 3.875-7.992188 5.8125s-6.257812 3.390625-8.882812 4.359375v-8.15625c4.71875-2.21875 8.84375-4.90625 12.375-8.0625s6.03125-6.21875 7.5-9.1875h5.4375zm-85.125-18.140625 8.4375-1.125c.96875 4.78125 2.617187 8.226563 4.945312 10.335938s5.164063 3.164062 8.507813 3.164062c3.96875 0 7.320312-1.375 10.054687-4.125s4.101563-6.15625 4.101563-10.21875c0-3.875-1.265625-7.070312-3.796875-9.585937s-5.75-3.773438-9.65625-3.773438c-1.59375 0-3.578125.3125-5.953125.9375l.9375-7.40625c.5625.0625 1.015625.09375 1.359375.09375 3.59375 0 6.828125-.9375 9.703125-2.8125s4.3125-4.765625 4.3125-8.671875c0-3.09375-1.046875-5.65625-3.140625-7.6875s-4.796875-3.046875-8.109375-3.046875c-3.28125 0-6.015625 1.03125-8.203125 3.09375s-3.59375 5.15625-4.21875 9.28125l-8.4375-1.5c1.03125-5.65625 3.375-10.039062 7.03125-13.148437s8.203125-4.664063 13.640625-4.664063c3.75 0 7.203125.804688 10.359375 2.414063s5.570312 3.804687 7.242187 6.585937 2.507813 5.734375 2.507813 8.859375c0 2.96875-.796875 5.671875-2.390625 8.109375s-3.953125 4.375-7.078125 5.8125c4.0625.9375 7.21875 2.882813 9.46875 5.835938s3.375 6.648437 3.375 11.085937c0 6-2.1875 11.085938-6.5625 15.257813s-9.906189 6.257812-16.59375 6.257812c-6.03125 0-11.039063-1.796875-15.023438-5.390625s-6.257812-8.25-6.820312-13.96875zm-100.734375-15.328125c0-11.406311 3.062438-20.335937 9.1875-26.789062 6.125061-6.453125 14.031188-9.679688 23.71875-9.679688 6.343811 0 12.0625 1.515625 17.15625 4.546875s8.976562 7.257813 11.648437 12.679688 4.007813 11.570251 4.007813 18.445312c0 6.968811-1.40625 13.203125-4.21875 18.703125s-6.796875 9.664063-11.953125 12.492188-10.71875 4.242187-16.6875 4.242187c-6.468812 0-12.25-1.5625-17.34375-4.6875s-8.953125-7.390625-11.578125-12.796875-3.9375-11.125-3.9375-17.15625zm9.375.140625c0 8.281311 2.226562 14.804688 6.679687 19.570313s10.039001 7.148437 16.757813 7.148437c6.843811 0 12.476562-2.40625 16.898437-7.21875s6.632813-11.640564 6.632813-20.484375c0-5.59375-.945313-10.476562-2.835938-14.648437s-4.65625-7.40625-8.296875-9.703125-7.726562-3.445313-12.257812-3.445313c-6.437562 0-11.976563 2.210938-16.617188 6.632813s-6.960937 11.804626-6.960937 22.148437zm-31.734375 33.328125v-68.71875h9.09375v68.71875zm-70.875 0v-68.71875h23.671875c5.34375 0 9.421875.328125 12.234375.984375 3.9375.90625 7.296875 2.546875 10.078125 4.921875 3.625 3.0625 6.335937 6.976563 8.132812 11.742188s2.695313 10.210937 2.695313 16.335937c0 5.21875-.609375 9.84375-1.828125 13.875s-2.78125 7.367188-4.6875 10.007813-3.992188 4.71875-6.257813 6.234375-5 2.664062-8.203125 3.445312-6.882812 1.171875-11.039062 1.171875zm9.09375-8.109375h14.671875c4.53125 0 8.085937-.421875 10.664062-1.265625s4.632813-2.03125 6.164063-3.5625c2.15625-2.15625 3.835937-5.054687 5.039062-8.695312s1.804688-8.054688 1.804688-13.242188c0-7.187561-1.179688-12.710937-3.539063-16.570312s-5.226562-6.445313-8.601562-7.757813c-2.4375-.9375-6.359375-1.40625-11.765625-1.40625h-14.4375zm-33.328125-60.609375h9.09375v39.703125c0 6.906311-.78125 12.390625-2.34375 16.453125s-4.382813 7.367188-8.460938 9.914063-9.429687 3.820312-16.054687 3.820312c-6.4375 0-11.703125-1.109375-15.796875-3.328125s-7.015625-5.429687-8.765625-9.632812-2.625-9.945252-2.625-17.226563v-39.703125h9.09375v39.65625c0 5.96875.554687 10.367188 1.664062 13.195313s3.015625 5.007812 5.71875 6.539062 6.007813 2.296875 9.914063 2.296875c6.6875 0 11.453125-1.515625 14.296875-4.546875s4.265625-8.859314 4.265625-17.484375zm-86.25 68.71875v-60.609375h-22.640625v-8.109375h54.46875v8.109375h-22.734375v60.609375zm-84.609375-22.078125 8.578125-.75c.40625 3.4375 1.351562 6.257813 2.835937 8.460938s3.789063 3.984375 6.914063 5.34375 6.640625 2.039062 10.546875 2.039062c3.46875 0 6.53125-.515625 9.1875-1.546875s4.632812-2.445312 5.929687-4.242187 1.945313-3.757813 1.945313-5.882813c0-2.15625-.625-4.039062-1.875-5.648437s-3.3125-2.960938-6.1875-4.054688c-1.84375-.71875-5.921875-1.835937-12.234375-3.351562s-10.734375-2.945313-13.265625-4.289063c-3.28125-1.71875-5.726563-3.851562-7.335938-6.398437s-2.414062-5.398438-2.414062-8.554688c0-3.46875.984375-6.710937 2.953125-9.726562s4.84375-5.304688 8.625-6.867188 7.984375-2.34375 12.609375-2.34375c5.09375 0 9.585937.820313 13.476562 2.460938s6.882813 4.054687 8.976563 7.242187 3.21875 6.796875 3.375 10.828125l-8.71875.65625c-.46875-4.34375-2.054688-7.625-4.757813-9.84375s-6.695312-3.328125-11.976562-3.328125c-5.5 0-9.507813 1.007813-12.023438 3.023438s-3.773437 4.445312-3.773437 7.289062c0 2.46875.890625 4.5 2.671875 6.09375 1.75 1.59375 6.320312 3.226563 13.710937 4.898438s12.460938 3.132812 15.210938 4.382812c4 1.84375 6.953125 4.179688 8.859375 7.007813s2.859375 6.085937 2.859375 9.773437c0 3.65625-1.046875 7.101563-3.140625 10.335938s-5.101563 5.75-9.023438 7.546875-8.335937 2.695312-13.242187 2.695312c-6.21875 0-11.429688-.90625-15.632813-2.71875s-7.5-4.539062-9.890625-8.179687-3.648437-7.757813-3.773437-12.351563z"/></svg>