<svg height="140" viewBox="0 0 130 140" width="130" xmlns="http://www.w3.org/2000/svg" xmlns:xlink="http://www.w3.org/1999/xlink"><clipPath id="a"><path clip-rule="evenodd" d="m27.36097 97.478007 1.389143 1.453951 24.891433 10.692868 20.826118.12653 22.561627-9.742763 3.892571-2.222218 9.54653-24.693685-10.437543-42.132011h-71.153449z"/></clipPath><path clip-path="url(#a)" d="m28.738346 31.181541c-.050915.118798-.067886 9.113755-.050915 19.992547l.050915 19.771926h17.056461 17.056466v-19.941642-19.941635h-6.024922-6.024917l-.084862 14.222206c-.084854 13.848831-.101826 14.239174-.407314 14.476776-.492177.356407-8.536721.356407-9.028897 0-.305488-.237602-.32246-.627945-.407314-14.476776l-.084862-14.222206-5.990978-.050911c-4.701134-.033944-6.007946 0-6.058861.169715zm-1.408642 45.449959c-.016971-2.002655 0-3.733757.050913-3.852554.050915-.186691 2.392998-.220635 11.82921-.186691l11.761319.050911v26.984855l-10.607251.084854c-5.838234.050919-10.624223.101838-10.641197.135773-.2376.203659.135775.831612 1.103155 1.748077 7.603281 7.382653 18.074759 12.321389 28.444411 13.40757.950412.10183 1.985679.237603 2.308139.305489l.594002.118805v3.037918l-1.612301-.050919c-2.274192-.067886-5.957035-.627945-8.757351-1.306816-8.061508-1.985679-15.393241-5.719429-21.604848-11.048515-3.47918-2.987-7.942711-7.976654-9.656844-10.827881-.492176-.814636-.543092-.967384-.356403-1.323784.339432-.627952 2.036593-2.511802 2.291166-2.511802.1188 0 .780695.865554 1.4935 1.900817 2.291166 3.445237 3.462208 4.819947 3.784668 4.480515.067888-.067886.169716-1.408646.220633-2.953064l.084856-2.834259 7.518423-.084854c7.212932-.084862 7.535389-.101837 7.772991-.407318.305489-.424294.305489-.967385 0-1.391678-.237602-.305481-.57703-.322457-8.027569-.407318l-7.772993-.084854v-7.637223l7.722082-.084854c4.242901-.050918 7.823906-.152756 7.942711-.220634.271545-.186692.271545-.899498 0-1.086182-.118805-.067894-3.733753-.169716-8.027573-.220634l-7.806936-.084854zm73.283387-5.278175c.441261-1.306809 1.78202-2.494827 3.309463-2.88517.288513-.084854.950409-.10183 1.476532-.067886 2.664536.203659 4.548386 2.409965 4.344727 5.074508-.101822 1.221955-.441262 1.968704-1.306809 2.868202-1.018295 1.086182-1.748077 1.391671-3.411293 1.391671-1.527443 0-2.426941-.305489-3.122772-1.086182-.390358-.424286-.865563-.458237-1.018295-.084854-.135781.356399-.135781 21.078735 0 21.587875.067878.23761.220626.373383.373367.339432.373375-.067886 2.393005-2.613625 3.937416-4.972679.74675-1.120125 1.4935-2.223274 1.697159-2.460884l.339432-.424286 1.103157 1.188011c.594001.64492 1.103149 1.306816 1.103149 1.442589 0 .373375-1.985672 3.326431-3.53009 5.2612-4.259873 5.295135-8.859177 9.317406-14.51072 12.694755-2.800316 1.680191-4.718109 2.613625-7.756027 3.818612-4.650215 1.832931-10.759994 3.190658-15.189583 3.377349l-1.188019.050919.050919-1.442589c.050919-.984352.135773-1.510475.305489-1.62928.118797-.101822.882522-.237595 1.663215-.305481 1.866875-.135773 5.600632-.831612 8.078484-1.476532 5.90612-1.561386 12.253502-4.76902 17.446815-8.79129 2.953057-2.308136 5.312111-4.769028 4.921761-5.142395-.033943-.033951-5.125427-.084862-11.337029-.135773l-11.286125-.084862v-26.815139l11.387947-.084855c8.689461-.067886 11.438866-.135772 11.642525-.288513.135773-.118805.3564-.526123.475205-.916473zm-42.106549 33.196464c-.067886-1.765045-.050915-3.17369.050915-3.360382.135773-.254577.441261-.288513 2.851227-.288513 2.545742 0 2.715462.016968 2.885177.3564.237595.424293.152741 6.177665-.084861 6.3983-.10183.084854-1.323784.118797-2.885174.050911l-2.715458-.10183zm6.652867-3.326438c-.288514.54309-.237603 5.651542.050918 6.05886.220627.305497.424286.322464 2.936089.271546 2.223274-.050911 2.715454-.101822 2.902137-.339432.288521-.390343.288521-5.6176-.016967-6.041885-.169716-.220635-.407318-.288514-1.052239-.23761l-.848579.050918-.084862 2.172364c-.067886 1.900817-.118797 2.206314-.407318 2.42694-.186684.135773-.424286.237603-.526115.237603-.101838 0-.33944-.10183-.526124-.237603-.28852-.220626-.339431-.526123-.407318-2.42694l-.084854-2.172364-.88253-.050918c-.729774-.050904-.916466 0-1.052238.288521zm7.78997 6.262519c-1.1371.084862-1.188019-.067886-1.188019-3.241577 0-1.54441.067894-2.834251.169724-3.020942.169708-.305489.356399-.322457 2.936081-.288521l2.749397.050918.033951 2.885178c.016967 1.578354.067886 3.037918.084854 3.224602.033943.271545-.067887.356407-.560059.390342-.560066.050919-.627952 0-.916466-.627945-.237609-.560058-.407318-.712806-.88253-.797668-.814636-.152741-1.357727.135773-1.54441.814636-.118805.509155-.20366.560066-.882523.610977zm-22.674068-6.347374c-.050915.135773-.067887.526116-.033944.882515l.050919.661896.967377.084862c.526119.050911 1.069217.186684 1.188015.305488.152748.152741.254573.916466.305488 2.291169l.084862 2.070533h2.206306l.084858-2.070533c.050916-1.3747.152746-2.138423.305489-2.291169.118801-.118804.64492-.254577 1.188011-.305488.865555-.067886.984352-.135773 1.120129-.543091.118797-.305489.101825-.594009-.033943-.899498l-.203663-.424286h-3.564034c-2.902149 0-3.59798.050911-3.66587.237602zm12.321388 3.071862c0-.712815-.084858-1.018296-.339432-1.272873-.186687-.186692-.560066-.339432-.848583-.339432-.814636 0-1.188008.509148-1.188008 1.612305 0 1.103149.373372 1.612297 1.188008 1.612297s1.188015-.509148 1.188015-1.612297zm13.068134-.59401c0-.186691-.152748-.492172-.339432-.678863-.186683-.186692-.458236-.339432-.594001-.339432-.373383 0-.933449.627945-.933449 1.018295 0 .390351.560066 1.018296.933449 1.018296.373374 0 .933433-.627945.933433-1.018296zm-22.996525-31.024093c-.050915.118805-.016971 6.177658.050915 13.45848l.118805 13.237854h22.741943v-16.971603l-7.603271-.084854c-7.280823-.084862-7.620255-.101837-7.857857-.407326-.305489-.424286-.305489-.627952 0-1.052238.237602-.305489.560062-.322464 7.772995-.407318l7.518417-.084854v-7.806939l-11.337028-.050918c-8.977982-.033943-11.354004 0-11.404919.169716zm16.038166 16.598228c.271546.271546.339432.560066.339432 1.357735 0 .029342.000023.058182.000046.086525.000458.537048.000763.895088-.167877 1.133781-.337311.477417-1.350533.47728-4.390564.476875-.091011-.000015-.183838-.000022-.278511-.000022-.094674 0-.1875.000007-.278508.000022-3.04002.000405-4.053253.000542-4.390567-.476875-.168637-.238693-.168335-.596733-.167881-1.133781.000026-.028343.000049-.057183.000049-.086525 0-.029351-.000023-.05819-.000049-.086533-.000454-.537048-.000756-.895096.167881-1.133781.337318-.477425 1.350551-.477288 4.390567-.476876.091008.000016.183834.000023.278508.000023 3.937416 0 4.175018.016976 4.497474.339432zm24.43911-3.479179c0-5.464859-.016968-5.702454-.339432-6.024918-.322456-.322464-.560066-.339432-4.158043-.339432-3.597976 0-3.835578.016968-4.158042.339432s-.339432.560059-.339432 6.024918.016968 5.702461.339432 6.024917c.322464.322464.560066.339432 4.158042.339432 3.597977 0 3.835587-.016968 4.158043-.339432.322464-.322456.339432-.560058.339432-6.024917zm12.542023-10.420563c2.002647-.594009 2.206306-3.411293.322456-4.259872-.407318-.186692-.848579-.339432-.984352-.339432s-.577034.15274-.984352.339432c-.577034.25457-.797669.492172-1.086182 1.120124-.288521.678864-.322464.899498-.152748 1.425614.424286 1.425621 1.578362 2.104477 2.885178 1.714134zm-39.662644-38.457657c-.016975-2.986999 0-5.532745.050919-5.634567.050911-.186691 3.445229-.220635 16.750969-.186691l16.683082.050911v24.948257l-10.573303.084862c-1.06369.008865-2.026047.015411-2.896652.021339-6.3022.042885-7.796257.053055-8.117134.671715-.099709.192238-.086136.44323-.068344.772209.007904.146187.01664.307785.01664.486466 0 .17868-.008736.340278-.01664.486465-.017792.328987-.031365.579979.068344.772217.320877.618667 1.814964.628837 8.11731.671722.870552.005928 1.832855.012474 2.896476.02134l10.573303.084846v10.861839h-33.434051v-25.117981l10.658165-.084854c8.976463-.074905 10.78025-.002876 11.106598-.662162.081802-.165261.07077-.376473.05661-.647545-.006142-.117531-.012871-.246308-.012871-.387459 0-.141152.006729-.269928.012871-.387459.01416-.271065.025192-.482277-.05661-.647537-.32634-.659294-2.130127-.587258-11.106598-.662163l-10.658165-.084862z"/></svg>