<?xml version="1.0" encoding="UTF-8"?>
<!-- Generated by Pixelmator Pro 3.6.14 -->
<svg width="2009" height="839" viewBox="0 0 2009 839" xmlns="http://www.w3.org/2000/svg">
    <path id="Path"  stroke="none" d="M 318.079163 384.47168 C 243.201263 390.047974 147.441254 403.949951 148.218353 430.174683 C 149.032074 457.60791 219.613342 510.30957 312.284973 544.640015 C 316.594177 488.5 317.664124 428.994629 318.079163 384.47168 Z M 43.994568 101.7771 C 19.33667 102.509521 0.73291 91.745117 0.285416 76.68335 C -0.044174 65.676514 24.04834 31.309814 38.74585 25.747559 C 48.787903 21.951172 97.705841 3.37207 179.248749 0.949219 C 209.464996 0.051758 260.783325 3.758545 304.110413 10.179443 C 556.340027 47.56543 821.118774 239.899536 826.18457 410.476685 C 829.63501 526.537109 729.370789 635.415405 533.63501 641.234253 C 482.084595 642.76416 434.107056 636.412598 390.467041 624.954224 C 389.522949 653.445435 391.647095 668.529175 351.237488 669.733643 C 326.526245 670.46582 316.894958 630.435059 313.261658 597.866699 C 195.097504 545.43335 123.9021 460.269165 122.900818 426.65918 C 121.415833 376.604248 212.431244 334.850098 318.876648 318.32959 C 320.378357 276.890869 327.38916 171.373413 349.26416 170.724121 C 358.057068 170.462036 376.265869 190.855835 383.142456 222.050903 C 389.388794 250.395508 390.039551 302.080078 390.108765 311.290405 L 398.144958 310.997559 C 547.502075 306.562012 637.020447 353.26001 638.6604 408.572144 C 639.933777 451.44751 601.977905 473.403809 582.064209 473.993652 C 562.154602 474.58374 538.818726 463.255859 538.635803 457.095459 C 538.281677 445.294922 581.132507 442.52002 580.562927 423.44873 C 579.708374 394.668335 460.958374 382.04834 387.793335 381.59668 C 387.687927 406.395508 387.366211 436.334961 387.964539 456.452393 C 388.53833 475.780029 389.742554 525.714966 390.332458 567.377441 C 423.523315 574.404541 457.723755 578.197144 491.244202 577.199951 C 570.121643 574.860352 750.305786 546.09668 746.281677 410.737061 C 740.66626 221.640015 366.760803 47.915283 166.488342 53.864502 C 87.606232 56.206299 40.267487 64.66748 40.499603 72.408691 C 40.650024 77.570557 78.910828 79.560547 79.216248 89.769043 C 79.51709 99.974609 57.483307 101.376221 43.994568 101.7771 Z"/>
    <path id="path1"  fill-rule="evenodd" stroke="none" d="M 883.30957 308.435791 C 896.192139 308.053345 914.669189 338.97583 915.24292 358.303711 C 915.81665 377.631592 920.443237 478.644531 921.794189 507.750488 C 923.14502 536.855835 922.188721 564.73291 920.296631 577.631592 C 918.400879 590.530396 913.713379 596.898315 891.57373 597.553345 C 869.434204 598.208374 859.123291 585.025024 857.243286 565.526245 C 855.363281 546.023315 853.719604 490.705322 854.684082 462.987183 C 855.648315 435.2771 856.95459 382.241699 860.567871 349.036621 C 864.181152 315.831299 873.075806 308.739258 883.30957 308.435791 Z"/>
    <path id="path2"  fill-rule="evenodd" stroke="none" d="M 1011.487549 81.501221 C 1007.812988 72.325439 995.484253 53.782959 951.48999 55.086914 C 855.640503 57.935547 781.897461 128.933716 783.561646 184.882446 C 784.098755 203.060791 792.871704 218.984985 805.762085 232.036255 C 802.405396 241.177124 802.063721 247.290771 802.169189 250.780029 C 802.458374 260.500854 817.086304 286.15625 828.312988 285.82251 C 837.809937 285.539673 844.295776 276.644531 853.447021 262.236328 C 869.072021 268.268677 884.648315 271.34082 897.001709 270.974609 C 987.126221 268.297119 1068.897095 183.84082 1067.293701 129.80835 C 1066.553345 104.93457 1050.432129 80.886719 1011.487549 81.501221 Z M 875.448242 215.729492 C 886.544189 200.064209 944.072021 123.031738 1003.365845 121.269531 C 1020.768799 120.75293 1025.358765 131.519531 1025.712524 143.414917 C 1026.262085 161.939087 992.700928 216.077515 917.13916 218.321655 C 900.574219 218.814209 886.613281 217.568726 875.448242 215.729492 Z M 828.557129 190.164185 C 827.189575 187.897461 825.900024 184.296631 825.73291 178.681152 C 825.362915 166.303345 846.733276 118.87085 900.501343 114.977051 C 886.804688 124.374146 872.949585 136.404175 859.241333 151.80957 C 846.34668 166.296997 836.092407 179.04541 828.557129 190.164185 Z"/>
    <path id="path3"  fill-rule="evenodd" stroke="none" d="M 1117.11084 303.25 C 1169.877563 301.68335 1235.98291 308.52124 1236.483276 325.393799 C 1236.776245 335.26709 1231.608765 355.874634 1203.451172 358.727173 C 1170.243774 362.094116 1002.734985 369.20874 1003.349121 389.885498 C 1003.670776 400.820801 1054.008789 403.241577 1100.179565 406.04126 C 1147.60791 408.914185 1223.792114 410.694092 1226.070801 487.462158 C 1227.869263 548.066162 1204.936279 560.879517 1194.613281 565.705322 C 1181.510864 571.833252 1137.480469 588.572998 1103.727905 589.574219 C 1001.994629 592.597412 960.050781 534.137817 959.167969 504.425781 C 958.386719 478.046631 985.5271 454.641724 1031.165039 453.286621 C 1076.799194 451.931641 1147.469604 468.386719 1148.0271 487.161255 C 1148.47876 502.375 1117.310059 510.195801 1103.52417 510.606689 C 1041.248413 512.458252 1044.303711 487.148804 1008.411255 488.214966 C 987.968384 488.825317 959.282104 532.257935 1061.727417 529.214233 C 1153.003418 526.504517 1180.6604 496.422119 1180.17627 480.26001 C 1179.541748 458.869141 1114.046631 448.44458 1076.164185 446.479126 C 1038.277832 444.513672 981.425415 444.77417 962.028687 432.502075 C 942.631714 420.237915 945.35376 392.477539 952.067505 369.52417 C 966.109497 321.532104 1064.3396 304.81665 1117.11084 303.25 Z"/>
    <path id="path4"  fill-rule="evenodd" stroke="none" d="M 1297.315063 323.112915 C 1332.97168 322.052856 1407.719604 483.730835 1420.317139 483.356567 C 1432.915039 482.982178 1423.547974 445.587891 1415.588745 404.283325 C 1397.587524 310.857178 1369.511719 262.687988 1395.894897 261.904541 C 1415.385376 261.324951 1479.317871 323.177979 1482.874146 442.959595 C 1484.526245 498.574585 1476.69751 571.361328 1426.306763 572.858643 C 1378.52832 574.274536 1324.089111 423.415894 1311.727417 423.782104 C 1305.070435 423.981567 1304.509155 517.243286 1302.730835 545.368286 C 1300.94873 573.489136 1291.166626 588.52832 1275.476685 588.996216 C 1251.709595 589.699951 1241.276611 566.934204 1239.942139 522.016235 C 1238.607422 477.098389 1253.345459 324.417114 1297.315063 323.112915 Z"/>
    <path id="path5"  stroke="none" d="M 1659.86377 410.586304 C 1676.742065 410.085815 1691.647095 407.26416 1690.157471 429.194092 C 1688.664185 451.12207 1687.740845 459.95166 1670.150391 460.472534 L 1579.920044 463.154175 C 1576.9375 473.188232 1569.222412 499.046753 1565.751709 509.960083 C 1561.4021 523.647949 1575.110474 520.624512 1592.80249 515.579224 C 1610.494507 510.533325 1658.512939 501.496216 1678.243652 500.9104 C 1697.974243 500.324585 1712.712036 531.761719 1701.375854 542.564575 C 1690.039673 553.36792 1629.000366 604.897949 1565.300049 606.790039 C 1537.9646 607.599609 1500.855103 583.727173 1499.585449 540.949585 C 1498.909912 518.30127 1508.008423 487.905884 1516.716187 464.30542 C 1514.592041 462.966675 1512.976685 459.854126 1511.723389 453.046631 C 1508.887085 437.669678 1501.96167 420.750854 1527.567871 417.845459 C 1529.622925 417.61377 1532.203003 417.371582 1535.205811 417.123291 L 1556.356201 373.5625 C 1547.774902 372.303345 1540.357178 370.411255 1534.644165 367.682861 C 1519.092529 360.256714 1506.970825 341.148804 1506.718384 332.591675 C 1506.161255 313.817139 1643.811646 302.59082 1675.663696 301.646729 C 1709.888428 300.629517 1719.605103 307.237549 1730.534546 322.852417 C 1741.463745 338.465332 1745.602051 349.522949 1745.727905 353.80127 C 1745.854126 358.080078 1741.887085 368.66333 1700.529541 369.89209 C 1679.37085 370.520752 1645.166748 374.087524 1612.342163 375.295776 L 1598.051636 413.387939 C 1629.980835 411.807129 1659.86377 410.586304 1659.86377 410.586304 Z"/>
    <path id="path6"  fill-rule="evenodd" stroke="none" d="M 1753.133667 540.729492 C 1716.175049 613.64209 1691.297119 690.900391 1693.026245 749.054932 C 1694.971313 814.582031 1735.213745 839.024658 1747.441284 838.662476 C 1759.668335 838.296265 1760.278809 818.907593 1762.476318 804.45459 C 1774.92334 722.626587 1796.37085 650.116577 1820.830078 589.18335 C 1830.526367 591.625 1840.125 592.752075 1849.003906 592.487427 C 1923.946777 590.261719 2010.803711 500.719238 2007.97168 405.384155 C 2006.478516 355.044556 1987.231934 319.342896 1954.96875 320.301147 C 1907.788574 321.703003 1839.942139 393.034668 1785.466187 482.571289 C 1780.599487 446.239258 1809.245361 390.296265 1833.675781 351.187134 C 1850.834473 323.719116 1847.827881 291.061279 1840.69873 291.272827 C 1830.713379 291.570068 1734.037964 373.415894 1737.370361 485.684204 C 1738.02124 507.48999 1743.705811 525.796265 1753.133667 540.729492 Z M 1853.125488 518.045044 C 1898.250977 429.80835 1944.78418 379.51123 1961.145264 379.0271 C 1989.518799 378.182861 1965.503174 506.509155 1853.125488 518.045044 Z"/>
</svg>
