<?xml version="1.0" encoding="UTF-8"?>
<!-- Generated by Pixelmator Pro 3.6.14 -->
<svg width="2500" height="1627" viewBox="0 0 2500 1627" xmlns="http://www.w3.org/2000/svg">
    <path id="Path" fill="#000000" stroke="none" d="M 1976.791626 1437.274902 C 1969.416626 1440.741577 1960.091675 1441.466675 1947.641602 1441.466675 L 1942.208374 1441.466675 L 1942.208374 1384.525024 C 1942.208374 1374.658325 1943.358398 1372.075073 1959.666748 1372.075073 C 1974.858398 1372.075073 1998.56665 1381.824951 1998.56665 1405.591675 C 1998.56665 1417.716553 1992.741699 1429.341675 1976.791626 1437.274902 Z M 2432.891602 1421.399902 L 2424.283447 1418.93335 C 2398.783447 1412.016724 2383.891602 1404.583374 2383.891602 1392.216675 C 2383.891602 1380.324951 2397.974854 1370.666626 2418.008301 1370.666626 C 2448.966797 1370.666626 2462.733398 1388.233276 2471.350098 1404.583374 L 2488.583496 1402.849976 C 2484.275146 1386.025024 2481.541748 1373.908325 2479.966797 1364.241699 C 2474.849854 1363.241699 2468.583496 1362.258301 2459.550049 1360.775024 C 2447.636475 1358.790527 2435.577637 1357.806519 2423.5 1357.833374 C 2361.891602 1357.833374 2329.75 1380.56665 2329.75 1408.55835 C 2329.75 1435.008423 2365.81665 1448.141602 2398.391602 1457.299927 L 2404.274902 1459.050049 C 2428.583252 1465.466675 2443.466797 1474.158325 2443.466797 1488.733276 C 2443.466797 1504.81665 2427.80835 1513.225098 2407.424805 1513.225098 C 2368.975098 1513.225098 2345.81665 1485.766602 2337.591553 1471.416626 L 2320.324951 1474.625 C 2324.533447 1489.416626 2329.06665 1501.666626 2332.18335 1512.208252 C 2319.216553 1510.666626 2308.816895 1506.833252 2290.516602 1491.208252 C 2266.208496 1470.43335 2240.708496 1447.633423 2216.766602 1424.133301 C 2232.983398 1412.008301 2252.300049 1399.383301 2273.133301 1386.541626 C 2293.216797 1373.908325 2305.19165 1370.824951 2327.216553 1369.333252 L 2327.216553 1361.524902 L 2223.716797 1361.524902 L 2223.716797 1369.333252 L 2238.383301 1370.375 C 2248.825195 1371.083374 2244.574951 1377.833252 2239.133545 1382.324951 C 2216.758301 1401.133301 2193.191895 1419.44165 2164.983398 1439.741699 L 2164.983398 1401.133301 C 2164.983398 1374.383301 2168.116699 1370.824951 2193.574951 1369.333252 L 2193.574951 1361.524902 L 2073.100098 1361.524902 L 2073.100098 1369.333252 C 2100.141602 1370.833374 2103.208252 1374.391724 2103.208252 1401.133301 L 2103.208252 1482.800049 C 2103.208252 1498.550049 2102.083252 1507.408325 2096.074951 1510.841675 C 2087.099854 1515.008301 2080.68335 1512.341675 2074.024902 1507.408325 C 2067.81665 1502.44165 2059.258301 1492.18335 2046.008301 1479.083374 C 2034.741699 1467.699951 2020.366699 1450.641602 2014.925049 1443.69165 C 2043.658325 1436.525024 2065.083252 1423.658447 2065.083252 1401.883301 C 2065.083252 1387.258301 2053.43335 1376.133301 2037.858276 1369.966675 C 2022.708374 1363.741699 2002.466675 1361.524902 1972.158325 1361.524902 L 1848.533325 1361.524902 L 1850.816772 1369.333252 C 1876.858398 1370.833374 1877.716675 1374.391724 1877.716675 1401.133301 L 1877.716675 1482.800049 C 1877.716675 1509.516602 1874.591675 1513.074951 1846.991699 1514.56665 L 1846.991699 1522.416748 L 1972.158325 1522.416748 L 1972.158325 1514.56665 C 1945.324951 1513.074951 1942.208374 1509.516602 1942.208374 1482.791626 L 1942.208374 1453.108398 L 1947.25 1453.108398 C 1954.625 1453.108398 1960.083374 1456.824951 1963.566772 1462.024902 C 1973.31665 1475.866699 1984.200073 1491.208252 1995.866699 1501.841675 C 2011.375 1516.225098 2024.008301 1525.43335 2078.125 1524.375 C 2082.225098 1524.375 2097.658203 1523.275024 2101.19165 1522.416748 L 2195.508301 1522.416748 L 2195.508301 1514.56665 C 2168.116699 1513.074951 2164.25 1509.516602 2164.991699 1482.791626 L 2164.991699 1443.208374 L 2165.791504 1443.208374 C 2193.958252 1470.199951 2234.291504 1506.575073 2248.975098 1522.416748 L 2337.824951 1522.416748 L 2337.824951 1517.266724 C 2344.502686 1518.978149 2351.221436 1520.525757 2357.975098 1521.908325 C 2371.925537 1524.655762 2386.106445 1526.067749 2400.324951 1526.125 C 2461.133301 1526.125 2499.991699 1503.841675 2499.991699 1473.375 C 2500 1444.43335 2469.008301 1431.56665 2432.891602 1421.399902"/>
    <path id="path1" fill="#000000" stroke="none" d="M 1751.166626 1513.225098 C 1712.333252 1513.225098 1685.383301 1480.591675 1685.383301 1435.783447 C 1685.383301 1392.483276 1710.758301 1370.666626 1741.275024 1370.666626 C 1775.358276 1370.666626 1803.924927 1398.166626 1803.924927 1447.908325 C 1803.924927 1492.724976 1785.283325 1513.225098 1751.175049 1513.225098 Z M 815.333313 1462.883423 L 838.900024 1414.983398 L 840.06665 1414.983398 L 863.983337 1462.883423 L 815.333313 1462.883423 Z M 482.94165 1440.833252 C 475.691681 1444.341675 466.508331 1445.083374 454.266663 1445.083374 L 448.916656 1445.083374 L 448.916656 1387.43335 C 448.916656 1377.391724 450.074982 1374.800049 466.125 1374.800049 C 481.008331 1374.800049 504.308319 1384.633423 504.308319 1408.733398 C 504.308319 1421.008301 498.608337 1432.81665 482.94165 1440.833252 Z M 181.25 1508.833374 C 154.975006 1508.833374 142.941666 1501.30835 142.941666 1471.44165 L 142.941666 1342.55835 C 142.941666 1334.175049 143.474991 1326.458374 146.21666 1325.791748 C 150.050003 1324.458252 157.183334 1323.416626 169.774994 1323.416626 C 216.28334 1323.416626 275.966675 1343.56665 275.966675 1415.716675 C 275.966675 1475.133301 228.316666 1508.825073 181.25 1508.825073 Z M 1877.649902 1439.974976 C 1877.649902 1390.966675 1821.75 1357.833374 1749.208374 1357.833374 C 1692.158325 1357.833374 1653.966675 1374.583252 1632.56665 1396.666748 C 1645.675049 1371.300049 1654.375 1355.166626 1655.56665 1353.200073 C 1674.025024 1323.333374 1678.93335 1320.508301 1709.325073 1317.783325 L 1709.325073 1306.333252 L 1579.55835 1306.333252 L 1579.55835 1317.774902 L 1600.18335 1319.141602 C 1623.574951 1320.516724 1625.150024 1326.033325 1618.099976 1345.416626 C 1610.491699 1365.450073 1590.400024 1413.350098 1571.43335 1453.083252 L 1570.349976 1451.233276 L 1487.81665 1306.56665 L 1449.80835 1306.56665 L 1378.69165 1451.233276 L 1377.591675 1453.075073 L 1326.033325 1338.966675 C 1319.533325 1325.025024 1321.166626 1320.833374 1341.241699 1319.141602 L 1358.608398 1317.774902 L 1358.608398 1306.333252 L 1189.216553 1306.333252 L 1189.216553 1317.774902 C 1214.175049 1319.80835 1223.949951 1323.008301 1238.608276 1351.18335 L 1245.266724 1364.100098 L 1164.375 1364.100098 L 1103.875 1463.391602 L 1034.658325 1364.108276 L 941.708313 1364.108276 L 941.708313 1372.041748 C 972.93335 1373.824951 976.125 1378.375 973.358337 1409.983276 L 969.016663 1460.666626 C 967.016663 1483.483398 964.641724 1496.766724 962.658325 1504.525024 C 962.008362 1507.19165 961.55835 1510.408325 959.208374 1510.94165 C 956.508301 1511.358276 950.5 1501.974976 945.366699 1492.758301 C 929.474548 1464.508911 913.763184 1436.158447 898.233337 1407.708374 L 872.375 1360.333374 L 846.133362 1363.833374 L 770.116699 1493.5 C 769.292114 1494.904297 768.441956 1496.293457 767.56665 1497.666748 C 764.674988 1501.466675 761.708313 1506.333252 758.733276 1508.366699 C 750.233337 1514.391724 728.274963 1515.908325 712.816711 1515.908325 C 700.841675 1515.908325 691.958374 1515.641724 685.783325 1513.658325 C 678.858337 1511.391724 678.058289 1503.275024 678.058289 1490.266724 L 678.058289 1449.366699 L 697.366638 1449.366699 C 730.56665 1449.366699 731.724976 1450.883301 735.583313 1472.93335 L 752.583313 1472.93335 L 752.583313 1413.766602 L 735.583313 1413.766602 C 731.724976 1432.81665 730.56665 1434.325073 697.366638 1434.325073 L 678.058289 1434.325073 L 678.058289 1385.925049 C 678.058289 1377.125 678.858337 1375.341675 693.508362 1375.341675 L 700.075012 1375.341675 C 720.550049 1375.341675 733.300049 1376.800049 739.458313 1381.075073 C 745.633301 1385.116699 749.875 1393.94165 753.741638 1406.241577 L 770.716675 1405.474976 C 768.816711 1386.666626 766.858337 1368.358398 766.5 1364.108276 L 583.5 1364.108276 L 583.5 1372.041748 C 609.350037 1373.55835 612.44165 1377.125 612.44165 1404.233276 L 612.44165 1486.966675 C 612.44165 1510.833374 610.008301 1515.050049 589.141663 1516.741699 C 585.333923 1514.925293 581.744385 1512.683228 578.441711 1510.05835 C 572.325012 1505.05835 563.908325 1496.533325 550.924988 1483.224976 C 539.875 1471.68335 525.725037 1454.391602 520.375 1447.358398 C 548.633301 1440.075073 569.650024 1427.05835 569.650024 1404.974976 C 569.650024 1390.175049 558.175049 1378.916748 542.900024 1372.641602 C 528.016663 1366.341675 508.166656 1364.116699 478.358337 1364.116699 L 361.483307 1364.116699 C 353.074982 1353.116577 341.841675 1343.724976 329.625 1336.533325 C 292.925018 1314.69165 237.091675 1306.666748 169.774994 1306.666748 L 9.891667 1306.666748 L 9.891667 1319.741699 C 45.491669 1321.766602 49.866669 1324.108398 49.866669 1360.366699 L 49.866669 1471.091675 C 49.866669 1507.350098 45.491669 1511.541626 5.525 1513.533325 L 5.525 1524.833252 L 146.775009 1524.833252 C 273.224976 1524.833252 376.699982 1488.908447 376.699982 1405.300049 C 376.699982 1393.68335 373.166656 1382.69165 367.308319 1372.733276 C 385.408325 1374.733398 387.81665 1380.341553 387.81665 1404.233276 L 387.81665 1486.966675 C 387.81665 1514.074951 384.783325 1517.666626 357.649994 1519.150024 L 357.649994 1527.116699 L 478.333344 1527.116699 L 478.333344 1519.150024 C 452 1517.666626 448.916656 1514.06665 448.916656 1486.966675 L 448.916656 1456.891602 L 453.908356 1456.891602 C 461.158325 1456.891602 466.508331 1460.675049 469.958344 1465.891602 C 479.491669 1479.958374 490.191681 1495.491699 501.666687 1506.31665 C 516.916626 1520.841553 529.541626 1528.366577 583.775024 1529.108276 C 591.650024 1528.866699 596.608337 1527.950073 599.31665 1527.116699 L 821.041687 1527.116699 L 821.041687 1519.150024 L 810.016724 1518.408325 C 792.541687 1517.158447 792.158325 1512.825073 797.474976 1502.033325 L 808.891663 1477.991577 L 871.224976 1477.991577 L 884.908386 1503.549927 C 889.833313 1512.583252 889.091675 1516.891602 875.033325 1518.133301 L 863.625 1519.150024 L 863.625 1527.116699 L 1031.508301 1527.116699 L 1031.508301 1519.150024 C 1005.766663 1517.900024 997.091675 1513.833374 995.483337 1504.533447 C 993.916626 1496.766724 993.483337 1484.708252 994.68335 1463.19165 L 997.474976 1407.508301 L 998.275024 1407.508301 L 1070.641724 1524.349976 L 1091.974976 1524.349976 L 1168.31665 1398.708374 L 1169.900024 1398.708374 L 1171.083374 1486.958374 C 1171.5 1514.841675 1170.30835 1517.400024 1140.650024 1519.150024 L 1140.650024 1527.116699 L 1264.449951 1527.116699 L 1264.449951 1519.150024 C 1235.949951 1517.400024 1235.158325 1514.841675 1233.991577 1486.966675 L 1230.016724 1402.958252 C 1229.008301 1380.216553 1230.074951 1375.016602 1249.775024 1372.908325 L 1330.375 1529.491699 L 1372.18335 1529.491699 L 1444.93335 1391.600098 L 1446.016724 1391.600098 L 1525.833374 1529.491699 L 1567.650024 1529.491699 C 1582.01709 1498.499512 1596.835449 1467.718506 1612.099976 1437.158325 C 1611.809692 1439.49707 1611.662109 1441.851563 1611.658325 1444.208252 C 1611.658325 1489.724976 1663.574951 1526.125 1743.658325 1526.125 C 1819.758301 1526.125 1877.649902 1492.958374 1877.649902 1439.974976 M 2.558333 1605.625 L 726.150024 1605.625 L 726.150024 1596.5 L 2.558333 1596.5 L 2.558333 1605.625 Z"/>
    <path id="path2" fill="#000000" stroke="none" d="M 5.141666 1603.033325 L 723.583374 1603.033325 L 723.583374 1599.083374 L 5.141666 1599.083374 L 5.141666 1603.033325 Z M 2.558333 1608.175049 L 2.558333 1605.625 L 5.141666 1605.625 L 2.558333 1605.625 L 2.558333 1608.175049 L 0 1608.175049 L 0 1593.94165 L 728.733337 1593.94165 L 728.733337 1608.175049 L 2.558333 1608.175049 M 1771.283325 1605.5 L 2494.883301 1605.5 L 2494.883301 1596.375 L 1771.283325 1596.375 L 1771.283325 1605.5 Z"/>
    <path id="path3" fill="#000000" stroke="none" d="M 1773.833374 1602.916748 L 2492.333252 1602.916748 L 2492.333252 1598.93335 L 1773.833374 1598.93335 L 1773.833374 1602.916748 Z M 1771.283325 1608.05835 L 1771.283325 1605.5 L 1773.841553 1605.5 L 1771.283325 1605.5 L 1771.283325 1608.05835 L 1768.700073 1608.05835 L 1768.700073 1593.783325 L 2497.474854 1593.783325 L 2497.474854 1608.05835 L 1771.283325 1608.05835 M 762.858337 1602.675049 L 779.916626 1602.675049 L 771.533325 1585.708374 L 771.116638 1585.708374 L 762.858337 1602.675049 Z M 779.758301 1621.924927 L 783.775024 1621.608398 C 788.708313 1621.158325 788.975037 1620.275024 787.25 1617.06665 L 782.43335 1608 L 760.600037 1608 L 756.583313 1616.525024 C 754.858337 1620.358276 754.858337 1621.241699 760.983337 1621.69165 L 764.841675 1621.93335 L 764.841675 1625.43335 L 733.791687 1625.43335 L 733.791687 1621.93335 C 740.591675 1621.333374 742.583313 1620.983398 746.983337 1613.491699 L 773.641663 1567.550049 L 782.858337 1566.299927 L 791.916626 1583.116699 C 797.36676 1593.183105 802.872375 1603.21936 808.43335 1613.225098 C 812.716675 1620.974976 815.125 1621.425049 821.633362 1621.924927 L 821.633362 1625.43335 L 779.75 1625.43335 L 779.75 1621.93335 M 904.424988 1626.033325 L 892.983337 1626.033325 L 843.658325 1584.075073 L 843.391663 1584.075073 L 843.391663 1600.44165 C 843.391663 1609.775024 843.925049 1614.658325 844.458313 1617.416626 C 845.116699 1620.541626 848.708374 1621.69165 857.508362 1621.93335 L 857.508362 1625.43335 L 824.30835 1625.43335 L 824.30835 1621.93335 C 830.19165 1621.783325 833.641663 1620.541626 834.325012 1617.416626 C 834.858337 1614.658325 835.391663 1609.783325 835.391663 1600.44165 L 835.391663 1584.075073 C 835.391663 1577.508301 835.133362 1576.349976 832.458313 1573.849976 C 830.458313 1572.016602 827.108337 1571.383301 822.325012 1571.083374 L 822.325012 1567.641724 L 851.774963 1567.641724 L 896.166687 1604.525024 L 896.43335 1604.525024 L 896.43335 1592.633301 C 896.43335 1583.300049 895.900024 1578.400024 895.391663 1575.666748 C 894.716675 1572.516602 891.116638 1571.383301 882.31665 1571.083374 L 882.31665 1567.641724 L 916.31665 1567.641724 L 916.31665 1571.083374 C 909.658325 1571.291626 906.183289 1572.516602 905.500061 1575.666748 C 905 1578.400024 904.433289 1583.291626 904.433289 1592.633301 L 904.433289 1626.033325 M 954.858337 1611.208374 C 954.858337 1620.775024 955.900024 1621.425049 965.108337 1621.93335 L 965.108337 1625.43335 L 921.908325 1625.43335 L 921.908325 1621.93335 C 931.116699 1621.43335 932.18335 1620.775024 932.18335 1611.208374 L 932.18335 1581.875 C 932.18335 1572.275024 931.116699 1571.658325 921.908325 1571.083374 L 921.908325 1567.641724 L 965.116699 1567.641724 L 965.116699 1571.083374 C 955.900024 1571.658325 954.866638 1572.275024 954.866638 1581.875 L 954.866638 1611.208374 M 1081.366699 1567.641724 L 1081.366699 1571.083374 C 1071.266724 1571.741577 1070.724976 1572.099976 1071.116699 1581.424927 L 1072.449951 1611.208374 C 1072.841675 1621.074951 1073.108276 1621.333374 1082.699951 1621.93335 L 1082.699951 1625.43335 L 1040.983276 1625.43335 L 1040.983276 1621.93335 C 1050.966675 1621.333374 1051.383301 1621.074951 1051.233398 1611.208374 L 1050.849976 1579.875 L 1050.31665 1579.875 L 1024.583252 1624.425049 L 1017.391663 1624.425049 L 992.991638 1583.025024 L 992.724976 1583.025024 L 991.775024 1602.766724 C 991.391663 1610.408325 991.508362 1614.658325 992.075012 1617.416626 C 992.575012 1620.68335 995.516663 1621.516724 1004.200012 1621.93335 L 1004.200012 1625.43335 L 971.241699 1625.43335 L 971.241699 1621.93335 C 977.658325 1621.599976 980.19165 1620.68335 980.991699 1617.416626 C 981.641663 1614.658325 982.44165 1609.958252 983.133301 1601.875 L 984.583374 1583.891724 C 985.5 1572.69165 984.466675 1571.741577 973.916687 1571.083374 L 973.916687 1567.641724 L 1005.233337 1567.641724 L 1028.591675 1602.858398 L 1048.983276 1567.641724 L 1081.366699 1567.641724 M 1114.708374 1602.675049 L 1131.766602 1602.675049 L 1123.391724 1585.708374 L 1122.974976 1585.708374 L 1114.708374 1602.675049 Z M 1131.650024 1621.924927 L 1135.633301 1621.608398 C 1140.56665 1621.158325 1140.833252 1620.275024 1139.108276 1617.06665 L 1134.291748 1608 L 1112.416748 1608 L 1108.433228 1616.525024 C 1106.68335 1620.358276 1106.68335 1621.241699 1112.833252 1621.69165 L 1116.699951 1621.93335 L 1116.699951 1625.43335 L 1085.641602 1625.43335 L 1085.641602 1621.93335 C 1092.416626 1621.333374 1094.43335 1620.983398 1098.833374 1613.491699 L 1125.491699 1567.550049 L 1134.708252 1566.299927 L 1143.766602 1583.116699 C 1149.21936 1593.183105 1154.727783 1603.219482 1160.291626 1613.225098 C 1164.56665 1620.974976 1166.949951 1621.425049 1173.516724 1621.924927 L 1173.516724 1625.43335 L 1131.641602 1625.43335 L 1131.641602 1621.93335 M 1212.56665 1611.208374 C 1212.56665 1620.775024 1213.633301 1621.425049 1224.841675 1621.93335 L 1224.841675 1625.43335 L 1178.158325 1625.43335 L 1178.158325 1621.93335 C 1188.858276 1621.43335 1189.899902 1620.775024 1189.899902 1611.208374 L 1189.899902 1572.275024 L 1187.641602 1572.275024 C 1178.69165 1572.275024 1175.099976 1573.341675 1172.958374 1574.916748 C 1171.383301 1576.258301 1169.775024 1578.583252 1168.024902 1583.533325 L 1162.44165 1583.533325 C 1162.975098 1576.083374 1163.775024 1569.966675 1164.041626 1565.416748 L 1168.175049 1565.416748 C 1170.175049 1567.466675 1171.508301 1567.641724 1175.108398 1567.641724 L 1228.325073 1567.641724 C 1231.775024 1567.641724 1232.425049 1567.141602 1234.591675 1565.416748 L 1238.69165 1565.416748 C 1238.841675 1569.166748 1239.525024 1576.708374 1240.18335 1583.300049 L 1234.299927 1583.533325 C 1232.30835 1578.224976 1230.858398 1575.93335 1228.833374 1574.391724 C 1226.574951 1572.80835 1222.166748 1572.275024 1215.783325 1572.275024 L 1212.575073 1572.275024 L 1212.575073 1611.208374 M 1278.958374 1611.208374 C 1278.958374 1620.775024 1280.025024 1621.425049 1289.241699 1621.93335 L 1289.241699 1625.43335 L 1246.033325 1625.43335 L 1246.033325 1621.93335 C 1255.241699 1621.43335 1256.31665 1620.775024 1256.31665 1611.208374 L 1256.31665 1581.875 C 1256.31665 1572.275024 1255.233398 1571.658325 1246.033325 1571.083374 L 1246.033325 1567.641724 L 1289.241699 1567.641724 L 1289.241699 1571.083374 C 1280.025024 1571.658325 1278.958374 1572.275024 1278.958374 1581.875 L 1278.958374 1611.208374 M 1322.43335 1594.333252 C 1322.43335 1610.416626 1331.5 1622.108398 1344.583374 1622.108398 C 1356.049927 1622.108398 1362.325073 1614.741699 1362.325073 1598.666626 C 1362.325073 1580.800049 1352.68335 1570.93335 1341.241699 1570.93335 C 1330.966675 1570.93335 1322.43335 1578.766602 1322.43335 1594.324951 Z M 1387.099976 1595.833374 C 1387.099976 1614.833374 1367.641724 1626.75 1342.050049 1626.75 C 1315.125 1626.75 1297.658325 1613.666626 1297.658325 1597.333252 C 1297.658325 1582.94165 1312.041748 1566.299927 1343.900024 1566.299927 C 1368.325073 1566.299927 1387.099976 1578.216675 1387.099976 1595.841553 M 1474.833252 1626.033325 L 1463.358276 1626.033325 L 1414.025024 1584.075073 L 1413.758301 1584.075073 L 1413.758301 1600.44165 C 1413.758301 1609.775024 1414.324951 1614.658325 1414.825073 1617.416626 C 1415.508301 1620.541626 1419.108276 1621.69165 1427.908325 1621.93335 L 1427.908325 1625.43335 L 1394.674927 1625.43335 L 1394.674927 1621.93335 C 1400.56665 1621.783325 1404.033325 1620.541626 1404.69165 1617.416626 C 1405.224976 1614.658325 1405.766724 1609.783325 1405.766724 1600.44165 L 1405.766724 1584.075073 C 1405.766724 1577.508301 1405.508301 1576.349976 1402.825073 1573.849976 C 1400.824951 1572.016602 1397.516602 1571.383301 1392.69165 1571.083374 L 1392.69165 1567.641724 L 1422.174927 1567.641724 L 1466.574951 1604.525024 L 1466.824951 1604.525024 L 1466.824951 1592.633301 C 1466.824951 1583.300049 1466.30835 1578.400024 1465.766602 1575.666748 C 1465.116577 1572.516602 1461.491699 1571.383301 1452.716675 1571.083374 L 1452.716675 1567.641724 L 1486.683228 1567.641724 L 1486.683228 1571.083374 C 1480.033325 1571.291626 1476.55835 1572.516602 1475.891602 1575.666748 C 1475.358276 1578.400024 1474.833252 1583.291626 1474.833252 1592.633301 L 1474.833252 1626.033325 M 1524.425049 1607.108276 C 1527.216675 1612.25 1535.091675 1622.108398 1548.141602 1622.108398 C 1555.091553 1622.108398 1560.441772 1619.108398 1560.441772 1613.31665 C 1560.441772 1608.116699 1555.233398 1605.141724 1547.06665 1602.675049 L 1545.083374 1602.025024 C 1534.174927 1598.666626 1521.775024 1594.05835 1521.775024 1584.55835 C 1521.775024 1574.508301 1532.69165 1566.299927 1553.641602 1566.299927 C 1557.766724 1566.299927 1562.016724 1566.658325 1565.883423 1567.375 C 1568.966675 1567.908325 1571.083374 1568.258301 1572.833374 1568.625 C 1573.366699 1572.099976 1574.283325 1576.44165 1575.75 1582.466675 L 1569.891602 1583.116699 C 1566.958374 1577.266724 1562.283325 1570.93335 1551.766724 1570.93335 C 1544.958374 1570.93335 1540.18335 1574.383301 1540.18335 1578.666748 C 1540.18335 1583.116699 1545.375 1585.708374 1553.908325 1588.266602 L 1556.824951 1589.158447 C 1569.125 1592.908325 1579.616699 1597.416748 1579.616699 1607.824951 C 1579.616699 1618.758301 1566.449951 1626.741699 1545.766724 1626.741699 C 1540.935059 1626.724243 1536.116943 1626.227295 1531.383423 1625.258423 C 1527.366699 1624.341675 1524.575073 1623.650024 1522.974976 1623.091675 C 1521.908325 1619.025024 1520.158447 1614.233276 1518.541748 1608.258301 L 1524.425049 1607.108276 M 1618.274902 1611.208374 C 1618.274902 1620.775024 1619.341675 1621.425049 1628.791626 1621.93335 L 1628.791626 1625.43335 L 1587.224976 1625.43335 L 1587.224976 1621.93335 C 1595.899902 1621.43335 1596.94165 1620.775024 1596.94165 1611.208374 L 1596.94165 1581.875 C 1596.94165 1572.275024 1595.899902 1571.658325 1586.541626 1571.083374 L 1586.541626 1567.641724 L 1628.141602 1567.641724 L 1628.141602 1571.083374 C 1619.341675 1571.658325 1618.274902 1572.275024 1618.274902 1581.875 L 1618.274902 1595.758301 C 1627.060669 1589.197754 1635.594604 1582.306763 1643.858398 1575.099976 C 1645.775024 1573.491699 1647.19165 1571.741577 1643.591675 1571.474976 L 1638.541626 1571.083374 L 1638.541626 1567.641724 L 1674.300049 1567.641724 L 1674.300049 1571.083374 C 1666.68335 1571.658325 1662.55835 1572.108398 1655.633301 1576.616699 C 1648.937744 1580.833374 1642.431396 1585.34314 1636.133301 1590.133301 C 1644.360107 1598.453613 1652.86499 1606.494263 1661.633301 1614.241699 C 1668.833252 1620.591675 1671.208374 1621.516724 1676.699951 1621.93335 L 1676.699951 1625.43335 L 1646.008301 1625.43335 C 1640.950073 1619.733276 1628.283325 1606.658325 1618.575073 1597.008301 L 1618.283325 1597.008301 L 1618.283325 1611.208374"/>
    <path id="path4" fill="#000000" stroke="none" d="M 1747.491699 1585.05835 C 1743.508301 1573.349976 1732.449951 1570.94165 1723.775024 1570.94165 C 1709.625 1570.94165 1697.916626 1580.275024 1697.916626 1595.458374 C 1697.916626 1609.241577 1706.68335 1622.108398 1725.108398 1622.108398 C 1728.424927 1622.108398 1730.541626 1621.425049 1730.541626 1617.241699 L 1730.541626 1608.708374 C 1730.541626 1602.766724 1730.041626 1602.116699 1716.008423 1601.425049 L 1716.008423 1597.416748 L 1760.55835 1597.416748 L 1760.55835 1601.425049 C 1753.75 1602.199951 1753.216675 1602.491699 1753.216675 1608.708374 L 1753.216675 1615.099976 C 1753.216675 1618.30835 1753.358276 1621.166626 1754.016602 1623.18335 C 1745.766724 1624.69165 1734.966675 1626.741699 1723.916626 1626.741699 C 1692 1626.741699 1673.083374 1615.30835 1673.083374 1597.141602 C 1673.083374 1576.791626 1697.333252 1566.291748 1725.75 1566.291748 C 1736.033325 1566.291748 1746.516724 1567.81665 1751.224976 1568.616577 C 1751.608276 1571.649902 1752.283325 1576.258301 1753.358276 1584.783325 L 1747.491699 1585.05835 M 1128.049927 1093.166626 C 1128.049927 1093.166626 1120.833374 1103.80835 1114.133301 1111.149902 C 1107.516602 1118.524902 1105.466675 1122.358398 1110.133301 1125.06665 C 1114.825073 1127.733398 1118.866699 1131.033325 1128.908325 1137.650024 C 1126.175049 1153.650024 1114.825073 1178.166748 1107.391602 1192.666626 C 1099.93335 1207.133301 1091.225098 1222.533325 1083.94165 1229.875 C 1076.633301 1237.216675 1059.724976 1251.741699 1049.083374 1262.508301 C 1038.333374 1273.116699 1025.916626 1280.983398 1018.56665 1282.174927 C 1005.19165 1284.43335 1001.091614 1274.30835 999.250061 1276.80835 C 991.016663 1288.158325 995.383301 1299.833252 1010.69165 1301.824951 C 1015.800049 1302.508301 1018.891663 1307.791626 1028.283325 1311.80835 C 1037.675049 1315.766602 1051.849976 1312.43335 1059.81665 1308.516724 C 1067.758301 1304.416626 1085.258301 1293.958252 1098.008301 1287.44165 C 1110.758301 1280.875 1123.800049 1281.383301 1138.508301 1280.108276 C 1150.783325 1279.008301 1152.06665 1258.291626 1147.633301 1248.133301 C 1141.158325 1232.824951 1146.216675 1221.508301 1153.900024 1203.283325 C 1161.599976 1185.216675 1181.541748 1165.366699 1181.541748 1165.366699 C 1181.541748 1165.366699 1186.858398 1162.658325 1195.866699 1169.074951 C 1204.449951 1175.283325 1206.200073 1165.366699 1217.283325 1152.166626 C 1226.266602 1141.475098 1235.891724 1129.883301 1230.241699 1124.766602 C 1223.525024 1118.55835 1225.341675 1115.974976 1225.341675 1115.974976 C 1225.341675 1115.974976 1231.966675 1107.449951 1238.866699 1101.916626 L 1128.049927 1093.166626"/>
    <path id="path5" fill="#000000" stroke="none" d="M 1481.333252 842.524963 C 1481.333252 842.524963 1565.883423 779.674988 1598.775024 602.56665 C 1618.633301 495.483398 1610.216675 391.866699 1562.758423 288.891724 C 1492.950073 137.324951 1324.666748 30.849976 1163.625 13.55835 C 1432.275024 -47.449951 1674.325073 110.074951 1766.625 307.724976 C 1856.43335 500.241699 1848.791626 701.700012 1709.783325 889.841675 C 1681.008301 928.675049 1515.958252 1116.708374 1222.941772 1106.841675 C 1202.258301 1110.525024 1151.108276 1100.358398 1135.30835 1094.358398 C 1135.30835 1094.358398 1108.800049 1084.166748 1076.641724 1070.166748 C 1044.016602 1055.966553 967.30835 1014 922.591675 973.200012 C 960.06665 995.458374 1027.283325 1019.766663 1090.975098 1025.43335 C 1131.083252 1020.541626 1341.541626 983.56665 1481.333252 842.524963"/>
    <path id="path6" fill="#000000" stroke="none" d="M 1374.55835 678.541626 C 1376.93335 672.541687 1359.283325 680.775024 1356.041748 682.408325 C 1345.583374 687.700012 1338.625 679.016724 1340.333252 674.291687 C 1342.383301 668.55835 1340.983276 664.724976 1336.733398 665.349976 C 1333.224976 665.875 1332.483276 661.216675 1334.44165 658.516663 C 1330.875 658.516663 1329.25 655.891663 1328.525024 653.991638 C 1333.608398 652.033325 1328.941772 646.625 1326.841553 645.825012 C 1324.724976 645.025024 1320.175049 644.216675 1319.733276 640.475037 C 1319.358276 636.766724 1323.125 632.033386 1326.841553 629.533325 C 1330.641724 627.108337 1332.158325 622.733337 1327.924927 615.099976 C 1324.425049 608.733337 1322.55835 597.266602 1325.883301 593.074951 C 1318.375 593.94165 1314.616699 602.94165 1314.616699 602.94165 C 1309.625 593.94165 1312.516602 584.80835 1314.208374 580.324951 C 1311.675049 582.791626 1307.516602 590.19165 1307.516602 590.19165 C 1312.958252 542.44165 1369.091675 522.44165 1384.166748 519.175049 C 1411.916626 513.05835 1455.416626 511.775024 1448.741699 533.525024 C 1448.741699 533.525024 1457.533447 516.31665 1441.225098 511.775024 C 1450.408325 511.324951 1457.866699 521.666626 1454.125 528.258301 C 1458.766724 525.324951 1467.074951 523.324951 1469.991699 527.391724 C 1465.383301 527.783325 1456.283325 532.75 1455.81665 536.458374 C 1464.166626 534.800049 1472.725098 539.675049 1479.166626 567.75 C 1482.083374 580.533325 1487.108398 621.725037 1469.125 635.333313 C 1469.125 635.333313 1469.991699 632.866699 1470.425049 629.56665 C 1470.425049 629.56665 1467.908325 639.458374 1454.116699 639.458374 C 1454.116699 639.458374 1453.041748 643.766663 1453.866699 646.233337 C 1453.866699 646.233337 1470.425049 639.875 1477.058228 642.31665 C 1477.058228 642.31665 1469.55835 657.166687 1466.275024 662.93335 C 1477.058228 662.93335 1509.775024 684.06665 1511.950073 732.983337 C 1516.974976 741.18335 1522.766602 788.758362 1516.974976 810.133301 C 1470.675049 957.200012 1134.05835 1041.716675 1076.525024 1023.174988 C 1076.525024 1023.174988 1060.333374 1010.841675 1073.791626 1003.383301 C 1078.25 1000.858337 1075.125 1004.716675 1084.958374 1007.483276 C 1091.441772 1009.233337 1096.375 1007.366638 1104.224976 1003.025024 C 1112.841675 998.208313 1130.31665 994.175049 1142.474976 985.575012 C 1154.533447 976.899963 1163.775024 974.94165 1176.650024 950.758301 C 1179.31665 945.700012 1180.833252 938.741699 1181.908325 930.191711 C 1182.116699 928.341675 1181.016724 929.208313 1169.133423 924.900024 C 1162.358398 922.43335 1157.033325 925.675049 1157.033325 913.69165 C 1157.033325 901.708374 1161.849976 882.608337 1163.125 877.94165 C 1164.491699 873.341675 1168.775024 872.69165 1180.875 873.341675 C 1186.074951 862.200012 1190.5 842.466675 1193.741577 831.616638 C 1193.741577 831.616638 1190.349976 832.241638 1182.866699 832.241638 C 1175.166748 832.241638 1172.075073 837.591675 1159.533325 841.69165 C 1147.025024 845.858337 1140.30835 844.700012 1137.841675 836.766724 C 1134.541748 826.099976 1134.541748 821.099976 1131.174927 813.700012 C 1128.741699 808.325012 1120.341675 808.825012 1122 803.033325 C 1123.666626 797.200012 1126.18335 794.741638 1129.516724 793.075012 C 1133.68335 789 1143.68335 789.80835 1152.841675 781.608337 C 1162.024902 773.341675 1167.375 782.083313 1170.375 788.208313 C 1172.900024 793.408325 1173.791626 794.05835 1179.525024 801.30835 C 1182.44165 805.083374 1192.841675 802.616638 1199.524902 801.30835 L 1205.358398 777.474976 C 1201.224976 776.674988 1183.69165 773.341675 1164.491699 763.474976 C 1145.358276 753.608337 1131.174927 744.516663 1123.658325 745.31665 C 1096.858398 748.266663 1103.783325 743.266663 1091.158325 723.866638 C 1083.69165 712.366699 1085.324951 711.591675 1076.141602 707.424988 C 1064.283325 702.024963 1072.016602 690.099976 1076.974976 690.966675 C 1081.94165 691.766663 1090.358398 686.833313 1097.841675 685.200012 C 1095.491699 673.433289 1098.824951 666.658325 1109.525024 667.866638 C 1106.991699 675.266663 1117.841675 690.958374 1130.383301 695.033325 C 1142.899902 699.166687 1147.833374 719.758362 1147.833374 723.866638 C 1159.541748 735.450012 1213.833374 734.641663 1225.516602 734.641663 C 1231.483276 725.30835 1233.599976 722.81665 1256.391602 722.81665 C 1270.833374 722.81665 1282.716675 726.324951 1293.508301 738.924988 C 1303.674927 742.166626 1295.291626 732.858337 1312.758423 730.900024 C 1330.175049 729.025024 1338.733276 721.56665 1346.166626 719.483337 C 1353.55835 717.383301 1353.44165 712.925049 1358.883301 708.408325 C 1362.008301 705.766663 1364.641724 699.55835 1369.049927 697.383301 C 1373.491699 695.216675 1372.966675 680.883362 1374.575073 678.216675 M 1227.458374 943.008301 C 1227.458374 943.008301 1223.533325 962.116699 1227.283325 978.399963 C 1237.975098 975.724976 1246.366577 967.166687 1254.474976 963.833313 C 1262.55835 960.5 1284.69165 955.008301 1299.724976 947.524963 C 1299.724976 947.524963 1299.883301 944.700012 1294.491699 936.675049 C 1290.516602 930.758362 1281.841675 901.608337 1273.333374 870.375 C 1273.333374 870.375 1270.25 848.375 1266.916626 849.80835 C 1264.666626 850.724976 1263.916626 876.725037 1262.858276 887.93335 C 1261.533325 901.725037 1262.133301 897.058289 1262.133301 897.058289 C 1262.133301 897.058289 1270.81665 898.391663 1269.508301 903.033325 C 1267.841675 908.825012 1261.958252 941.424988 1259.791748 946.841675 C 1258.125 951.141663 1257.316772 949.424988 1249.675049 947.81665 C 1240.258301 945.858337 1227.458374 943.008301 1227.458374 943.008301 Z M 1372.275024 857.44165 C 1376.641724 850.375 1375.30835 847.758301 1377.408325 833.616638 C 1378.333252 813.825012 1371.466675 798.366699 1371.466675 798.366699 L 1339.825073 807.366638 C 1349.300049 820.18335 1360.449951 846.366638 1372.275024 857.450012"/>
    <path id="path7" fill="#000000" stroke="none" d="M 554.941711 322.858398 C 745.791687 345.916626 1154.291626 697.274963 1157.949951 804.224976 L 1143.366577 806.724976 C 1098.366699 646.25 666.741699 333.791626 554.950012 334.958374 L 554.950012 322.858398 M 1152.80835 835.075012 C 1154.141602 837.883301 1159.641602 852.041626 1160.116699 854.508362 C 1160.591675 856.916687 1176.491699 859.725037 1173.133301 848.375 C 1171.100464 841.47644 1168.620117 834.717712 1165.708252 828.141663 L 1152.80835 835.075012 M 1779.283447 1569.158325 L 1779.283447 1571.474976 L 1775.358276 1571.474976 L 1775.358276 1582.225098 L 1772.591675 1582.225098 L 1772.591675 1571.474976 L 1768.674927 1571.474976 L 1768.674927 1569.158325 L 1779.283447 1569.158325 M 1789.56665 1569.158325 L 1793.483398 1569.158325 L 1793.483398 1582.233276 L 1790.93335 1582.233276 L 1790.93335 1573.400024 L 1790.93335 1572.299927 C 1790.93335 1571.858398 1790.966675 1571.491577 1790.966675 1571.258301 L 1788.466675 1582.225098 L 1785.849976 1582.225098 L 1783.358398 1571.258301 L 1783.358398 1572.299927 C 1783.383301 1572.783325 1783.383301 1573.133301 1783.383301 1573.400024 L 1783.383301 1582.233276 L 1780.858398 1582.233276 L 1780.858398 1569.150024 L 1784.80835 1569.150024 L 1787.18335 1579.466675 L 1789.56665 1569.158325"/>
    <path id="path8" fill="#000000" stroke="none" d="M 559.416626 1301.875 L 568.974976 1301.875 L 568.974976 329.333374 L 559.416626 329.333374 L 559.416626 1301.875 Z"/>
</svg>
