<?xml version="1.0" encoding="UTF-8"?>
<!-- Generated by Pixelmator Pro 3.6.14 -->
<svg width="2500" height="870" viewBox="0 0 2500 870" xmlns="http://www.w3.org/2000/svg">
    <path id="Path" fill="#000000" stroke="none" d="M 157.810318 155.134399 L 157.810318 2.671936 L 286.293793 2.671936 L 286.293793 40.935181 L 227.217209 40.935181 L 227.217209 68.612854 L 271.023529 68.612854 L 271.023529 106.876099 L 227.217209 106.876099 L 227.217209 155.134399 L 157.810318 155.134399 Z M 295.245239 155.134399 L 295.245239 2.671936 L 364.65213 2.671936 L 364.65213 155.134399 L 295.245239 155.134399 Z M 534.174133 156.335571 L 480.488007 156.335571 L 447.717743 108.277527 L 447.717743 155.134399 L 378.028015 155.134399 L 378.028015 2.671936 L 428.538544 2.671936 L 464.106598 54.228455 L 464.106598 2.671936 L 534.176697 2.671936 L 534.176697 156.335571 Z M 547.712708 2.671936 L 626.964478 2.671936 C 654.006531 2.671936 674.88739 10.149414 689.607056 25.101868 C 704.326843 40.054321 711.689148 58.087341 711.689148 79.20343 C 711.689148 92.656921 708.340881 105.364624 701.646606 117.316589 C 694.952454 129.27356 685.147644 138.565308 672.222229 145.194458 C 659.301819 151.821045 643.681152 155.134399 625.365356 155.134399 L 547.712708 155.134399 L 547.712708 2.671936 Z M 616.839355 61.020264 L 616.839355 96.788513 L 618.536072 96.788513 C 626.661682 96.788513 632.542542 95.369629 636.171204 92.539307 C 639.799805 89.711426 641.616638 85.064331 641.616638 78.602844 C 641.616638 66.878601 634.787292 61.020264 621.133667 61.020264 L 616.839355 61.020264 Z M 721.451416 155.134399 L 721.451416 2.671936 L 790.437988 2.671936 L 790.437988 155.134399 L 721.451416 155.134399 Z M 959.684631 156.335571 L 906.561523 156.335571 L 873.79126 108.277527 L 873.79126 155.134399 L 803.82135 155.134399 L 803.82135 2.671936 L 854.604614 2.671936 L 890.175171 54.228455 L 890.175171 2.671936 L 959.68219 2.671936 L 959.68219 156.335571 Z M 1131.156128 20.374634 L 1097.882813 66.796021 C 1084.294312 60.269531 1070.475464 56.725952 1058.951538 56.725952 C 1051.29126 56.725952 1045.147583 58.705444 1040.517944 62.669434 C 1035.888428 66.633362 1033.573608 71.878601 1033.573608 78.405151 C 1033.573608 90.792542 1041.699219 96.98877 1057.953003 96.98877 L 1057.953003 73.109863 L 1128.023071 73.109863 L 1128.023071 155.337097 C 1100.715698 156.868591 1079.699707 157.634399 1070.040039 157.634399 C 1032.742676 157.634399 1004.57959 149.708984 990.060059 133.855591 C 975.540527 118.002258 968.27832 99.521301 968.27832 78.405151 C 968.27832 63.888123 971.661682 50.567322 978.420898 38.440186 C 985.180176 26.320557 994.937439 16.92865 1007.69519 10.267029 C 1020.450439 3.610352 1037.802734 0.277039 1055.255249 0.277039 C 1067.507446 0.277039 1080.200195 2.058777 1093.318359 5.622375 C 1106.44397 9.180908 1120.36792 13.913147 1131.156128 20.374634 Z"/>
    <path id="path1" fill="#000000" stroke="none" d="M 2192.099609 186.020264 C 2049.427002 186.020264 1892.925537 284.926636 1892.925537 437.248962 C 1892.925537 505.602325 1909.411865 560.464722 1958.688721 611.263 C 1958.688721 611.263 2161.368896 618.124878 2331.246094 677.837097 C 2478.258301 618.502747 2493.643799 494.098358 2493.643799 444.563812 C 2493.638672 293.975769 2354.557129 186.020264 2192.099609 186.020264 Z M 2079.214111 366.911163 L 2138.798828 415.812561 C 2156.549072 388.858093 2180.683105 368.129852 2211.761719 368.129852 C 2246.941895 368.129852 2274.68457 389.020782 2288.713623 428.67041 C 2279.434326 458.535278 2248.731201 490.94516 2214.279297 490.94516 C 2180.835693 490.94516 2154.009033 466.923645 2139.061523 441.087799 L 2079.739746 489.989258 C 2100.518066 450.109344 2103.27832 412.018768 2079.214111 366.911163 Z M 0 574.291077 C 227.980469 672.426697 522.092102 752.857117 885.87085 752.857117 C 1238.911377 752.857117 1618.50354 642.401611 1869.329346 642.401611 C 2130.054932 642.401611 2370.187744 698.255005 2499.994873 797.429199 C 2381.716797 730.652405 2244.06665 701.996216 2061.994629 701.996216 C 1589.889893 701.996216 1378.450928 869.976685 924.844849 869.976685 C 533.27832 869.976685 186.701706 726.748535 0.002502 574.291077 Z"/>
    <path id="path2" fill="#000000" stroke="none" d="M 670.002502 709.613831 C 565.147644 699.829041 465.497986 682.036316 465.497986 682.036316 L 336.861877 544.919189 L 336.861877 654.153442 C 254.294281 635.885132 151.5065 600.417114 151.5065 600.417114 L 151.5065 194.749023 L 336.826813 194.749023 L 490.210205 364.278503 L 490.210205 194.749023 L 669.985046 194.749023 L 669.985046 709.613831 Z M 1129.099121 566.495728 L 1129.099121 707.291504 C 996.241211 719.403687 869.079041 727.23645 714.934875 712.464233 L 714.934875 192.221436 L 1129.029053 192.221436 L 1129.029053 319.093323 L 907.51001 319.093323 L 907.51001 379.713989 L 1069.867432 379.713989 L 1069.867432 505.805084 L 907.917908 505.805084 L 907.917908 566.493164 L 1129.09668 566.493164 Z M 1169.737183 701.288025 L 1169.737183 194.766479 L 1373.921387 194.766479 L 1512.494995 392.419189 L 1652.209717 194.766479 L 1856.661621 194.766479 L 1856.661621 608.592896 C 1758.148193 613.495239 1652.409912 629.286011 1652.409912 629.286011 L 1652.409912 529.959167 L 1567.602661 640.379639 L 1468.938843 654.338623 L 1374.194214 529.959167 L 1374.194214 668.67041 L 1169.739746 701.288025 Z"/>
</svg>
