<?xml version="1.0" encoding="UTF-8"?>
<!-- Generated by Pixelmator Pro 3.6.14 -->
<svg width="861" height="283" viewBox="0 0 861 283" xmlns="http://www.w3.org/2000/svg">
    <path id="Path" fill="#000000" stroke="none" d="M 157.899994 72.899994 L 103.5 72.899994 L 43.899994 134 L 43.899994 8 L 0 8 L 0 242.600006 L 43.799988 242.600006 L 43.799988 186 L 58.399994 171.399994 L 106.799988 242.600006 L 158.200012 242.600006 L 88.200012 141.899994 L 157.899994 72.899994 Z"/>
    <path id="path1" fill="#000000" stroke="none" d="M 325.099976 242.399994 L 281.299988 242.399994 C 281.299988 242.399994 281.400024 230.100006 281.400024 226.300003 C 270.200012 238.5 254.099976 246.100006 230.299988 246.100006 C 179.900024 246.100006 145.799988 206.899994 145.799988 158 L 145.799988 158 C 145.799988 108.800003 180.099976 69.899994 230.299988 69.899994 C 254 69.899994 270.099976 77.800003 281.400024 89 L 281.400024 72.800003 L 324.599976 72.800003 L 325.099976 242.399994 Z M 235.5 207.100006 C 259.5 207.100006 280.5 188.300003 280.5 157.899994 C 280.5 127.5 259.5 108.699997 235.5 108.699997 C 210.299988 108.699997 190.200012 127.199997 190.200012 157.899994 C 190.299988 188.600006 210.299988 207.100006 235.5 207.100006 Z"/>
    <path id="path2" fill="#000000" stroke="none" d="M 586.599976 242.100006 L 543.5 242.100006 C 543.5 242.100006 543.400024 229.800003 543.400024 226 C 532.200012 238.199997 516.099976 245.800003 492.299988 245.800003 C 441.900024 245.800003 407.799988 206.600006 407.799988 157.699997 L 407.799988 157.699997 C 407.799988 108.5 442.099976 69.600006 492.299988 69.600006 C 516 69.600006 532.099976 77.5 543.400024 88.699997 L 543.400024 72.5 L 586.599976 72.5 L 586.599976 242.100006 Z M 497.400024 206.899994 C 521.400024 206.899994 542.400024 188.100006 542.400024 157.699997 C 542.400024 127.300003 521.400024 108.5 497.400024 108.5 C 472.200012 108.5 452.099976 127 452.099976 157.699997 C 452.200012 188.300003 472.200012 206.899994 497.400024 206.899994 Z"/>
    <path id="path3" fill="#000000" stroke="none" d="M 368.599976 54.300003 C 382.900024 54.300003 395 41.800003 395 27.300003 C 395 12.700012 382.900024 0.5 368.599976 0.5 C 354.299988 0.5 341.599976 12.399994 341.599976 27.199997 C 341.5 42.100006 354.299988 54.300003 368.599976 54.300003 Z"/>
    <path id="path4" fill="#000000" stroke="none" d="M 653.599976 226 C 653.599976 232.100006 653.400024 242.399994 653.400024 242.399994 L 609.799988 242.399994 C 609.799988 242.399994 609.799988 218.199997 609.799988 208.300003 L 609.799988 8 L 653.599976 8 L 653.599976 89.199997 C 664.799988 77.699997 681.299988 69.699997 705 69.699997 C 755.099976 69.699997 789.199951 108.600006 789.199951 157.800003 C 789.199951 207 755.5 245.899994 705 245.899994 C 681.200012 246.100006 664.799988 238.5 653.599976 226 L 653.599976 226 Z M 699.800049 207.199997 C 725 207.199997 745.099976 188.399994 745.099976 158 C 745.099976 127.600006 725 108.800003 699.800049 108.800003 C 674.599976 108.800003 654.799988 127.600006 654.799988 158 C 654.799988 188.399994 675.799988 207.199997 699.800049 207.199997 Z"/>
    <path id="path5" fill="#000000" stroke="none" d="M 825.900024 0.5 C 840.5 0.5 852.300049 12.700012 852.300049 27.199997 C 852.300049 41.800003 840.400024 54.199997 825.900024 54.199997 C 811.300049 54.199997 798.900024 42 798.900024 27.199997 C 798.800049 12.399994 811 0.5 825.900024 0.5 Z"/>
    <path id="path6" fill="#000000" stroke="none" d="M 805 72.800003 L 849.099976 72.800003 L 849.099976 214.699997 C 849.099976 220.300003 849.199951 227.399994 852.400024 233.199997 C 855.099976 238.100006 861 241.199997 861 241.199997 L 861 242.300003 L 813.199951 242.300003 C 813.199951 242.300003 809.5 240.100006 807.400024 237 C 805.300049 233.899994 805 231.399994 805 223.699997 C 805 216.100006 805 72.800003 805 72.800003 Z"/>
    <path id="path7" fill="#000000" stroke="none" d="M 347.599976 72.800003 L 391.700012 72.800003 C 391.700012 72.800003 391.700012 249.399994 391.700012 259.799988 C 391.700012 274 381.799988 281.399994 375.799988 283 L 330.900024 283 L 330.900024 281.899994 C 330.900024 281.899994 337.099976 279.200012 341 273.799988 C 344.900024 268.399994 347.599976 258.700012 347.599976 244.100006 L 347.599976 72.800003 Z"/>
</svg>
