<?xml version="1.0" encoding="UTF-8"?>
<!-- Generated by Pixelmator Pro 3.6.14 -->
<svg width="801" height="232" viewBox="0 0 801 232" xmlns="http://www.w3.org/2000/svg">
    <path id="Fill-1" fill="#000000" stroke="none" d="M 312.827209 230.050583 L 358.791626 230.050583 L 386.151459 121.705864 L 413.51123 230.050583 L 459.475616 230.050583 L 487.92981 2.417236 L 440.871002 2.417236 L 428.832642 114.04512 L 404.756073 2.417236 L 367.546753 2.417236 L 343.470154 115.139511 L 330.337433 2.417236 L 283.278625 2.417236 L 312.827209 230.050583 Z M 270.145935 213.63472 C 277.806671 203.785202 279.995453 191.746887 279.995453 167.670303 C 279.995453 144.68808 275.617889 130.460999 259.202026 116.23391 L 223.087112 84.496567 C 215.426376 77.930222 214.332001 71.363861 214.332001 60.419952 L 214.332001 47.287277 C 214.332001 40.720917 219.803955 37.437759 223.087112 37.437759 C 227.464691 37.437759 231.842224 40.720917 231.842224 47.287277 C 231.842224 47.287277 231.842224 58.231186 231.842224 71.363861 L 276.712311 71.363861 C 278.901093 23.210663 271.240356 1.32283 225.275909 1.32283 L 217.615158 1.32283 C 176.028305 1.32283 166.178772 16.644302 166.178772 65.891907 C 166.178772 91.062912 170.556351 100.91243 189.161011 117.3283 L 214.332001 140.310516 C 228.559082 154.537598 229.653473 157.82077 229.653473 174.236649 L 229.653473 182.991776 C 229.653473 189.558121 223.087112 191.746887 219.803955 191.746887 C 214.332001 191.746887 211.048828 188.46373 211.048828 184.086166 C 211.048828 184.086166 211.048828 169.859085 211.048828 156.726395 L 166.178772 156.726395 C 166.178772 184.086166 166.178772 203.785202 178.217102 216.917908 C 186.972214 226.767426 196.821747 231.144974 216.520782 231.144974 L 226.370285 231.144974 C 252.635681 230.050583 263.57959 222.389862 270.145935 213.63472 L 270.145935 213.63472 Z M 130.063873 143.593689 C 145.385361 143.593689 158.518066 130.460999 158.518066 115.139511 C 158.518066 99.818039 145.385361 86.685333 130.063873 86.685333 C 114.742416 86.685333 101.609711 99.818039 101.609711 115.139511 C 101.609711 130.460999 114.742416 143.593689 130.063873 143.593689 L 130.063873 143.593689 Z M 132.252655 230.050583 L 78.627472 108.573158 L 130.063873 2.417236 L 77.533104 2.417236 L 46.89016 72.458267 L 46.89016 2.417236 L 0.92572 2.417236 L 0.92572 228.956207 L 46.89016 228.956207 L 46.89016 143.593689 L 79.721893 228.956207 L 132.252655 228.956207 Z M 498.873718 230.050583 L 549.215698 230.050583 L 549.215698 2.417236 L 498.873718 2.417236 L 498.873718 230.050583 Z M 612.690369 0.228439 C 567.820374 0.228439 561.254028 18.833099 561.254028 64.797516 C 561.254028 89.968521 565.631531 100.91243 584.236267 117.3283 L 609.407166 140.310516 C 623.634277 154.537598 624.728699 157.82077 624.728699 174.236649 L 624.728699 182.991776 C 624.728699 189.558121 619.256714 190.652512 615.973572 190.652512 C 611.596008 190.652512 608.312805 188.46373 608.312805 184.086166 C 608.312805 184.086166 608.312805 168.764679 608.312805 156.726395 L 562.348389 156.726395 C 562.348389 184.086166 562.348389 203.785202 574.386719 216.917908 C 583.141846 226.767426 592.991333 231.144974 612.690369 231.144974 L 622.539917 231.144974 C 647.710876 231.144974 658.654785 223.484253 666.315552 214.729111 C 673.976257 204.879593 676.1651 192.841293 676.1651 168.764679 C 676.1651 142.499298 671.787537 130.460999 655.371643 116.23391 L 619.256714 84.496567 C 611.596008 77.930222 610.501648 71.363861 610.501648 60.419952 L 610.501648 45.09848 C 610.501648 38.532135 615.973572 37.437759 618.162354 37.437759 C 620.351074 37.437759 625.823059 37.437759 625.823059 45.09848 C 625.823059 45.09848 625.823059 59.325562 625.823059 72.458267 L 666.315552 72.458267 L 670.693176 72.458267 C 671.787537 23.210663 666.315552 0.228439 621.445557 0.228439 L 612.690369 0.228439 L 612.690369 0.228439 Z M 738.545349 0.228439 L 747.300537 0.228439 C 793.264954 0.228439 797.642517 23.210663 796.548157 72.458267 L 792.170532 72.458267 L 750.583679 72.458267 C 750.583679 59.325562 750.583679 45.09848 750.583679 45.09848 C 750.583679 38.532135 744.017334 37.437759 742.922974 37.437759 C 740.734192 37.437759 735.262268 37.437759 735.262268 45.09848 L 735.262268 58.231186 C 735.262268 69.175095 737.450989 75.741425 744.017334 82.30777 L 780.132263 114.04512 C 796.548157 128.272217 800.92572 141.404907 800.92572 166.575912 C 800.92572 190.652512 798.736877 202.690811 791.076172 212.540344 C 783.415405 222.389862 772.471497 228.956207 747.300537 228.956207 L 737.450989 228.956207 C 717.751953 228.956207 707.902466 224.578629 699.147339 214.729111 C 687.109009 201.596436 686.014587 180.802979 687.109009 154.537598 L 733.073425 154.537598 C 733.073425 166.575912 733.073425 181.897369 733.073425 181.897369 C 733.073425 186.274933 736.356628 188.46373 740.734192 188.46373 C 744.017334 188.46373 749.489258 187.369339 749.489258 180.802979 L 749.489258 173.142258 C 749.489258 155.631989 747.300537 152.348816 734.167786 139.216125 L 710.091248 117.3283 C 692.580994 100.91243 687.109009 89.968521 687.109009 64.797516 C 687.109009 18.833099 693.675354 0.228439 738.545349 0.228439 L 738.545349 0.228439 Z"/>
</svg>
