<?xml version="1.0" encoding="UTF-8"?>
<!-- Generated by Pixelmator Pro 3.6.14 -->
<svg width="801" height="358" viewBox="0 0 801 358" xmlns="http://www.w3.org/2000/svg">
    <path id="Path" fill="#000000" stroke="none" d="M 339.613892 111.416931 C 329.44873 127.45575 328.547363 135.215332 328.26416 140.431458 C 327.920044 145.517883 327.920044 154.660217 336.175659 162.136841 C 350.160767 174.524414 369.643188 172.516418 386.934814 172.516418 L 529.539307 172.516418 C 535.616943 172.516418 537.404907 170.752197 540.66626 166.344421 C 552.068604 148.9776 557.192627 130.16803 557.192627 113.319031 C 557.192627 77.240784 533.654297 31.814148 474.175293 11.269226 L 467.485474 20.830627 C 514.652954 43.147766 534.212891 72.367371 534.212891 113.24231 C 534.433228 124.186401 531.600464 136.039673 524.375854 146.983337 L 385.711792 146.983337 C 377.395264 146.983337 376.272095 137.621094 379.220337 132.366882 C 391.539673 110.63031 404.171021 91.415222 418.972656 71.649353 C 432.994751 53.014343 446.818848 35.586853 461.260254 17.325562 C 465.194214 12.262451 462.566772 7.374634 454.769287 5.777954 C 438.577515 2.365173 421.645996 0.004578 401.177856 0.004578 C 287.405396 0.004578 245.912231 65.096985 245.912231 113.342407 C 245.912231 165.626587 287.770996 226.389526 401.46106 226.389526 C 464.574707 226.389526 505.908325 206.112 529.836182 180.099365 L 505.709473 180.099365 C 484.761108 199.345886 448.864868 212.986511 401.46106 212.986511 C 305.161133 212.986511 269.647705 159.058411 269.647705 112.616821 C 270.373047 71.198853 308.477051 13.972412 403.874146 12.064026 C 407.485962 11.963684 410.28125 15.256348 407.768677 18.36438 C 391.454956 38.358276 344.936768 103.069397 339.613892 111.416931"/>
    <path id="path1" fill="#000000" stroke="none" d="M 768.25061 298.210907 L 676.991821 298.210907 C 678.213501 287.136658 687.776489 277.888031 697.459961 277.888031 L 789.818481 277.888031 L 789.497803 258.633728 L 691.594604 258.633728 C 660.617188 258.633728 635.856689 284.265106 635.109253 314.074005 C 634.987427 316.158997 636.400146 317.434052 638.767822 317.434052 L 749.867432 317.044525 C 755.571533 317.823547 759.948242 322.329407 759.948242 327.63031 C 759.948242 333.594513 754.464478 338.376007 747.896606 338.376007 L 625.668213 338.376007 L 625.668213 258.710724 L 589.712036 258.710724 L 589.712036 338.588409 L 523.550049 338.588409 C 505.550049 338.588409 501.852417 327.721039 501.852417 317.746552 L 501.852417 258.230469 L 442.159058 258.230469 C 436.248169 262.246704 430.544067 266.615784 424.479736 270.287903 L 389.102783 292.024689 L 343.050171 258.527435 L 271.459106 258.527435 L 203.905945 258.527435 C 185.607544 258.527435 171.546936 263.293579 161.122498 271.495575 C 142.379578 286.220184 136.437622 301.800293 136.674988 308.765533 L 161.038147 308.765533 C 150.33783 316.739349 143.121033 326.316559 139.348328 337.39035 L 59.277466 337.39035 C 44.897034 337.39035 35.656189 327.225464 35.656189 317.327515 L 35.656189 257.825165 L 0.265015 257.825165 L 0.265015 319.640686 C 0.265015 341.849915 21.435181 357.225464 55.420959 357.225464 L 271.459106 357.225464 L 323.742798 357.225464 C 329.348389 353.466278 334.611694 349.471588 340.438232 345.936951 L 376.891602 323.940582 L 423.073853 356.796753 L 475.664063 356.796753 L 406.179932 304.680115 L 441.891846 281.446472 C 449.491821 276.467926 457.479858 272.290161 465.278076 267.691742 L 465.278076 320.17569 C 465.278076 342.270599 470.94519 357.60672 515.676147 357.60672 L 768.25061 357.018555 C 787.733521 357.300385 800.265015 343.836151 800.265015 327.63031 C 800.265015 311.499847 785.884521 298.210907 768.25061 298.210907 M 316.610229 337.191711 L 271.459106 337.191711 L 185.767029 337.191711 C 186.111145 326.987183 196.978271 316.739349 206.899597 316.739349 L 271.459106 316.739349 L 289.299194 316.739349 L 289.299194 296.293427 L 271.459106 296.293427 L 184.706177 296.293427 C 183.522583 290.329193 194.749451 278.574921 203.325378 278.574921 L 271.459106 278.574921 L 297.333984 278.574921 L 297.333984 267.608582 L 358.27063 311.170837 L 316.610229 337.191711 Z"/>
</svg>
