<?xml version="1.0" encoding="UTF-8"?>
<!-- Generated by Pixelmator Pro 3.6.14 -->
<svg width="1000" height="473" viewBox="0 0 1000 473" xmlns="http://www.w3.org/2000/svg">
    <path id="path901" fill="#000000" stroke="none" d="M 212.480499 -0.321014 L 148.376984 97.839142 L 89.861366 12.255157 L 4.4e-05 226.567657 L 96.501991 260.880127 L 24.400433 432.995361 L 125.296921 468.606689 L 143.101593 421.774658 L 178.712921 471.098877 L 206.486359 426.702393 L 220.732452 472.999268 L 307.138702 441.596924 C 326.993317 455.827423 350.850403 463.392731 375.277374 463.204346 C 410.165405 463.607483 443.317444 448.013763 465.253937 420.88208 C 483.059143 449.42984 514.868652 470.624268 559.322266 470.624268 C 586.514954 471.425568 612.995056 461.857147 633.394531 443.858643 L 632.675781 446.581299 L 650.480469 452.516846 C 651.838806 452.974945 653.170349 453.509003 654.46875 454.116455 C 672.548462 462.378113 692.214355 466.591492 712.091797 466.462158 C 732.998108 466.949921 753.722473 462.476837 772.566406 453.409424 L 938.748047 466.704346 L 943.675781 377.678955 L 917.859375 376.196533 L 923.794922 332.634033 L 936.140625 333.874268 L 948.427734 248.118423 L 931.804688 246.993423 L 927.412109 174.220001 L 1000 93.389923 L 915.900391 22.16922 L 870.738281 84.54422 L 825.507813 33.923126 L 819.166016 39.858673 L 819.166016 38.01297 L 655.824219 34.153595 L 655.824219 48.932892 L 608.935547 15.641876 L 570.357422 71.190704 L 564.421875 33.805939 L 477.714874 47.218048 C 465.725342 42.347321 453.122894 39.148743 440.261749 37.712189 C 435.179626 37.100616 430.066071 36.786926 424.947296 36.772736 C 402.129059 36.650696 379.814575 43.479584 360.972687 56.350861 L 362.095734 38.546173 L 260.609406 31.128204 L 257.166046 107.866486 L 212.480499 -0.321014 Z M 208.205109 42.585236 L 273.164093 200.055939 L 279.781281 52.733673 L 340.675812 57.065704 L 336.515656 124.798126 C 347.416077 82.520203 386.085022 51.602692 437.892609 57.720001 C 456.586151 59.229767 474.482697 65.947235 489.552765 77.110626 L 487.628937 66.087189 L 547.808594 56.710236 L 557.898438 124.192657 L 613.867188 43.653595 L 659.863281 76.296173 L 608.941406 142.591095 L 673.964844 187.708282 L 676.421875 54.573517 L 797.794922 57.423126 L 794.099609 90.425079 L 824.146484 62.704376 L 872.398438 116.714142 L 919.462891 51.427032 L 971.216797 95.346954 L 906.822266 167.102814 L 911.154297 235.354767 L 848.716797 235.831329 L 847.886719 163.897736 L 780.767578 103.276642 L 733.279297 102.23172 L 733.279297 122.766876 L 779.158203 123.302032 L 775.0625 166.509064 L 732.568359 165.141876 L 732.568359 186.925079 L 800.761719 187.757111 L 800.287109 235.948517 L 673.158203 231.438751 L 673.857422 193.501251 L 627.279297 238.975861 L 566.861328 180.159454 L 574.753906 233.218048 L 518.490234 242.952408 L 492.976593 96.739532 L 474.273468 127.692657 C 466.401245 118.884338 455.42749 113.461823 443.648468 112.559845 C 421.985474 110.007568 403.588348 120.808746 400.798859 143.718048 C 398.246796 165.321594 413.854553 182.888824 438.128937 186.034454 C 448.216583 187.079926 458.406616 185.633301 467.804718 181.821564 L 484.898468 227.639923 C 465.940369 237.017059 444.567963 240.372162 423.648468 237.255157 C 378.908875 231.935089 340.319977 205.415314 334.267609 161.434845 L 329.578156 237.788361 L 271.591827 235.057892 L 272.367218 217.811798 L 209.511749 240.757095 L 188.619171 172.91922 L 153.484406 228.886017 L 113.718788 174.223907 L 113.244179 174.223907 L 89.503944 237.136017 L 26.769573 214.70047 L 94.132851 54.454376 L 148.378937 133.686798 L 148.855499 133.686798 L 208.205109 42.585236 Z M 232.777374 248.887955 L 284.644562 374.624268 C 282.983673 367.791443 282.097687 360.561462 282.097687 352.987549 C 282.097687 299.21582 326.906616 262.774658 375.277374 262.774658 C 423.648132 262.774658 468.873077 298.859802 468.873077 352.987549 C 468.873077 407.115356 423.766846 443.200439 375.277374 443.200439 C 342.461151 443.200439 311.339264 426.466187 294.679718 398.948486 L 303.998077 421.53833 L 233.785187 447.237549 L 212.953156 379.161377 L 177.580109 435.366455 L 138.111359 380.468018 L 137.578156 380.468018 L 113.837929 443.380127 L 51.164104 421.003174 L 118.705116 260.460205 L 172.892609 339.991455 L 173.425812 339.991455 L 232.777374 248.887955 Z M 724.792969 254.526627 C 744.560486 255.246353 763.987976 259.886292 781.947266 268.177002 L 770.492188 309.721924 C 756.838989 301.838562 741.329773 297.740601 725.564453 297.85083 C 722.225708 297.606689 718.931885 298.735535 716.444763 300.976318 C 713.957642 303.217163 712.492676 306.375854 712.388672 309.721924 C 712.388672 316.843994 719.986511 320.049377 724.259766 321.177002 C 737.907104 323.832214 751.26416 327.807251 764.142578 333.046143 C 782.600525 341.827576 795.570801 356.621216 797.003906 377.073486 L 804.5 258.442627 L 925.634766 266.692627 L 918.810547 312.56958 L 859.458984 308.653564 L 858.273438 329.130127 L 904.091797 331.680908 L 898.15625 374.710205 L 855.779297 371.385986 L 854.652344 393.169189 L 922.787109 397.026611 L 920.115234 445.159424 L 793.34375 435.010986 L 795.929688 394.096924 C 789.287109 428.236084 756.004089 446.524658 712.210938 446.524658 C 693.043457 446.407227 674.144531 442.006989 656.896484 433.645752 L 667.460938 392.991455 C 679.361328 398.839722 692.422485 401.942688 705.681641 402.071533 C 723.130737 402.071533 727.701172 396.136475 727.701172 389.370361 C 727.701172 377.915833 706.157166 376.195313 693.990234 372.159424 C 671.733765 365.170837 656.788635 353.174316 650.707031 336.120361 C 650.878052 338.753357 651.002441 341.389221 651.080078 344.026611 C 651.19873 405.395142 620.27655 450.678955 559.382813 450.678955 C 498.963928 450.678955 468.873077 405.158203 468.873077 363.137939 C 468.873077 316.310364 488.756134 279.571472 498.845734 257.671143 L 553.921875 276.544189 C 538.312683 311.561035 531.310547 335.894592 531.310547 354.827393 C 531.310547 379.992004 541.873657 395.128174 560.509766 395.128174 C 582.884949 395.128174 588.701172 362.662109 588.701172 336.72583 C 588.550232 317.367126 585.243164 298.162598 578.910156 279.868408 L 637.726563 272.270752 C 642.283997 284.997742 645.676819 298.112061 647.863281 311.452393 C 650.580444 272.794556 680.191895 254.526627 724.792969 254.526627 Z M 375.277374 317.317627 C 359.252716 317.317627 343.761749 330.43512 343.761749 352.928955 C 343.761749 375.422852 359.252716 388.540283 375.277374 388.540283 C 391.302063 388.540283 407.029327 375.363647 407.029327 352.928955 C 407.029327 330.494568 391.302063 317.317627 375.277374 317.317627 Z"/>
</svg>
