<?xml version="1.0" encoding="UTF-8"?>
<!-- Generated by Pixelmator Pro 3.6.14 -->
<svg width="887" height="186" viewBox="0 0 887 186" xmlns="http://www.w3.org/2000/svg">
    <path id="47408984" fill="#000000" fill-rule="evenodd" stroke="none" d="M 65.191612 160.299286 C 75.043076 161.589767 84.997276 162.435547 94.789207 163.43512 L 97.625977 175.397324 C 81.254845 174.371887 64.46524 174.132721 48.008705 174.132721 C 32.338428 174.132721 16.360592 174.312012 0.71583 175.397324 L 2.971498 163.460983 C 11.208269 162.410034 19.462051 161.709167 27.750198 160.38504 C 28.50209 145.945007 28.630356 101.010201 28.630356 80.572052 L 28.630356 71.198944 C 28.630356 64.235275 28.50209 27.186813 27.750198 15.370239 C 19.521931 13.652802 10.960592 13.293869 2.646933 12.541977 L 0.955004 0.904343 L 59.611969 0.691025 C 85.356216 0.691025 107.750977 2.741547 120.020386 7.748581 C 142.654678 17.18158 145.311813 33.065521 145.311813 39.994812 C 145.311813 81.170158 104.948227 99.950752 69.805359 104.838028 L 71.275116 91.996033 C 92.559059 86.689919 108.084061 74.81311 108.084061 48.530624 C 108.084061 35.355194 101.599091 24.862762 90.935509 19.556656 C 84.629837 16.4552 74.59024 15.036819 65.157242 14.737762 C 64.46524 25.469376 64.28595 53.956497 64.28595 71.856934 L 64.28595 81.836655 C 64.28595 100.164413 64.46524 147.3974 65.191612 160.299286 Z M 234.531937 160.419067 C 242.640442 161.862946 250.928589 162.614838 259.003082 163.43512 L 261.87384 175.551102 C 245.169647 173.95343 227.41449 174.132721 210.778656 174.132721 C 197.065002 174.132721 183.231567 174.551544 169.663193 175.397324 L 171.953232 163.281342 C 180.121613 162.862869 188.469284 161.709167 196.552277 160.325165 C 197.398071 146.970078 197.637604 107.939491 197.637604 86.53614 L 197.637604 72.608826 C 197.637604 65.440002 197.398071 27.793427 196.672043 15.583542 C 188.469284 14.344803 180.360794 13.413269 172.226425 12.541977 L 169.389633 0.357605 C 186.11972 2.168945 204.293335 1.869888 220.903656 1.869888 C 234.438034 1.869888 248.484772 1.895752 261.993622 0.332092 L 259.003082 12.541977 C 250.834686 13.413269 242.640442 14.772125 234.49791 15.823074 C 233.899796 24.085358 233.626266 47.958389 233.626266 73.847565 L 233.626266 88.407364 C 233.626266 116.466812 233.899796 150.832275 234.531937 160.419067 Z M 404.805176 135.008224 C 392.210846 120.115356 381.444885 106.461578 375.301483 99.16449 C 366.919434 110.503067 346.302002 142.877563 337.014282 160.837875 C 342.807251 161.922836 348.591675 162.862869 354.470398 163.460983 L 356.12796 175.064255 L 352.180359 175.064255 C 348.412415 175.064255 328.247803 174.132721 314.713409 174.132721 C 304.400635 174.132721 294.335144 174.670944 283.99649 175.491226 L 288.003967 163.460983 C 293.250183 162.709091 298.974762 162.162018 303.887909 160.299286 C 313.961517 153.515274 354.495911 99.796974 365.167999 86.117325 C 356.973724 75.624886 345.943085 61.159332 335.510498 47.710358 C 324.812897 34.031067 314.858704 21.522125 309.527069 15.728821 C 304.127075 14.071259 298.462036 13.353745 292.976654 12.293945 L 291.259216 0.118423 C 304.255341 2.288712 318.626648 1.869888 331.503021 1.869888 C 346.302002 1.869888 361.194885 1.323151 375.9935 0.691025 L 372.524597 12.541977 C 366.740143 13.174103 360.946838 13.891968 355.196777 15.011307 C 361.707245 25.469376 378.941528 50.906067 386.477417 61.005554 C 394.500549 50.128662 410.564117 27.067398 417.561798 14.917404 L 413.400543 14.071259 C 409.897644 13.439133 406.437225 12.900909 403.06189 12.388199 L 400.737823 0.511383 C 413.067474 1.536819 425.516541 1.869888 437.991455 1.869888 C 447.458466 1.869888 456.925446 1.323151 466.392822 0.511383 L 465.273499 12.114655 C 459.693848 13.558548 454.123047 14.583984 448.449524 15.976852 L 446.527283 17.899094 C 438.264648 25.623154 430.788605 34.30426 423.346252 42.712173 C 412.435364 55.067322 401.250549 68.088623 396.158112 74.121109 C 422.321167 109.930473 447.945648 146.337952 474.800385 181.515198 L 455.720734 185.283157 C 437.025909 171.150665 419.971252 152.609604 404.805176 135.008224 L 404.805176 135.008224 Z M 620.744934 160.658234 C 613.576111 139.767258 607.210571 117.919571 598.35022 97.626694 C 587.926147 97.840363 559.046387 99.16449 548.553955 100.343704 C 545.845093 108.905045 536.224304 143.142258 533.302185 160.658234 C 539.667725 162.136505 546.263916 162.709091 552.749268 163.43512 L 555.03894 175.397324 C 541.0177 174.551544 526.825684 174.132721 512.864014 174.132721 C 502.346069 174.132721 491.793732 174.551544 481.36969 175.491226 L 483.052765 163.43512 C 490.170197 162.709091 497.13385 161.743546 504.123047 160.299286 C 513.376709 142.057281 552.296021 37.371689 560.669617 14.917404 C 554.859619 13.772202 549.066345 13.174103 543.247864 12.473587 L 542.769165 0.605286 C 554.825256 1.417053 567.120544 1.869888 579.270874 1.869888 C 594.795898 1.869888 610.526062 1.690598 625.905762 0.605286 L 624.17981 12.473587 C 618.634521 13.114212 613.029419 13.772202 607.578003 15.011307 C 611.764771 28.485794 623.094849 61.039566 631.297241 83.434334 C 637.714172 101.215363 651.70105 139.254532 662.433044 160.299286 C 669.635864 161.709167 676.778809 162.614838 684.015991 163.554886 L 685.767456 175.816147 C 671.566956 173.440704 654.324158 174.132721 640.217529 174.132721 C 625.53833 174.132721 610.466187 174.312012 595.786987 175.491226 L 598.623718 163.375244 C 606.065735 162.709091 613.388306 162.076614 620.744934 160.658234 L 620.744934 160.658234 Z M 727.90979 15.583542 C 719.673035 14.37883 711.119812 13.772202 702.823547 13.0802 L 701.165955 1.323151 L 758.318787 1.083984 C 780.500244 1.083984 811.610168 1.323151 828.459656 8.013275 C 841.934143 13.353745 850.91394 23.324966 850.91394 38.132095 C 850.91394 54.101776 834.158691 73.369217 816.6427 84.126343 C 833.312561 112.305908 865.174683 156.471466 886.544006 179.105392 L 866.199768 181.848267 C 849.230835 174.038818 797.084717 114.929016 782.097961 96.814919 C 775.587097 97.301773 768.896973 97.840363 764.436707 97.994141 L 764.436707 100.76252 C 764.436707 114.963028 764.829651 147.363388 765.462097 160.598358 C 773.485229 161.922836 781.739014 162.709091 789.881897 163.43512 L 792.17157 175.491226 C 777.372925 174.286499 762.087097 174.132721 747.288147 174.132721 C 731.976807 174.132721 716.092834 174.132721 700.841064 175.491226 L 703.096741 163.375244 C 711.359375 162.709091 719.800903 161.982727 727.84137 160.419067 C 728.567444 148.687515 728.840942 108.05925 728.840942 85.331421 L 728.840942 70.9254 C 728.840942 62.962158 728.567444 25.708893 727.90979 15.583542 L 727.90979 15.583542 Z M 574.45166 26.554688 C 567.63324 45.360794 558.080872 71.318352 554.158752 82.708313 L 593.949768 83.434334 C 589.036987 68.755112 579.689331 42.344727 574.45166 26.554688 Z M 788.548889 79.512604 C 798.050232 76.017838 813.207825 66.012604 813.207825 44.76268 C 813.207825 32.766464 802.655518 15.728821 765.436218 14.737762 C 764.829651 28.391541 764.436707 64.747986 764.436707 79.965439 L 764.436707 83.733391 C 771.913025 83.51973 780.201172 82.588547 788.548889 79.512604 Z"/>
</svg>
