<?xml version="1.0" encoding="UTF-8"?>
<!-- Generated by Pixelmator Pro 3.6.14 -->
<svg width="1588" height="764" viewBox="0 0 1588 764" xmlns="http://www.w3.org/2000/svg">
    <path id="Path" fill="#000000" stroke="none" d="M 88 3.200012 C 36.933334 14 0 57.333374 0 106.533325 C 0 146.533325 14.8 176.400024 42.933334 193.466675 C 55.066666 200.93335 70 205.600037 96.933334 210.666687 C 125.866669 216 136.266663 219.200012 142.933334 224.666687 C 152.53334 232.533325 153.066666 246.666687 144.266663 255.466675 C 128.800003 270.800018 105.333336 255.466675 103.066666 228.533325 L 102.26667 219.333313 L 51.200001 219.333313 L 0 219.333313 L 0 286 L 0 352.666656 L 35.200001 352.666656 L 70.26667 352.666656 L 71.199997 347.200012 C 72.133331 341.200012 79.199997 332.666656 83.199997 332.666656 C 87.066666 332.666656 93.73333 336.133331 106.666664 344.933319 C 124.666664 357.066681 141.333328 362 164.800003 362 C 217.866669 362 263.466675 327.333344 277.600006 276 C 281.733337 260.800018 281.733337 227.600037 277.600006 212 C 269.466675 182 252 160.266663 226 147.866699 C 210.399994 140.400024 190.666672 136.799988 165.733337 136.666687 C 147.46666 136.666687 133.733337 131.866699 129.866669 124.400024 C 123.066666 111.333313 132 98.133362 146.399994 99.733337 C 157.333328 100.93335 162.800003 107.600037 163.733337 120.93335 L 164.266663 128.666687 L 216.800003 128.666687 L 269.333344 128.666687 L 269.333344 69.333374 L 269.333344 10 L 231.333328 10 L 193.46666 10 L 192.53334 16.93335 C 191.866669 21.466675 190.53334 24.93335 188.53334 26.93335 C 183.733337 31.733337 184.133331 32 165.199997 17.466675 C 160.53334 13.866699 153.600006 9.600037 149.866669 7.866699 C 133.600006 0.666687 108.933334 -1.200012 88 3.200012 Z"/>
    <path id="path1" fill="#000000" stroke="none" d="M 420.666656 2 C 345.600006 13.733337 297.200012 74.93335 289.200012 168.666687 C 282.266663 250 312.799988 317.600006 369.466675 346.133331 C 407.600006 365.333344 458.533325 367.200012 498.533325 350.799988 C 542.266663 333.066681 575.200012 289.333344 586.666687 233.733337 C 598.266663 177.200012 590.400024 114.666687 566.400024 72 C 546.533325 36.93335 518.266663 14.666687 481.466675 5.066711 C 471.333344 2.533325 464.533325 1.733337 448.666656 1.333374 C 437.733337 1.066711 425.066681 1.333374 420.666656 2 Z M 448.933319 103.333374 C 457.866669 108.799988 463.200012 126.533325 465.466675 158.266663 C 467.866669 193.866699 464 234.533325 456.799988 248.266663 C 455.733337 250.266663 453.066681 253.733337 450.666656 256 C 447.066681 259.466675 445.466675 260 439.333344 260 C 433.600006 260 431.466675 259.333344 428.666656 256.666656 C 417.866669 246.666687 415.333344 232.133362 415.333344 181.333313 C 415.333344 138.533325 416.666656 126.400024 422.933319 113.200012 C 428.533325 101.333374 439.066681 97.333374 448.933319 103.333374 Z"/>
    <path id="path2" fill="#000000" stroke="none" d="M 597.333313 55.333374 L 597.333313 100.666687 L 603.333313 100.666687 C 611.06665 100.666687 617.466675 103.333374 621.06665 108 C 624 111.733337 624 111.866699 624 183.200012 C 624 222.533325 624.666687 260.399994 625.333313 267.466675 C 627.733337 292.93335 637.466675 313.200012 654.799988 329.333344 C 676.400024 349.333344 706.799988 360 746.666687 361.600006 C 821.599976 364.666656 873.466675 334.133331 884.666687 280.399994 C 886.266663 272.93335 886.666687 256.133331 886.799988 193.600037 C 886.799988 137.06665 887.200012 114.799988 888.400024 111.466675 C 890.533325 105.333374 895.733337 101.733337 903.866638 100.93335 L 910.666687 100.266663 L 910.666687 55.200012 L 910.666687 10 L 844.666687 10 L 778.666687 10 L 778.666687 55.200012 L 778.666687 100.266663 L 782.799988 101.200012 C 788.666687 102.266663 794.400024 108.93335 795.333313 115.733337 C 795.733337 118.799988 796 148 795.733337 180.666687 L 795.333313 240 L 792 246.533325 C 787.733337 255.200012 783.200012 258.266663 774.266663 259.066681 C 764.666687 259.866669 757.200012 256.133331 753.06665 248.266663 L 750 242.666687 L 750 176.266663 L 750 109.733337 L 754.93335 105.200012 C 757.866638 102.533325 761.333313 100.666687 763.333313 100.666687 L 766.666687 100.666687 L 766.666687 55.333374 L 766.666687 10 L 682 10 L 597.333313 10 L 597.333313 55.333374 Z"/>
    <path id="path3" fill="#000000" stroke="none" d="M 924.93335 10.93335 C 924.400024 11.333374 924 46.799988 924 89.600037 L 924 167.333313 L 960 167.333313 L 996 167.333313 L 996 143.600037 C 996 130.666687 996.666687 117.733337 997.466675 114.93335 C 999.466675 107.733337 1004.93335 102.133362 1011.06665 101.066711 L 1016.133362 100.266663 L 1015.733337 173.06665 C 1015.333313 244.133362 1015.333313 245.866699 1012.533325 249.599976 C 1009.06665 254.399994 1002 257.866669 993.466675 258.93335 L 986.666687 259.733337 L 986.666687 306.133331 L 986.666687 352.666656 L 1078 352.666656 L 1169.333374 352.666656 L 1169.333374 306.133331 L 1169.333374 259.733337 L 1162.533325 258.93335 C 1154 257.866669 1146.93335 254.399994 1143.466675 249.599976 C 1140.666626 245.866699 1140.666626 244.133362 1140.266724 173.200012 L 1140 100.666687 L 1143.866699 100.666687 C 1149.733276 100.666687 1156.666626 107.200012 1158.533325 114.533325 C 1159.333374 117.866699 1160 131.06665 1160 143.866699 L 1160 167.333313 L 1196 167.333313 L 1232 167.333313 L 1232 88.666687 L 1232 10 L 1078.93335 10 C 994.666687 10 925.333313 10.400024 924.93335 10.93335 Z"/>
    <path id="path4" fill="#000000" stroke="none" d="M 1245.333374 55.333374 L 1245.333374 100.666687 L 1250.133301 100.666687 C 1256.666626 100.666687 1263.733276 104.266663 1266 108.799988 C 1268.93335 114.400024 1268.93335 242.93335 1266 248.666687 C 1263.199951 254.133331 1258 257.733337 1251.199951 258.800018 L 1245.333374 259.600006 L 1245.333374 306.133331 L 1245.333374 352.666656 L 1328 352.666656 L 1410.666626 352.666656 L 1410.666626 306.266663 L 1410.666626 260 L 1404.400024 258 C 1394.533325 254.800018 1393.333374 251.333313 1393.333374 225.06665 L 1393.333374 203.333313 L 1416.666626 203.333313 L 1440 203.333313 L 1440 223.06665 C 1440 233.866699 1439.466675 244.666687 1438.666626 247.200012 C 1436.93335 253.333344 1432.533325 257.733337 1427.06665 258.800018 L 1422.666626 259.600006 L 1422.666626 306.133331 L 1422.666626 352.666656 L 1505.333374 352.666656 L 1588 352.666656 L 1588 306 L 1588 259.333344 L 1584.400024 259.333344 C 1582.266724 259.333344 1578.133301 258.133331 1574.93335 256.666656 C 1570.533325 254.666656 1568.666626 252.800018 1566.666626 248.400024 C 1564.266724 242.93335 1564 239.200012 1564 178.93335 C 1564 110 1564.133301 108.533325 1571.199951 104 C 1572.93335 102.799988 1577.333374 101.333374 1580.93335 100.93335 L 1587.333374 100 L 1587.333374 55.333374 L 1587.333374 10.666687 L 1505.06665 10.266663 L 1422.666626 10 L 1422.666626 55.333374 C 1422.666626 95.333374 1422.93335 100.666687 1424.666626 100.666687 C 1429.333374 100.666687 1434.93335 105.066711 1437.466675 110.400024 C 1439.466675 114.93335 1440 119.200012 1440 131.600037 L 1440 147.333313 L 1416.533325 147.333313 L 1393.06665 147.333313 L 1393.599976 128.533325 L 1394 109.733337 L 1398.93335 105.200012 C 1401.866699 102.533325 1405.333374 100.666687 1407.333374 100.666687 L 1410.666626 100.666687 L 1410.666626 55.333374 L 1410.666626 10 L 1328 10 L 1245.333374 10 L 1245.333374 55.333374 Z"/>
    <path id="path5" fill="#000000" stroke="none" d="M 154 461.866669 L 154 506.399994 L 159.733276 507.333344 C 167.199951 508.666656 172.133301 511.333344 174.93335 515.599976 C 177.06665 518.93335 177.333374 524.666687 177.733276 580.400024 C 178 620.799988 177.599976 644 176.666626 648.666687 C 174.666626 658.533325 166.666626 665.333313 157.199951 665.333313 L 154 665.333313 L 154 712 L 154 758.666687 L 245.333374 758.666687 L 336.666626 758.666687 L 336.666626 712 L 336.666626 665.333313 L 325.466675 665.333313 C 316.133301 665.333313 313.733276 664.799988 309.866699 662.266663 C 302.93335 657.599976 301.333374 653.333313 300.93335 636.266663 L 300.400024 621.333313 L 334.266724 621.333313 C 352.800049 621.333313 373.466675 620.666687 380 620 C 430.133301 614.400024 459.06665 590.93335 468 548.666687 C 470.666626 536.400024 470.666626 506.399994 468.133301 493.066681 C 461.199951 456.666656 437.866699 431.733337 402.666626 422.666656 C 383.733276 417.866669 371.599976 417.333344 261.733276 417.333344 L 154 417.333344 L 154 461.866669 Z M 330.133301 510.133331 C 336.400024 513.866699 339.333374 518.666687 340.533325 527.06665 C 342.533325 542 338.533325 556.133301 330.800049 561.733337 C 327.333374 564.133301 324.533325 564.799988 313.733276 565.06665 L 300.666626 565.599976 L 300.666626 537.06665 C 300.666626 521.333313 301.06665 508 301.733276 507.466675 C 303.599976 505.333344 325.599976 507.466675 330.133301 510.133331 Z"/>
    <path id="path6" fill="#000000" stroke="none" d="M 518.800049 418.399994 C 518.533447 418.933319 516.666748 425.733337 514.666748 433.333344 C 497.600098 501.200012 458.266724 644.799988 455.199951 650.799988 C 450.93335 659.333313 441.199951 665.333313 431.733276 665.333313 L 428.666626 665.333313 L 428.666626 712 L 428.666626 758.666687 L 495.333252 758.666687 L 562 758.666687 L 562 712.133362 L 562 665.733337 L 556.666748 664.93335 C 544.666748 663.333313 541.733398 657.333313 544.93335 640.93335 L 546.666748 631.333313 L 570.266602 630.93335 L 593.733398 630.666687 L 595.866699 640.133301 C 597.06665 645.333313 598 651.06665 598 652.666687 C 598 659.599976 589.199951 665.333313 578.399902 665.333313 L 574 665.333313 L 574 712 L 574 758.666687 L 663.333252 758.666687 L 752.666748 758.666687 L 752.666748 712.133362 L 752.666748 665.733337 L 747.600098 664.799988 C 741.466553 663.866699 736.133301 660 733.199951 654.400024 C 731.333252 650.93335 709.733398 572.533325 679.199951 459.066681 L 668 417.333344 L 593.733398 417.333344 C 552.93335 417.333344 519.199951 417.866669 518.800049 418.399994 Z M 578.399902 551.599976 C 581.866699 572 584.666748 589.466675 584.666748 590.266663 C 584.666748 591.599976 580.666748 592 569.199951 592 C 553.866699 592 553.733398 592 554.266602 588.93335 C 558.666748 567.200012 570.800049 514.666687 571.333252 514.666687 C 571.866699 514.666687 575.06665 531.333313 578.399902 551.599976 Z"/>
    <path id="path7" fill="#000000" stroke="none" d="M 771.333252 461.733337 L 771.333252 506.266663 L 779.199951 507.866669 C 788.666748 509.733337 793.333252 514.266663 794.666748 523.06665 C 795.06665 526.133301 795.333252 556.400024 795.06665 590.266663 C 794.666748 650 794.533447 651.866699 791.866699 655.466675 C 787.733398 661.200012 782.93335 664.133301 776.93335 664.93335 L 771.333252 665.733337 L 771.333252 712.133362 L 771.333252 758.666687 L 856.666748 758.666687 L 942 758.666687 L 942 712 L 942 665.333313 L 937.06665 665.333313 C 930.666748 665.333313 924.133301 661.333313 921.06665 655.733337 C 919.199951 652.133301 918.800049 647.866699 918.666748 632.666687 L 918.666748 614 L 929.466553 614 C 941.733398 614.133301 945.866699 615.866699 949.600098 623.06665 C 951.600098 626.666687 952 632.93335 952.800049 664 C 953.733398 705.333313 955.333252 716 962.666748 731.466675 C 973.199951 753.599976 993.733398 764 1026.266602 764 C 1074.133301 763.866638 1100.533447 737.733337 1107.333252 683.599976 C 1108 677.599976 1108.666748 657.599976 1108.666748 639.06665 L 1108.666748 605.333313 L 1096 605.333313 L 1083.333252 605.333313 L 1083.333252 633.200012 C 1083.333252 648.533325 1082.93335 662.93335 1082.533447 665.333313 C 1081.466553 670.400024 1078.666748 671.866699 1075.600098 668.799988 C 1073.733398 667.06665 1073.199951 663.06665 1072.666748 649.599976 C 1072 634.533325 1071.466553 631.733337 1068.266602 625.06665 C 1064.266602 616.93335 1056.533447 609.06665 1047.199951 603.599976 C 1040.266602 599.466675 1023.600098 594.666687 1016 594.533325 C 1005.333252 594.400024 1004.93335 592.400024 1015.333252 591.466675 C 1050.399902 588.133301 1072.133301 572.266663 1081.600098 542.93335 C 1086.266602 528.93335 1087.333252 502.399994 1084.133301 487.466675 C 1076.666748 454.133331 1050 429.866669 1010 420.533325 C 1000.93335 418.399994 989.199951 418.133331 885.733398 417.733337 L 771.333252 417.200012 L 771.333252 461.733337 Z M 942.666748 508.133331 C 945.466553 508.933319 949.733398 511.466675 952.133301 513.866699 C 962.800049 524.533325 960.399902 553.06665 948.266602 561.866699 C 945.199951 564.133301 942 564.799988 931.199951 565.06665 L 918 565.599976 L 918 537.06665 C 918 521.333313 918.399902 508 918.93335 507.600006 C 920.266602 506.133331 936.800049 506.533325 942.666748 508.133331 Z"/>
    <path id="path8" fill="#000000" stroke="none" d="M 1123.333252 461.866669 L 1123.333252 506.266663 L 1131.06665 507.866669 C 1139.866699 509.600006 1144 512.93335 1146 520.133301 C 1147.866699 526.533325 1147.733398 643.200012 1145.866699 650 C 1143.466553 658.799988 1135.333252 665.333313 1126.666748 665.333313 L 1123.333252 665.333313 L 1123.333252 712 L 1123.333252 758.666687 L 1205.333252 758.666687 L 1287.333252 758.666687 L 1287.333252 712.133362 L 1287.333252 665.599976 L 1282.93335 664.799988 C 1274 663.06665 1270.133301 654.666687 1270 636.666687 L 1270 627.333313 L 1279.733398 619.733337 L 1289.333252 612.133301 L 1300.533447 634.400024 C 1310.93335 655.333313 1311.600098 656.799988 1309.866699 660 C 1308.800049 661.866699 1306 663.866699 1303.600098 664.666687 L 1299.333252 665.866699 L 1299.333252 712.266663 L 1299.333252 758.666687 L 1382 758.666687 L 1464.666748 758.666687 L 1464.666748 712.133362 L 1464.666748 665.733337 L 1459.466553 664.799988 C 1456.533447 664.400024 1452.666748 662.666687 1450.93335 660.93335 C 1447.733398 658 1388.266602 537.866699 1388.93335 535.866699 C 1389.199951 535.200012 1392.93335 531.733337 1397.199951 528.133301 C 1409.866699 517.466675 1426.533447 509.733337 1442.399902 507.333344 L 1447.333252 506.533325 L 1447.333252 462 L 1447.333252 417.333344 L 1373.333252 417.333344 L 1299.333252 417.333344 L 1299.333252 462 L 1299.333252 506.666656 L 1302.666748 508 C 1306.533447 509.466675 1307.06665 513.866699 1303.866699 518.400024 C 1302 521.200012 1276.399902 539.200012 1272 540.93335 C 1270.399902 541.466675 1270 540.133301 1270 533.866699 C 1270.133301 518.400024 1274.800049 509.200012 1283.466553 507.466675 L 1287.333252 506.666656 L 1287.333252 462 L 1287.333252 417.333344 L 1205.333252 417.333344 L 1123.333252 417.333344 L 1123.333252 461.866669 Z"/>
</svg>
